M48
; DRILL file {KiCad (5.1.2)-1} date 2020/06/29 16:15:04
; FORMAT={-:-/ absolute / metric / decimal}
; #@! TF.CreationDate,2020-06-29T16:15:04+09:00
; #@! TF.GenerationSoftware,Kicad,Pcbnew,(5.1.2)-1
FMAT,2
METRIC
T1C0.400
T2C0.800
T3C1.100
T4C1.499
T5C1.690
T6C1.702
T7C2.200
T8C2.950
T9C4.000
%
G90
G05
T1
X-38.161Y-511.447
X-12.757Y-514.402
X-12.322Y-513.209
X-11.888Y-512.015
X-10.438Y-511.4
X18.419Y-528.661
X36.145Y-520.388
X37.029Y-523.947
X37.463Y-522.753
X37.897Y-521.56
X39.889Y-525.107
X42.219Y-583.951
X47.324Y-566.212
X52.36Y-530.681
X55.571Y-532.915
X56.711Y-537.905
X57.898Y-583.575
X64.475Y-541.37
X66.691Y-528.191
X67.939Y-529.764
X69.622Y-532.531
X76.999Y-530.521
X77.708Y-541.751
X79.171Y-536.488
X82.646Y-546.036
X86.549Y-564.27
X98.935Y-590.788
X169.872Y-510.909
X192.885Y-544.43
X193.212Y-549.041
X193.64Y-527.937
X206.671Y-563.739
X208.408Y-568.513
T2
X-18.528Y-535.486
X-11.368Y-538.092
X82.696Y-533.178
X89.857Y-530.572
X106.244Y-542.177
X113.405Y-539.571
X176.209Y-567.307
X183.369Y-564.7
X88.995Y-550.482
X96.155Y-547.876
X-31.559Y-571.288
X-24.399Y-573.894
X112.76Y-560.078
X119.92Y-557.472
X169.721Y-549.482
X176.881Y-546.876
X-4.102Y-551.549
X3.058Y-554.155
X-49.461Y-564.773
X-42.3Y-567.379
X14.016Y-557.467
X21.177Y-560.074
X102.243Y-586.881
X109.403Y-584.275
X95.727Y-568.98
X102.888Y-566.374
X137.176Y-571.464
X144.337Y-568.857
X2.63Y-533.051
X9.791Y-535.657
X74.569Y-566.545
X81.729Y-563.939
X177.821Y-516.038
X184.982Y-513.432
X81.084Y-584.446
X88.244Y-581.84
X20.532Y-539.566
X27.692Y-542.172
X-36.43Y-528.97
X-29.269Y-531.577
X27.047Y-521.665
X34.207Y-524.271
X197.368Y-569.742
X204.528Y-567.136
X-63.507Y-549.524
X-56.347Y-552.13
X130.661Y-553.562
X137.821Y-550.956
X37.564Y-548.469
X44.724Y-551.075
X190.255Y-552.058
X197.416Y-549.452
X156.69Y-513.68
X163.851Y-511.074
X7.501Y-575.369
X14.661Y-577.975
X145.304Y-538.096
X152.465Y-535.49
X119.275Y-577.979
X126.436Y-575.373
X158.335Y-573.899
X165.496Y-571.292
X9.146Y-515.15
X16.306Y-517.756
X45.692Y-581.836
X52.852Y-584.442
X-57.589Y-531.405
X-50.428Y-534.012
X117.413Y-517.163
X124.573Y-514.557
X-12.013Y-517.585
X-4.853Y-520.191
X44.079Y-530.567
X51.24Y-533.174
X99.729Y-524.276
X106.889Y-521.669
X31.048Y-566.37
X38.209Y-568.976
X-42.945Y-546.872
X-35.785Y-549.478
X138.789Y-520.195
X145.949Y-517.589
X151.82Y-555.998
X158.98Y-553.391
X-29.914Y-511.069
X-22.754Y-513.675
X-70.619Y-567.208
X-63.459Y-569.814
X124.145Y-535.661
X131.306Y-533.055
X24.533Y-584.271
X31.693Y-586.877
X-25.044Y-553.387
X-17.883Y-555.993
X-10.401Y-568.853
X-3.24Y-571.459
X-51.073Y-513.504
X-43.913Y-516.111
X52.207Y-563.935
X59.368Y-566.541
X184.364Y-534.016
X191.525Y-531.41
X163.206Y-531.581
X170.366Y-528.975
X57.715Y-600.01
X63.103Y-594.622
T3
X79.515Y-515.386
X79.515Y-519.886
X86.015Y-515.386
X86.015Y-519.886
X59.345Y-513.536
X59.345Y-516.076
X59.345Y-518.616
X59.345Y-521.156
X59.345Y-523.696
X59.345Y-526.236
X59.345Y-528.776
X59.345Y-531.316
X59.345Y-533.856
X59.345Y-536.396
X59.345Y-538.936
X59.345Y-541.476
X74.585Y-513.536
X74.585Y-516.076
X74.585Y-518.616
X74.585Y-521.156
X74.585Y-523.696
X74.585Y-526.236
X74.585Y-528.776
X74.585Y-531.316
X74.585Y-533.856
X74.585Y-536.396
X74.585Y-538.936
X74.585Y-541.476
T4
X6.757Y-521.713
X13.593Y-521.498
X178.626Y-573.947
X183.724Y-569.388
X186.753Y-540.58
X191.852Y-536.021
X43.303Y-588.399
X50.139Y-588.185
X108.633Y-548.741
X113.732Y-544.182
X-51.85Y-571.336
X-45.014Y-571.121
X104.632Y-593.445
X109.73Y-588.886
X85.085Y-539.742
X90.184Y-535.183
X-33.948Y-577.852
X-27.113Y-577.637
X76.958Y-573.109
X82.056Y-568.55
X-12.79Y-575.417
X-5.954Y-575.202
X159.079Y-520.243
X164.177Y-515.685
X139.565Y-578.027
X144.664Y-573.469
X-59.978Y-537.969
X-53.142Y-537.754
X-45.334Y-553.435
X-38.498Y-553.22
X18.143Y-546.13
X24.978Y-545.915
X-53.462Y-520.068
X-46.626Y-519.853
X98.116Y-575.544
X103.215Y-570.985
X172.11Y-556.046
X177.208Y-551.487
X147.693Y-544.66
X152.792Y-540.101
X22.144Y-590.835
X28.98Y-590.62
X193.269Y-558.481
X198.367Y-553.922
X0.241Y-539.615
X7.077Y-539.4
X41.69Y-537.131
X48.526Y-536.916
X-20.917Y-542.05
X-14.082Y-541.835
X199.784Y-576.382
X204.883Y-571.823
X102.118Y-530.839
X107.216Y-526.281
X91.601Y-557.643
X96.699Y-553.084
X62.474Y-604.74
X65.168Y-598.453
X141.178Y-526.759
X146.276Y-522.2
X115.149Y-566.642
X120.247Y-562.083
X-27.433Y-559.951
X-20.597Y-559.736
X-66.493Y-555.87
X-59.657Y-555.655
X-32.303Y-517.633
X-25.467Y-517.418
X133.05Y-560.126
X138.148Y-555.568
X-38.819Y-535.534
X-31.983Y-535.319
X160.724Y-580.462
X165.823Y-575.904
X28.659Y-572.933
X35.495Y-572.718
X-73.008Y-573.771
X-66.173Y-573.557
X35.175Y-555.032
X42.011Y-554.817
X24.658Y-528.229
X31.494Y-528.014
X126.535Y-542.225
X131.633Y-537.666
X49.818Y-570.498
X56.654Y-570.283
X120.019Y-524.324
X125.117Y-519.765
X165.595Y-538.145
X170.693Y-533.586
X121.664Y-584.543
X126.763Y-579.984
X180.238Y-522.679
X185.336Y-518.12
X5.112Y-581.932
X11.947Y-581.717
X83.473Y-591.01
X88.571Y-586.451
X-6.274Y-557.516
X0.562Y-557.301
X11.627Y-564.031
X18.463Y-563.816
X-14.402Y-524.148
X-7.566Y-523.933
X154.209Y-562.561
X159.307Y-558.003
T5
X-62.04Y-539.922
X-52.492Y-543.397
X-47.396Y-555.388
X-37.849Y-558.863
X16.08Y-548.082
X25.628Y-551.557
X-55.524Y-522.021
X-45.977Y-525.495
X97.792Y-578.365
X107.339Y-574.89
X171.785Y-558.867
X181.333Y-555.392
X147.369Y-547.481
X156.916Y-544.006
X20.082Y-592.787
X29.629Y-596.262
X192.944Y-561.302
X202.492Y-557.827
X-1.821Y-541.567
X7.727Y-545.042
X39.628Y-539.084
X49.176Y-542.559
X-22.98Y-544.002
X-13.432Y-547.477
X199.46Y-579.203
X209.007Y-575.728
X101.793Y-533.661
X111.34Y-530.186
X91.276Y-560.464
X100.824Y-556.989
X63.372Y-607.434
X70.557Y-600.249
X140.853Y-529.58
X150.401Y-526.105
X114.824Y-569.463
X124.371Y-565.988
X-29.495Y-561.903
X-19.948Y-565.378
X-68.555Y-557.823
X-59.008Y-561.298
X-34.365Y-519.585
X-24.818Y-523.06
X132.725Y-562.947
X142.273Y-559.472
X-40.881Y-537.487
X-31.333Y-540.962
X160.4Y-583.284
X169.947Y-579.809
X26.597Y-574.886
X36.145Y-578.361
X-75.071Y-575.724
X-65.523Y-579.199
X33.113Y-556.985
X42.66Y-560.46
X22.596Y-530.181
X32.143Y-533.656
X126.21Y-545.046
X135.757Y-541.571
X47.756Y-572.451
X57.303Y-575.926
X119.694Y-527.145
X129.242Y-523.67
X165.27Y-540.966
X174.817Y-537.491
X121.34Y-587.364
X130.887Y-583.889
X179.913Y-525.5
X189.461Y-522.025
X3.049Y-583.885
X12.597Y-587.36
X83.148Y-593.831
X92.696Y-590.356
X-8.336Y-559.468
X1.211Y-562.943
X9.565Y-565.984
X19.112Y-569.459
X-16.464Y-526.101
X-6.917Y-529.576
X153.884Y-565.382
X163.431Y-561.908
X4.695Y-523.666
X14.242Y-527.141
X178.301Y-576.768
X187.848Y-573.293
X186.429Y-543.401
X195.976Y-539.926
X41.241Y-590.352
X50.788Y-593.827
X108.309Y-551.562
X117.856Y-548.087
X-53.912Y-573.289
X-44.364Y-576.764
X104.307Y-596.266
X113.855Y-592.791
X84.761Y-542.563
X94.308Y-539.088
X-36.011Y-579.804
X-26.463Y-583.279
X76.633Y-575.93
X86.18Y-572.455
X-14.852Y-577.369
X-5.304Y-580.844
X158.754Y-523.065
X168.302Y-519.59
X139.241Y-580.848
X148.788Y-577.374
T6
X-62.434Y-539.778
X-52.098Y-543.54
X-47.791Y-555.244
X-37.454Y-559.006
X15.686Y-547.939
X26.022Y-551.701
X-55.919Y-521.877
X-45.582Y-525.639
X97.397Y-578.509
X107.734Y-574.747
X171.391Y-559.011
X181.727Y-555.248
X146.974Y-547.625
X157.311Y-543.863
X19.687Y-592.643
X30.024Y-596.406
X192.55Y-561.446
X202.886Y-557.683
X-2.215Y-541.423
X8.121Y-545.186
X39.234Y-538.94
X49.57Y-542.702
X-23.374Y-543.858
X-13.038Y-547.621
X199.065Y-579.347
X209.402Y-575.585
X101.399Y-533.804
X111.735Y-530.042
X90.882Y-560.608
X101.218Y-556.845
X63.075Y-607.731
X70.854Y-599.952
X140.459Y-529.724
X150.795Y-525.962
X114.43Y-569.606
X124.766Y-565.844
X-29.89Y-561.76
X-19.553Y-565.522
X-68.95Y-557.679
X-58.613Y-561.441
X-34.76Y-519.442
X-24.423Y-523.204
X132.331Y-563.091
X142.667Y-559.329
X-41.275Y-537.343
X-30.939Y-541.105
X160.005Y-583.427
X170.342Y-579.665
X26.203Y-574.742
X36.539Y-578.504
X-75.465Y-575.58
X-65.129Y-579.343
X32.718Y-556.841
X43.055Y-560.603
X22.201Y-530.038
X32.538Y-533.8
X125.815Y-545.19
X136.152Y-541.428
X47.362Y-572.307
X57.698Y-576.069
X119.3Y-527.289
X129.636Y-523.526
X164.875Y-541.109
X175.212Y-537.347
X120.945Y-587.508
X131.282Y-583.745
X179.519Y-525.643
X189.855Y-521.881
X2.655Y-583.741
X12.991Y-587.503
X82.754Y-593.975
X93.09Y-590.213
X-8.731Y-559.324
X1.606Y-563.087
X9.17Y-565.84
X19.507Y-569.602
X-16.859Y-525.957
X-6.522Y-529.719
X153.49Y-565.526
X163.826Y-561.764
X4.3Y-523.522
X14.637Y-527.284
X177.906Y-576.912
X188.243Y-573.15
X186.034Y-543.545
X196.371Y-539.782
X40.846Y-590.208
X51.183Y-593.971
X107.914Y-551.705
X118.251Y-547.943
X-54.306Y-573.145
X-43.97Y-576.907
X103.913Y-596.41
X114.249Y-592.648
X84.366Y-542.707
X94.703Y-538.944
X-36.405Y-579.661
X-26.069Y-583.423
X76.238Y-576.074
X86.575Y-572.311
X-15.246Y-577.226
X-4.91Y-580.988
X158.36Y-523.208
X168.696Y-519.446
X138.846Y-580.992
X149.183Y-577.23
T7
X188.767Y-562.822
X-1.922Y-515.852
X40.298Y-579.884
X101.743Y-546.518
X-41.416Y-512.965
X175.352Y-512.969
X201.024Y-548.225
X-15.794Y-566.902
X136.676Y-531.1
X32.17Y-546.517
X149.707Y-566.903
X175.736Y-527.02
X48.939Y-610.048
X45.817Y-525.794
X-2.763Y-531.099
X-67.088Y-548.221
X178.25Y-589.626
X-41.823Y-527.019
X140.059Y-596.093
X88.119Y-525.798
X19.139Y-582.32
X135.858Y-515.856
X-44.314Y-589.621
X66.965Y-590.371
X93.615Y-579.885
X-54.854Y-562.821
X114.774Y-582.321
X-6.123Y-596.089
X84.998Y-610.052
T8
X-61.39Y-545.564
X-55.231Y-536.068
X-54.555Y-545.349
X-51.285Y-539.845
X-46.747Y-561.03
X-40.588Y-551.534
X-39.911Y-560.815
X-36.642Y-555.311
X16.73Y-553.725
X22.889Y-544.229
X23.566Y-553.51
X26.835Y-548.006
X-54.875Y-527.663
X-48.716Y-518.167
X-48.039Y-527.448
X-44.769Y-521.944
X100.53Y-571.037
X101.916Y-582.27
X105.981Y-571.394
X107.014Y-577.711
X174.524Y-551.538
X175.91Y-562.772
X179.975Y-551.896
X181.008Y-558.213
X150.107Y-540.153
X151.493Y-551.386
X155.558Y-540.51
X156.591Y-546.828
X20.731Y-598.429
X26.891Y-588.933
X27.567Y-598.214
X30.837Y-592.711
X195.683Y-553.973
X197.069Y-565.207
X201.134Y-554.331
X202.167Y-560.648
X-1.171Y-547.209
X4.988Y-537.713
X5.664Y-546.994
X8.934Y-541.491
X40.278Y-544.726
X46.437Y-535.23
X47.113Y-544.511
X50.383Y-539.007
X-22.33Y-549.644
X-16.171Y-540.148
X-15.494Y-549.429
X-12.225Y-543.926
X202.198Y-571.875
X203.584Y-583.108
X207.649Y-572.232
X208.682Y-578.549
X104.532Y-526.332
X105.917Y-537.565
X109.983Y-526.689
X111.016Y-533.007
X94.015Y-553.135
X95.401Y-564.369
X99.466Y-553.493
X100.499Y-559.81
X62.757Y-599.634
X67.848Y-597.654
X68.761Y-609.23
X71.455Y-602.943
X143.592Y-522.252
X144.978Y-533.485
X149.043Y-522.609
X150.076Y-528.926
X117.563Y-562.134
X118.948Y-573.368
X123.014Y-562.491
X124.047Y-568.809
X-28.846Y-567.546
X-22.686Y-558.049
X-22.01Y-567.331
X-18.74Y-561.827
X-67.906Y-563.465
X-61.746Y-553.969
X-61.07Y-563.25
X-57.8Y-557.747
X-33.716Y-525.228
X-27.557Y-515.732
X-26.88Y-525.013
X-23.611Y-519.509
X135.464Y-555.619
X136.85Y-566.852
X140.915Y-555.976
X141.948Y-562.294
X-40.231Y-543.129
X-34.072Y-533.633
X-33.396Y-542.914
X-30.126Y-537.41
X163.138Y-575.955
X164.524Y-587.188
X168.589Y-576.312
X169.622Y-582.63
X27.247Y-580.528
X33.406Y-571.032
X34.082Y-580.313
X37.352Y-574.81
X-74.421Y-581.366
X-68.262Y-571.87
X-67.585Y-581.151
X-64.316Y-575.648
X33.762Y-562.627
X39.921Y-553.131
X40.598Y-562.412
X43.867Y-556.908
X23.245Y-535.824
X29.405Y-526.328
X30.081Y-535.609
X33.351Y-530.105
X128.948Y-537.718
X130.334Y-548.951
X134.399Y-538.075
X135.432Y-544.392
X48.406Y-578.093
X54.565Y-568.597
X55.241Y-577.878
X58.511Y-572.375
X122.433Y-519.816
X123.819Y-531.05
X127.884Y-520.174
X128.917Y-526.491
X168.008Y-533.637
X169.394Y-544.871
X173.459Y-533.994
X174.492Y-540.312
X124.078Y-580.035
X125.464Y-591.269
X129.529Y-580.393
X130.562Y-586.71
X182.652Y-518.171
X184.038Y-529.405
X188.103Y-518.528
X189.136Y-524.846
X3.699Y-589.527
X9.858Y-580.031
X10.535Y-589.312
X13.804Y-583.808
X85.887Y-586.503
X87.273Y-597.736
X91.338Y-586.86
X92.371Y-593.177
X-7.687Y-565.11
X-1.528Y-555.614
X-0.851Y-564.895
X2.418Y-559.392
X10.214Y-571.626
X16.374Y-562.13
X17.05Y-571.411
X20.32Y-565.907
X-15.815Y-531.743
X-9.655Y-522.247
X-8.979Y-531.528
X-5.709Y-526.025
X156.623Y-558.054
X158.008Y-569.287
X162.074Y-558.411
X163.107Y-564.729
X5.344Y-529.308
X11.503Y-519.812
X12.18Y-529.093
X15.449Y-523.59
X181.039Y-569.439
X182.425Y-580.673
X186.49Y-569.797
X187.523Y-576.114
X189.167Y-536.072
X190.553Y-547.306
X194.618Y-536.429
X195.651Y-542.747
X41.89Y-595.994
X48.049Y-586.498
X48.726Y-595.779
X51.995Y-590.276
X111.047Y-544.233
X112.433Y-555.467
X116.498Y-544.59
X117.531Y-550.908
X-53.262Y-578.931
X-47.103Y-569.435
X-46.427Y-578.716
X-43.157Y-573.213
X107.046Y-588.938
X108.432Y-600.171
X112.497Y-589.295
X113.53Y-595.613
X87.499Y-535.234
X88.885Y-546.468
X92.95Y-535.591
X93.983Y-541.909
X-35.361Y-585.447
X-29.202Y-575.951
X-28.525Y-585.232
X-25.256Y-579.728
X79.371Y-568.601
X80.757Y-579.835
X84.822Y-568.959
X85.855Y-575.276
X-14.202Y-583.012
X-8.043Y-573.516
X-7.367Y-582.797
X-4.097Y-577.293
X161.493Y-515.736
X162.879Y-526.97
X166.944Y-516.093
X167.977Y-522.411
X141.979Y-573.52
X143.365Y-584.753
X147.43Y-573.877
X148.463Y-580.195
T9
X20.854Y-549.82
X-50.751Y-523.758
X102.565Y-576.628
X176.559Y-557.129
X152.142Y-545.744
X24.855Y-594.525
X197.718Y-559.565
X2.953Y-543.304
X44.402Y-540.821
X-18.206Y-545.74
X204.233Y-577.466
X106.567Y-531.923
X96.05Y-558.727
X66.965Y-603.842
X145.627Y-527.843
X119.598Y-567.725
X-24.721Y-563.641
X-63.782Y-559.56
X-29.592Y-521.323
X137.499Y-561.21
X-36.107Y-539.224
X165.173Y-581.546
X31.371Y-576.623
X-70.297Y-577.461
X37.886Y-558.722
X27.37Y-531.919
X130.983Y-543.309
X52.53Y-574.188
X124.468Y-525.408
X170.044Y-539.228
X126.113Y-585.627
X184.687Y-523.762
X7.823Y-585.622
X87.922Y-592.094
X-3.563Y-561.206
X14.339Y-567.721
X-11.691Y-527.838
X158.658Y-563.645
X9.468Y-525.403
X183.074Y-575.031
X191.202Y-541.663
X46.014Y-592.089
X113.082Y-549.824
X-49.138Y-575.026
X109.081Y-594.529
X89.534Y-540.825
X-31.237Y-581.542
X81.407Y-574.193
X-10.078Y-579.107
X163.528Y-521.327
X144.014Y-579.111
X-57.266Y-541.659
X-42.623Y-557.125
T0
M30
