M48
; DRILL file {KiCad (5.1.2)-1} date 2020/06/30 18:44:29
; FORMAT={-:-/ absolute / metric / decimal}
; #@! TF.CreationDate,2020-06-30T18:44:29+09:00
; #@! TF.GenerationSoftware,Kicad,Pcbnew,(5.1.2)-1
FMAT,2
METRIC
T1C0.400
T2C0.800
T3C1.100
T4C1.499
T5C1.690
T6C1.702
T7C2.200
T8C2.950
T9C4.000
%
G90
G05
T1
X46.617Y-54.839
X72.021Y-57.795
X72.455Y-56.601
X72.889Y-55.408
X74.339Y-54.793
X103.196Y-72.053
X120.922Y-63.781
X121.806Y-67.339
X122.24Y-66.146
X122.675Y-64.952
X124.667Y-68.499
X126.996Y-127.343
X132.101Y-109.604
X137.137Y-74.074
X140.348Y-76.307
X141.489Y-81.298
X142.675Y-126.968
X146.372Y-83.575
X147.728Y-81.73
X149.243Y-71.042
X149.252Y-84.762
X151.468Y-71.584
X153.012Y-72.804
X153.855Y-70.715
X154.399Y-75.923
X161.776Y-73.914
X162.485Y-85.144
X162.698Y-70.875
X163.948Y-79.881
X164.218Y-75.052
X167.042Y-82.809
X167.423Y-89.428
X171.326Y-107.663
X173.937Y-99.897
X174.816Y-139.446
X176.657Y-125.937
X177.352Y-92.572
X180.443Y-88.068
X180.452Y-117.798
X183.712Y-134.181
X239.785Y-54.306
X245.048Y-55.769
X254.65Y-54.301
X277.662Y-87.822
X277.989Y-92.433
X278.417Y-71.329
X291.448Y-107.132
X293.185Y-111.905
T2
X80.675Y-94.941
X87.835Y-97.547
X191.022Y-85.569
X198.182Y-82.963
X130.469Y-125.228
X137.63Y-127.834
X48.348Y-72.363
X55.508Y-74.969
X159.346Y-109.937
X166.506Y-107.331
X122.341Y-91.861
X129.502Y-94.467
X27.189Y-74.798
X34.349Y-77.404
X187.02Y-130.274
X194.181Y-127.668
X173.989Y-94.471
X181.15Y-91.865
X262.598Y-59.431
X269.759Y-56.824
X136.985Y-107.327
X144.145Y-109.933
X208.923Y-79.054
X216.083Y-76.447
X275.033Y-95.45
X282.193Y-92.844
X167.474Y-76.57
X174.634Y-73.964
X215.438Y-96.955
X222.599Y-94.349
X241.467Y-57.072
X248.628Y-54.466
X197.537Y-103.47
X204.698Y-100.864
X109.31Y-127.663
X116.471Y-130.269
X87.408Y-76.443
X94.568Y-79.049
X66.249Y-78.878
X73.409Y-81.484
X128.857Y-73.96
X136.017Y-76.566
X115.826Y-109.762
X122.986Y-112.368
X142.493Y-143.403
X147.881Y-138.015
X98.793Y-100.86
X105.954Y-103.466
X93.923Y-58.542
X101.084Y-61.148
X53.218Y-114.681
X60.378Y-117.287
X105.309Y-82.959
X112.469Y-85.565
X111.824Y-65.057
X118.985Y-67.664
X35.317Y-108.165
X42.477Y-110.771
X21.27Y-92.916
X28.43Y-95.522
X74.377Y-112.245
X81.537Y-114.852
X165.861Y-127.839
X173.022Y-125.232
X184.506Y-67.668
X191.667Y-65.062
X282.145Y-113.134
X289.305Y-110.528
X14.158Y-110.6
X21.318Y-113.206
X41.832Y-90.264
X48.993Y-92.87
X243.113Y-117.291
X250.273Y-114.685
X180.505Y-112.373
X187.665Y-109.766
X59.733Y-96.779
X66.894Y-99.386
X33.704Y-56.897
X40.865Y-59.503
X247.983Y-74.973
X255.143Y-72.367
X202.407Y-61.153
X209.568Y-58.546
X204.053Y-121.371
X211.213Y-118.765
X269.142Y-77.408
X276.302Y-74.802
X72.764Y-60.977
X79.925Y-63.583
X260.986Y-110.699
X268.146Y-108.093
X230.082Y-81.489
X237.242Y-78.883
X236.597Y-99.39
X243.758Y-96.784
X54.863Y-54.462
X62.024Y-57.068
X92.278Y-118.761
X99.438Y-121.367
X223.566Y-63.588
X230.727Y-60.981
X254.498Y-92.874
X261.659Y-90.268
X221.954Y-114.856
X229.114Y-112.25
T3
X164.292Y-58.779
X164.292Y-63.279
X170.792Y-58.779
X170.792Y-63.279
X144.122Y-56.929
X144.122Y-59.469
X144.122Y-62.009
X144.122Y-64.549
X144.122Y-67.089
X144.122Y-69.629
X144.122Y-72.169
X144.122Y-74.709
X144.122Y-77.249
X144.122Y-79.789
X144.122Y-82.329
X144.122Y-84.869
X159.362Y-56.929
X159.362Y-59.469
X159.362Y-62.009
X159.362Y-64.549
X159.362Y-67.089
X159.362Y-69.629
X159.362Y-72.169
X159.362Y-74.709
X159.362Y-77.249
X159.362Y-79.789
X159.362Y-82.329
X159.362Y-84.869
T4
X243.856Y-63.636
X248.955Y-59.077
X169.863Y-83.134
X174.961Y-78.575
X24.8Y-81.362
X31.636Y-81.147
X211.312Y-85.617
X216.41Y-81.059
X52.474Y-61.025
X59.31Y-60.81
X182.894Y-118.936
X187.992Y-114.378
X263.403Y-117.339
X268.501Y-112.781
X63.86Y-85.442
X70.696Y-85.227
X217.827Y-103.519
X222.926Y-98.96
X89.889Y-125.325
X96.725Y-125.11
X91.534Y-65.106
X98.37Y-64.891
X57.344Y-103.343
X64.18Y-103.128
X238.986Y-105.954
X244.084Y-101.395
X85.019Y-83.007
X91.854Y-82.792
X206.442Y-127.935
X211.54Y-123.377
X113.437Y-116.326
X120.272Y-116.111
X256.887Y-99.438
X261.986Y-94.88
X284.562Y-119.774
X289.66Y-115.216
X147.252Y-148.132
X149.946Y-141.846
X45.959Y-78.927
X52.794Y-78.712
X18.284Y-99.263
X25.12Y-99.048
X50.829Y-121.244
X57.665Y-121.029
X186.895Y-74.232
X191.993Y-69.673
X232.471Y-88.052
X237.569Y-83.494
X168.25Y-134.402
X173.349Y-129.844
X128.08Y-131.792
X134.916Y-131.577
X204.796Y-67.716
X209.895Y-63.158
X193.411Y-92.133
X198.509Y-87.574
X189.409Y-136.837
X194.507Y-132.279
X225.955Y-70.151
X231.053Y-65.593
X250.372Y-81.537
X255.47Y-76.978
X32.928Y-114.729
X39.763Y-114.514
X176.378Y-101.035
X181.477Y-96.477
X224.343Y-121.42
X229.441Y-116.861
X102.92Y-89.522
X109.756Y-89.307
X134.596Y-113.891
X141.431Y-113.676
X109.435Y-71.621
X116.271Y-71.406
X31.315Y-63.46
X38.151Y-63.245
X119.952Y-98.425
X126.788Y-98.21
X126.468Y-80.524
X133.303Y-80.309
X96.404Y-107.424
X103.24Y-107.209
X278.046Y-101.873
X283.144Y-97.315
X265.015Y-66.071
X270.113Y-61.512
X199.926Y-110.034
X205.024Y-105.475
X11.769Y-117.164
X18.605Y-116.949
X271.531Y-83.972
X276.629Y-79.413
X71.988Y-118.809
X78.823Y-118.594
X70.375Y-67.541
X77.211Y-67.326
X39.443Y-96.828
X46.279Y-96.613
X106.921Y-134.227
X113.757Y-134.012
X78.503Y-100.908
X85.339Y-100.693
X245.502Y-123.855
X250.6Y-119.296
X161.735Y-116.501
X166.833Y-111.943
T5
X161.41Y-119.322
X170.957Y-115.848
X243.532Y-66.457
X253.079Y-62.982
X169.538Y-85.955
X179.085Y-82.48
X22.738Y-83.314
X32.285Y-86.789
X210.987Y-88.439
X220.534Y-84.964
X50.412Y-62.978
X59.959Y-66.453
X182.569Y-121.758
X192.116Y-118.283
X263.078Y-120.16
X272.625Y-116.686
X61.798Y-87.394
X71.345Y-90.869
X217.503Y-106.34
X227.05Y-102.865
X87.827Y-127.277
X97.374Y-130.752
X89.472Y-67.058
X99.019Y-70.533
X55.282Y-105.296
X64.829Y-108.77
X238.661Y-108.775
X248.209Y-105.3
X82.956Y-84.959
X92.504Y-88.434
X206.117Y-130.756
X215.664Y-127.281
X111.375Y-118.278
X120.922Y-121.753
X256.563Y-102.259
X266.11Y-98.784
X284.237Y-122.596
X293.784Y-119.121
X148.15Y-150.826
X155.334Y-143.642
X43.896Y-80.879
X53.444Y-84.354
X16.222Y-101.215
X25.769Y-104.69
X48.767Y-123.197
X58.314Y-126.672
X186.57Y-77.053
X196.118Y-73.578
X232.146Y-90.874
X241.693Y-87.399
X167.926Y-137.224
X177.473Y-133.749
X126.018Y-133.744
X135.565Y-137.219
X204.472Y-70.537
X214.019Y-67.063
X193.086Y-94.954
X202.633Y-91.479
X189.084Y-139.659
X198.632Y-136.184
X225.63Y-72.973
X235.178Y-69.498
X250.047Y-84.358
X259.594Y-80.883
X30.866Y-116.681
X40.413Y-120.156
X176.054Y-103.856
X185.601Y-100.381
X224.018Y-124.241
X233.565Y-120.766
X100.858Y-91.475
X110.405Y-94.95
X132.533Y-115.843
X142.081Y-119.318
X107.373Y-73.574
X116.92Y-77.049
X29.253Y-65.413
X38.8Y-68.888
X117.89Y-100.377
X127.437Y-103.852
X124.406Y-82.476
X133.953Y-85.951
X94.342Y-109.376
X103.889Y-112.851
X277.721Y-104.694
X287.269Y-101.22
X264.691Y-68.892
X274.238Y-65.417
X199.601Y-112.855
X209.149Y-109.38
X9.707Y-119.116
X19.254Y-122.591
X271.206Y-86.793
X280.753Y-83.318
X69.926Y-120.762
X79.473Y-124.237
X68.313Y-69.493
X77.86Y-72.968
X37.381Y-98.78
X46.928Y-102.255
X104.859Y-136.179
X114.406Y-139.654
X76.441Y-102.86
X85.988Y-106.335
X245.177Y-126.676
X254.724Y-123.201
T6
X147.853Y-151.123
X155.631Y-143.345
X43.502Y-80.735
X53.838Y-84.498
X15.827Y-101.072
X26.164Y-104.834
X48.372Y-123.053
X58.709Y-126.815
X186.176Y-77.197
X196.512Y-73.434
X231.751Y-91.017
X242.088Y-87.255
X167.531Y-137.367
X177.868Y-133.605
X125.623Y-133.601
X135.96Y-137.363
X204.077Y-70.681
X214.414Y-66.919
X192.691Y-95.098
X203.028Y-91.335
X188.69Y-139.802
X199.026Y-136.04
X225.236Y-73.116
X235.572Y-69.354
X249.652Y-84.502
X259.989Y-80.74
X30.471Y-116.538
X40.807Y-120.3
X175.659Y-104.0
X185.995Y-100.238
X223.623Y-124.385
X233.96Y-120.622
X100.463Y-91.331
X110.8Y-95.093
X132.139Y-115.7
X142.475Y-119.462
X106.978Y-73.43
X117.315Y-77.192
X28.858Y-65.269
X39.195Y-69.031
X117.495Y-100.233
X127.832Y-103.996
X124.011Y-82.332
X134.347Y-86.095
X93.947Y-109.232
X104.284Y-112.995
X277.327Y-104.838
X287.663Y-101.076
X264.296Y-69.036
X274.632Y-65.274
X199.207Y-112.999
X209.543Y-109.237
X9.312Y-118.973
X19.649Y-122.735
X270.811Y-86.937
X281.148Y-83.175
X69.531Y-120.618
X79.867Y-124.38
X67.918Y-69.35
X78.255Y-73.112
X36.986Y-98.636
X47.323Y-102.399
X104.464Y-136.036
X114.801Y-139.798
X76.046Y-102.717
X86.383Y-106.479
X244.782Y-126.82
X255.119Y-123.057
X161.015Y-119.466
X171.352Y-115.704
X243.137Y-66.601
X253.474Y-62.838
X169.143Y-86.099
X179.48Y-82.337
X22.343Y-83.17
X32.68Y-86.933
X210.592Y-88.582
X220.929Y-84.82
X50.017Y-62.834
X60.354Y-66.596
X182.174Y-121.901
X192.511Y-118.139
X262.683Y-120.304
X273.02Y-116.542
X61.403Y-87.251
X71.74Y-91.013
X217.108Y-106.483
X227.445Y-102.721
X87.432Y-127.133
X97.769Y-130.896
X89.077Y-66.915
X99.414Y-70.677
X54.887Y-105.152
X65.224Y-108.914
X238.267Y-108.918
X248.603Y-105.156
X82.562Y-84.816
X92.898Y-88.578
X205.722Y-130.9
X216.059Y-127.138
X110.98Y-118.135
X121.317Y-121.897
X256.168Y-102.403
X266.505Y-98.641
X283.842Y-122.739
X294.179Y-118.977
T7
X133.716Y-153.44
X169.775Y-153.444
X172.897Y-69.19
X17.69Y-91.613
X116.948Y-89.91
X199.551Y-125.713
X82.856Y-59.244
X221.454Y-74.493
X40.463Y-133.014
X260.13Y-56.361
X125.076Y-123.277
X224.836Y-139.485
X260.514Y-70.412
X186.52Y-89.911
X68.983Y-110.294
X42.954Y-70.411
X78.655Y-139.481
X151.742Y-133.764
X82.014Y-74.492
X103.917Y-125.712
X220.635Y-59.248
X263.028Y-133.018
X178.392Y-123.278
X43.361Y-56.357
X273.545Y-106.215
X130.594Y-69.186
X285.801Y-91.617
X234.485Y-110.295
X29.923Y-106.214
T8
X246.27Y-59.128
X247.656Y-70.362
X251.721Y-59.486
X252.754Y-65.803
X172.277Y-78.627
X173.662Y-89.86
X177.728Y-78.984
X178.761Y-85.301
X23.387Y-88.956
X29.546Y-79.46
X30.223Y-88.741
X33.492Y-83.238
X213.726Y-81.11
X215.111Y-92.343
X219.177Y-81.467
X220.21Y-87.785
X51.061Y-68.62
X57.221Y-59.124
X57.897Y-68.405
X61.167Y-62.902
X185.308Y-114.429
X186.693Y-125.662
X190.759Y-114.786
X191.792Y-121.104
X265.817Y-112.832
X267.202Y-124.065
X271.268Y-113.189
X272.301Y-119.507
X62.447Y-93.037
X68.606Y-83.541
X69.283Y-92.822
X72.552Y-87.318
X220.241Y-99.011
X221.627Y-110.245
X225.692Y-99.368
X226.725Y-105.686
X88.476Y-132.919
X94.635Y-123.423
X95.312Y-132.704
X98.581Y-127.201
X90.121Y-72.701
X96.281Y-63.204
X96.957Y-72.486
X100.227Y-66.982
X55.931Y-110.938
X62.091Y-101.442
X62.767Y-110.723
X66.037Y-105.219
X241.4Y-101.446
X242.786Y-112.68
X246.851Y-101.803
X247.884Y-108.121
X83.606Y-90.602
X89.765Y-81.106
X90.442Y-90.387
X93.711Y-84.883
X208.856Y-123.428
X210.241Y-134.661
X214.306Y-123.785
X215.339Y-130.103
X112.024Y-123.921
X118.183Y-114.425
X118.86Y-123.706
X122.129Y-118.202
X259.301Y-94.931
X260.687Y-106.164
X264.752Y-95.288
X265.785Y-101.606
X286.976Y-115.267
X288.361Y-126.5
X292.426Y-115.624
X293.46Y-121.942
X147.534Y-143.027
X152.626Y-141.047
X153.538Y-152.622
X156.232Y-146.336
X44.546Y-86.521
X50.705Y-77.025
X51.382Y-86.306
X54.651Y-80.803
X16.871Y-106.858
X23.031Y-97.361
X23.707Y-106.643
X26.977Y-101.139
X49.416Y-128.839
X55.575Y-119.343
X56.252Y-128.624
X59.521Y-123.12
X189.309Y-69.724
X190.695Y-80.958
X194.76Y-70.082
X195.793Y-76.399
X234.885Y-83.545
X236.27Y-94.779
X240.335Y-83.902
X241.369Y-90.22
X170.664Y-129.895
X172.05Y-141.128
X176.115Y-130.252
X177.148Y-136.57
X126.667Y-139.387
X132.827Y-129.891
X133.503Y-139.172
X136.773Y-133.668
X207.21Y-63.209
X208.596Y-74.442
X212.661Y-63.566
X213.694Y-69.884
X195.825Y-87.625
X197.21Y-98.859
X201.275Y-87.983
X202.309Y-94.3
X191.823Y-132.33
X193.209Y-143.564
X197.274Y-132.687
X198.307Y-139.005
X228.369Y-65.644
X229.755Y-76.877
X233.82Y-66.001
X234.853Y-72.319
X252.786Y-77.03
X254.171Y-88.263
X258.237Y-77.387
X259.27Y-83.704
X31.515Y-122.324
X37.674Y-112.828
X38.351Y-122.109
X41.62Y-116.605
X178.792Y-96.528
X180.178Y-107.761
X184.243Y-96.885
X185.276Y-103.203
X226.757Y-116.912
X228.142Y-128.146
X232.208Y-117.269
X233.241Y-123.587
X101.507Y-97.117
X107.666Y-87.621
X108.343Y-96.902
X111.612Y-91.399
X133.183Y-121.486
X139.342Y-111.989
X140.019Y-121.271
X143.288Y-115.767
X108.022Y-79.216
X114.182Y-69.72
X114.858Y-79.001
X118.128Y-73.497
X29.902Y-71.055
X36.062Y-61.559
X36.738Y-70.84
X40.008Y-65.337
X118.539Y-106.02
X124.699Y-96.523
X125.375Y-105.805
X128.645Y-100.301
X125.055Y-88.118
X131.214Y-78.622
X131.891Y-87.903
X135.16Y-82.4
X94.992Y-115.018
X101.151Y-105.522
X101.827Y-114.803
X105.097Y-109.3
X280.46Y-97.366
X281.846Y-108.599
X285.911Y-97.723
X286.944Y-104.041
X267.429Y-61.564
X268.815Y-72.797
X272.88Y-61.921
X273.913Y-68.238
X202.34Y-105.527
X203.726Y-116.76
X207.791Y-105.884
X208.824Y-112.201
X10.356Y-124.759
X16.515Y-115.263
X17.192Y-124.544
X20.461Y-119.04
X273.945Y-79.465
X275.33Y-90.698
X279.396Y-79.822
X280.429Y-86.14
X70.575Y-126.404
X76.734Y-116.908
X77.411Y-126.189
X80.68Y-120.685
X68.962Y-75.136
X75.122Y-65.64
X75.798Y-74.921
X79.068Y-69.417
X38.03Y-104.422
X44.19Y-94.926
X44.866Y-104.207
X48.136Y-98.704
X105.508Y-141.822
X111.668Y-132.326
X112.344Y-141.607
X115.614Y-136.103
X77.09Y-108.503
X83.25Y-99.007
X83.926Y-108.288
X87.196Y-102.784
X247.916Y-119.347
X249.301Y-130.581
X253.366Y-119.705
X254.4Y-126.022
X164.149Y-111.994
X165.534Y-123.227
X169.6Y-112.351
X170.633Y-118.669
T9
X55.186Y-64.715
X187.343Y-120.02
X267.852Y-118.423
X66.571Y-89.132
X222.276Y-104.602
X92.6Y-129.015
X94.246Y-68.796
X60.056Y-107.033
X243.435Y-107.037
X87.73Y-86.697
X210.891Y-129.019
X116.148Y-120.016
X261.336Y-100.522
X289.011Y-120.858
X151.742Y-147.234
X48.67Y-82.616
X20.996Y-102.953
X53.54Y-124.934
X191.344Y-75.315
X236.92Y-89.136
X172.699Y-135.486
X130.792Y-135.482
X209.245Y-68.8
X197.86Y-93.217
X193.858Y-137.921
X230.404Y-71.235
X254.821Y-82.621
X35.639Y-118.419
X180.827Y-102.119
X228.792Y-122.503
X105.631Y-93.212
X137.307Y-117.581
X112.147Y-75.311
X34.027Y-67.15
X122.664Y-102.115
X129.179Y-84.213
X99.116Y-111.113
X282.495Y-102.957
X269.464Y-67.155
X204.375Y-111.118
X14.48Y-120.854
X275.98Y-85.056
X74.699Y-122.499
X73.087Y-71.231
X42.155Y-100.518
X109.633Y-137.917
X81.215Y-104.598
X249.951Y-124.938
X166.184Y-117.585
X248.305Y-64.72
X174.312Y-84.218
X27.511Y-85.052
X215.761Y-86.701
T0
M30
