G04 #@! TF.GenerationSoftware,KiCad,Pcbnew,(5.1.2)-1*
G04 #@! TF.CreationDate,2020-06-30T18:44:26+09:00*
G04 #@! TF.ProjectId,avion,6176696f-6e2e-46b6-9963-61645f706362,rev?*
G04 #@! TF.SameCoordinates,Original*
G04 #@! TF.FileFunction,Paste,Bot*
G04 #@! TF.FilePolarity,Positive*
%FSLAX46Y46*%
G04 Gerber Fmt 4.6, Leading zero omitted, Abs format (unit mm)*
G04 Created by KiCad (PCBNEW (5.1.2)-1) date 2020-06-30 18:44:26*
%MOMM*%
%LPD*%
G04 APERTURE LIST*
%ADD10C,2.500000*%
%ADD11C,0.100000*%
%ADD12C,2.600000*%
G04 APERTURE END LIST*
D10*
X26378576Y-69772686D03*
D11*
G36*
X24752943Y-70511226D02*
G01*
X25607993Y-68161995D01*
X28004209Y-69034146D01*
X27149159Y-71383377D01*
X24752943Y-70511226D01*
X24752943Y-70511226D01*
G37*
D10*
X40262050Y-72122846D03*
D11*
G36*
X38636417Y-72861386D02*
G01*
X39491467Y-70512155D01*
X41887683Y-71384306D01*
X41032633Y-73733537D01*
X38636417Y-72861386D01*
X38636417Y-72861386D01*
G37*
D12*
X43085237Y-66456723D03*
D11*
G36*
X44751464Y-65679749D02*
G01*
X43862211Y-68122950D01*
X41419010Y-67233697D01*
X42308263Y-64790496D01*
X44751464Y-65679749D01*
X44751464Y-65679749D01*
G37*
D12*
X32984232Y-60439067D03*
D11*
G36*
X34650459Y-59662093D02*
G01*
X33761206Y-62105294D01*
X31318005Y-61216041D01*
X32207258Y-58772840D01*
X34650459Y-59662093D01*
X34650459Y-59662093D01*
G37*
D12*
X167586722Y-131015059D03*
D11*
G36*
X168363696Y-129348832D02*
G01*
X169252949Y-131792033D01*
X166809748Y-132681286D01*
X165920495Y-130238085D01*
X168363696Y-129348832D01*
X168363696Y-129348832D01*
G37*
D12*
X179192616Y-129132050D03*
D11*
G36*
X179969590Y-127465823D02*
G01*
X180858843Y-129909024D01*
X178415642Y-130798277D01*
X177526389Y-128355076D01*
X179969590Y-127465823D01*
X179969590Y-127465823D01*
G37*
D10*
X180672042Y-135287261D03*
D11*
G36*
X179901459Y-136897952D02*
G01*
X179046409Y-134548721D01*
X181442625Y-133676570D01*
X182297675Y-136025801D01*
X179901459Y-136897952D01*
X179901459Y-136897952D01*
G37*
D10*
X168526031Y-142411059D03*
D11*
G36*
X167755448Y-144021750D02*
G01*
X166900398Y-141672519D01*
X169296614Y-140800368D01*
X170151664Y-143149599D01*
X167755448Y-144021750D01*
X167755448Y-144021750D01*
G37*
D12*
X54143112Y-58003990D03*
D11*
G36*
X55809339Y-57227016D02*
G01*
X54920086Y-59670217D01*
X52476885Y-58780964D01*
X53366138Y-56337763D01*
X55809339Y-57227016D01*
X55809339Y-57227016D01*
G37*
D12*
X64244117Y-64021646D03*
D11*
G36*
X65910344Y-63244672D02*
G01*
X65021091Y-65687873D01*
X62577890Y-64798620D01*
X63467143Y-62355419D01*
X65910344Y-63244672D01*
X65910344Y-63244672D01*
G37*
D10*
X61420930Y-69687769D03*
D11*
G36*
X59795297Y-70426309D02*
G01*
X60650347Y-68077078D01*
X63046563Y-68949229D01*
X62191513Y-71298460D01*
X59795297Y-70426309D01*
X59795297Y-70426309D01*
G37*
D10*
X47537456Y-67337609D03*
D11*
G36*
X45911823Y-68076149D02*
G01*
X46766873Y-65726918D01*
X49163089Y-66599069D01*
X48308039Y-68948300D01*
X45911823Y-68076149D01*
X45911823Y-68076149D01*
G37*
D10*
X65438605Y-73853082D03*
D11*
G36*
X63812972Y-74591622D02*
G01*
X64668022Y-72242391D01*
X67064238Y-73114542D01*
X66209188Y-75463773D01*
X63812972Y-74591622D01*
X63812972Y-74591622D01*
G37*
D10*
X79322079Y-76203242D03*
D11*
G36*
X77696446Y-76941782D02*
G01*
X78551496Y-74592551D01*
X80947712Y-75464702D01*
X80092662Y-77813933D01*
X77696446Y-76941782D01*
X77696446Y-76941782D01*
G37*
D12*
X82145266Y-70537119D03*
D11*
G36*
X83811493Y-69760145D02*
G01*
X82922240Y-72203346D01*
X80479039Y-71314093D01*
X81368292Y-68870892D01*
X83811493Y-69760145D01*
X83811493Y-69760145D01*
G37*
D12*
X72044261Y-64519463D03*
D11*
G36*
X73710488Y-63742489D02*
G01*
X72821235Y-66185690D01*
X70378034Y-65296437D01*
X71267287Y-62853236D01*
X73710488Y-63742489D01*
X73710488Y-63742489D01*
G37*
D12*
X93203151Y-62084374D03*
D11*
G36*
X94869378Y-61307400D02*
G01*
X93980125Y-63750601D01*
X91536924Y-62861348D01*
X92426177Y-60418147D01*
X94869378Y-61307400D01*
X94869378Y-61307400D01*
G37*
D12*
X103304156Y-68102030D03*
D11*
G36*
X104970383Y-67325056D02*
G01*
X104081130Y-69768257D01*
X101637929Y-68879004D01*
X102527182Y-66435803D01*
X104970383Y-67325056D01*
X104970383Y-67325056D01*
G37*
D10*
X100480969Y-73768153D03*
D11*
G36*
X98855336Y-74506693D02*
G01*
X99710386Y-72157462D01*
X102106602Y-73029613D01*
X101251552Y-75378844D01*
X98855336Y-74506693D01*
X98855336Y-74506693D01*
G37*
D10*
X86597495Y-71417993D03*
D11*
G36*
X84971862Y-72156533D02*
G01*
X85826912Y-69807302D01*
X88223128Y-70679453D01*
X87368078Y-73028684D01*
X84971862Y-72156533D01*
X84971862Y-72156533D01*
G37*
D10*
X104498637Y-77933476D03*
D11*
G36*
X102873004Y-78672016D02*
G01*
X103728054Y-76322785D01*
X106124270Y-77194936D01*
X105269220Y-79544167D01*
X102873004Y-78672016D01*
X102873004Y-78672016D01*
G37*
D10*
X118382111Y-80283636D03*
D11*
G36*
X116756478Y-81022176D02*
G01*
X117611528Y-78672945D01*
X120007744Y-79545096D01*
X119152694Y-81894327D01*
X116756478Y-81022176D01*
X116756478Y-81022176D01*
G37*
D12*
X121205298Y-74617513D03*
D11*
G36*
X122871525Y-73840539D02*
G01*
X121982272Y-76283740D01*
X119539071Y-75394487D01*
X120428324Y-72951286D01*
X122871525Y-73840539D01*
X122871525Y-73840539D01*
G37*
D12*
X111104293Y-68599857D03*
D11*
G36*
X112770520Y-67822883D02*
G01*
X111881267Y-70266084D01*
X109438066Y-69376831D01*
X110327319Y-66933630D01*
X112770520Y-67822883D01*
X112770520Y-67822883D01*
G37*
D12*
X128136705Y-77502167D03*
D11*
G36*
X129802932Y-76725193D02*
G01*
X128913679Y-79168394D01*
X126470478Y-78279141D01*
X127359731Y-75835940D01*
X129802932Y-76725193D01*
X129802932Y-76725193D01*
G37*
D12*
X138237710Y-83519823D03*
D11*
G36*
X139903937Y-82742849D02*
G01*
X139014684Y-85186050D01*
X136571483Y-84296797D01*
X137460736Y-81853596D01*
X139903937Y-82742849D01*
X139903937Y-82742849D01*
G37*
D10*
X135414523Y-89185946D03*
D11*
G36*
X133788890Y-89924486D02*
G01*
X134643940Y-87575255D01*
X137040156Y-88447406D01*
X136185106Y-90796637D01*
X133788890Y-89924486D01*
X133788890Y-89924486D01*
G37*
D10*
X121531049Y-86835786D03*
D11*
G36*
X119905416Y-87574326D02*
G01*
X120760466Y-85225095D01*
X123156682Y-86097246D01*
X122301632Y-88446477D01*
X119905416Y-87574326D01*
X119905416Y-87574326D01*
G37*
D12*
X169199154Y-79746717D03*
D11*
G36*
X169976128Y-78080490D02*
G01*
X170865381Y-80523691D01*
X168422180Y-81412944D01*
X167532927Y-78969743D01*
X169976128Y-78080490D01*
X169976128Y-78080490D01*
G37*
D12*
X180805048Y-77863708D03*
D11*
G36*
X181582022Y-76197481D02*
G01*
X182471275Y-78640682D01*
X180028074Y-79529935D01*
X179138821Y-77086734D01*
X181582022Y-76197481D01*
X181582022Y-76197481D01*
G37*
D10*
X182284474Y-84018919D03*
D11*
G36*
X181513891Y-85629610D02*
G01*
X180658841Y-83280379D01*
X183055057Y-82408228D01*
X183910107Y-84757459D01*
X181513891Y-85629610D01*
X181513891Y-85629610D01*
G37*
D10*
X170138463Y-91142717D03*
D11*
G36*
X169367880Y-92753408D02*
G01*
X168512830Y-90404177D01*
X170909046Y-89532026D01*
X171764096Y-91881257D01*
X169367880Y-92753408D01*
X169367880Y-92753408D01*
G37*
D12*
X186231570Y-70844409D03*
D11*
G36*
X187008544Y-69178182D02*
G01*
X187897797Y-71621383D01*
X185454596Y-72510636D01*
X184565343Y-70067435D01*
X187008544Y-69178182D01*
X187008544Y-69178182D01*
G37*
D12*
X197837464Y-68961400D03*
D11*
G36*
X198614438Y-67295173D02*
G01*
X199503691Y-69738374D01*
X197060490Y-70627627D01*
X196171237Y-68184426D01*
X198614438Y-67295173D01*
X198614438Y-67295173D01*
G37*
D10*
X199316890Y-75116611D03*
D11*
G36*
X198546307Y-76727302D02*
G01*
X197691257Y-74378071D01*
X200087473Y-73505920D01*
X200942523Y-75855151D01*
X198546307Y-76727302D01*
X198546307Y-76727302D01*
G37*
D10*
X187170879Y-82240409D03*
D11*
G36*
X186400296Y-83851100D02*
G01*
X185545246Y-81501869D01*
X187941462Y-80629718D01*
X188796512Y-82978949D01*
X186400296Y-83851100D01*
X186400296Y-83851100D01*
G37*
D10*
X205072023Y-75724931D03*
D11*
G36*
X204301440Y-77335622D02*
G01*
X203446390Y-74986391D01*
X205842606Y-74114240D01*
X206697656Y-76463471D01*
X204301440Y-77335622D01*
X204301440Y-77335622D01*
G37*
D10*
X217218034Y-68601133D03*
D11*
G36*
X216447451Y-70211824D02*
G01*
X215592401Y-67862593D01*
X217988617Y-66990442D01*
X218843667Y-69339673D01*
X216447451Y-70211824D01*
X216447451Y-70211824D01*
G37*
D12*
X215738608Y-62445922D03*
D11*
G36*
X216515582Y-60779695D02*
G01*
X217404835Y-63222896D01*
X214961634Y-64112149D01*
X214072381Y-61668948D01*
X216515582Y-60779695D01*
X216515582Y-60779695D01*
G37*
D12*
X204132714Y-64328931D03*
D11*
G36*
X204909688Y-62662704D02*
G01*
X205798941Y-65105905D01*
X203355740Y-65995158D01*
X202466487Y-63551957D01*
X204909688Y-62662704D01*
X204909688Y-62662704D01*
G37*
D10*
X226230904Y-78160020D03*
D11*
G36*
X225460321Y-79770711D02*
G01*
X224605271Y-77421480D01*
X227001487Y-76549329D01*
X227856537Y-78898560D01*
X225460321Y-79770711D01*
X225460321Y-79770711D01*
G37*
D10*
X238376915Y-71036222D03*
D11*
G36*
X237606332Y-72646913D02*
G01*
X236751282Y-70297682D01*
X239147498Y-69425531D01*
X240002548Y-71774762D01*
X237606332Y-72646913D01*
X237606332Y-72646913D01*
G37*
D12*
X236897489Y-64881011D03*
D11*
G36*
X237674463Y-63214784D02*
G01*
X238563716Y-65657985D01*
X236120515Y-66547238D01*
X235231262Y-64104037D01*
X237674463Y-63214784D01*
X237674463Y-63214784D01*
G37*
D12*
X225291595Y-66764020D03*
D11*
G36*
X226068569Y-65097793D02*
G01*
X226957822Y-67540994D01*
X224514621Y-68430247D01*
X223625368Y-65987046D01*
X226068569Y-65097793D01*
X226068569Y-65097793D01*
G37*
D12*
X243192745Y-60248536D03*
D11*
G36*
X243969719Y-58582309D02*
G01*
X244858972Y-61025510D01*
X242415771Y-61914763D01*
X241526518Y-59471562D01*
X243969719Y-58582309D01*
X243969719Y-58582309D01*
G37*
D12*
X254798639Y-58365527D03*
D11*
G36*
X255575613Y-56699300D02*
G01*
X256464866Y-59142501D01*
X254021665Y-60031754D01*
X253132412Y-57588553D01*
X255575613Y-56699300D01*
X255575613Y-56699300D01*
G37*
D10*
X256278065Y-64520738D03*
D11*
G36*
X255507482Y-66131429D02*
G01*
X254652432Y-63782198D01*
X257048648Y-62910047D01*
X257903698Y-65259278D01*
X255507482Y-66131429D01*
X255507482Y-66131429D01*
G37*
D10*
X244132054Y-71644536D03*
D11*
G36*
X243361471Y-73255227D02*
G01*
X242506421Y-70905996D01*
X244902637Y-70033845D01*
X245757687Y-72383076D01*
X243361471Y-73255227D01*
X243361471Y-73255227D01*
G37*
D12*
X264351630Y-62683620D03*
D11*
G36*
X265128604Y-61017393D02*
G01*
X266017857Y-63460594D01*
X263574656Y-64349847D01*
X262685403Y-61906646D01*
X265128604Y-61017393D01*
X265128604Y-61017393D01*
G37*
D12*
X275957524Y-60800611D03*
D11*
G36*
X276734498Y-59134384D02*
G01*
X277623751Y-61577585D01*
X275180550Y-62466838D01*
X274291297Y-60023637D01*
X276734498Y-59134384D01*
X276734498Y-59134384D01*
G37*
D10*
X277436950Y-66955822D03*
D11*
G36*
X276666367Y-68566513D02*
G01*
X275811317Y-66217282D01*
X278207533Y-65345131D01*
X279062583Y-67694362D01*
X276666367Y-68566513D01*
X276666367Y-68566513D01*
G37*
D10*
X265290939Y-74079620D03*
D11*
G36*
X264520356Y-75690311D02*
G01*
X263665306Y-73341080D01*
X266061522Y-72468929D01*
X266916572Y-74818160D01*
X264520356Y-75690311D01*
X264520356Y-75690311D01*
G37*
D10*
X19863097Y-87673839D03*
D11*
G36*
X18237464Y-88412379D02*
G01*
X19092514Y-86063148D01*
X21488730Y-86935299D01*
X20633680Y-89284530D01*
X18237464Y-88412379D01*
X18237464Y-88412379D01*
G37*
D10*
X33746571Y-90023999D03*
D11*
G36*
X32120938Y-90762539D02*
G01*
X32975988Y-88413308D01*
X35372204Y-89285459D01*
X34517154Y-91634690D01*
X32120938Y-90762539D01*
X32120938Y-90762539D01*
G37*
D12*
X36569758Y-84357876D03*
D11*
G36*
X38235985Y-83580902D02*
G01*
X37346732Y-86024103D01*
X34903531Y-85134850D01*
X35792784Y-82691649D01*
X38235985Y-83580902D01*
X38235985Y-83580902D01*
G37*
D12*
X26468753Y-78340220D03*
D11*
G36*
X28134980Y-77563246D02*
G01*
X27245727Y-80006447D01*
X24802526Y-79117194D01*
X25691779Y-76673993D01*
X28134980Y-77563246D01*
X28134980Y-77563246D01*
G37*
D12*
X47627633Y-75905132D03*
D11*
G36*
X49293860Y-75128158D02*
G01*
X48404607Y-77571359D01*
X45961406Y-76682106D01*
X46850659Y-74238905D01*
X49293860Y-75128158D01*
X49293860Y-75128158D01*
G37*
D12*
X57728638Y-81922788D03*
D11*
G36*
X59394865Y-81145814D02*
G01*
X58505612Y-83589015D01*
X56062411Y-82699762D01*
X56951664Y-80256561D01*
X59394865Y-81145814D01*
X59394865Y-81145814D01*
G37*
D10*
X54905451Y-87588911D03*
D11*
G36*
X53279818Y-88327451D02*
G01*
X54134868Y-85978220D01*
X56531084Y-86850371D01*
X55676034Y-89199602D01*
X53279818Y-88327451D01*
X53279818Y-88327451D01*
G37*
D10*
X41021977Y-85238751D03*
D11*
G36*
X39396344Y-85977291D02*
G01*
X40251394Y-83628060D01*
X42647610Y-84500211D01*
X41792560Y-86849442D01*
X39396344Y-85977291D01*
X39396344Y-85977291D01*
G37*
D10*
X58923122Y-91754227D03*
D11*
G36*
X57297489Y-92492767D02*
G01*
X58152539Y-90143536D01*
X60548755Y-91015687D01*
X59693705Y-93364918D01*
X57297489Y-92492767D01*
X57297489Y-92492767D01*
G37*
D10*
X72806596Y-94104387D03*
D11*
G36*
X71180963Y-94842927D02*
G01*
X72036013Y-92493696D01*
X74432229Y-93365847D01*
X73577179Y-95715078D01*
X71180963Y-94842927D01*
X71180963Y-94842927D01*
G37*
D12*
X75629783Y-88438264D03*
D11*
G36*
X77296010Y-87661290D02*
G01*
X76406757Y-90104491D01*
X73963556Y-89215238D01*
X74852809Y-86772037D01*
X77296010Y-87661290D01*
X77296010Y-87661290D01*
G37*
D12*
X65528778Y-82420608D03*
D11*
G36*
X67195005Y-81643634D02*
G01*
X66305752Y-84086835D01*
X63862551Y-83197582D01*
X64751804Y-80754381D01*
X67195005Y-81643634D01*
X67195005Y-81643634D01*
G37*
D12*
X86687665Y-79985523D03*
D11*
G36*
X88353892Y-79208549D02*
G01*
X87464639Y-81651750D01*
X85021438Y-80762497D01*
X85910691Y-78319296D01*
X88353892Y-79208549D01*
X88353892Y-79208549D01*
G37*
D12*
X96788670Y-86003179D03*
D11*
G36*
X98454897Y-85226205D02*
G01*
X97565644Y-87669406D01*
X95122443Y-86780153D01*
X96011696Y-84336952D01*
X98454897Y-85226205D01*
X98454897Y-85226205D01*
G37*
D10*
X93965483Y-91669302D03*
D11*
G36*
X92339850Y-92407842D02*
G01*
X93194900Y-90058611D01*
X95591116Y-90930762D01*
X94736066Y-93279993D01*
X92339850Y-92407842D01*
X92339850Y-92407842D01*
G37*
D10*
X80082009Y-89319142D03*
D11*
G36*
X78456376Y-90057682D02*
G01*
X79311426Y-87708451D01*
X81707642Y-88580602D01*
X80852592Y-90929833D01*
X78456376Y-90057682D01*
X78456376Y-90057682D01*
G37*
D12*
X104588813Y-86501007D03*
D11*
G36*
X106255040Y-85724033D02*
G01*
X105365787Y-88167234D01*
X102922586Y-87277981D01*
X103811839Y-84834780D01*
X106255040Y-85724033D01*
X106255040Y-85724033D01*
G37*
D12*
X114689818Y-92518663D03*
D11*
G36*
X116356045Y-91741689D02*
G01*
X115466792Y-94184890D01*
X113023591Y-93295637D01*
X113912844Y-90852436D01*
X116356045Y-91741689D01*
X116356045Y-91741689D01*
G37*
D10*
X111866631Y-98184786D03*
D11*
G36*
X110240998Y-98923326D02*
G01*
X111096048Y-96574095D01*
X113492264Y-97446246D01*
X112637214Y-99795477D01*
X110240998Y-98923326D01*
X110240998Y-98923326D01*
G37*
D10*
X97983157Y-95834626D03*
D11*
G36*
X96357524Y-96573166D02*
G01*
X97212574Y-94223935D01*
X99608790Y-95096086D01*
X98753740Y-97445317D01*
X96357524Y-96573166D01*
X96357524Y-96573166D01*
G37*
D10*
X115015569Y-104736930D03*
D11*
G36*
X113389936Y-105475470D02*
G01*
X114244986Y-103126239D01*
X116641202Y-103998390D01*
X115786152Y-106347621D01*
X113389936Y-105475470D01*
X113389936Y-105475470D01*
G37*
D10*
X128899043Y-107087090D03*
D11*
G36*
X127273410Y-107825630D02*
G01*
X128128460Y-105476399D01*
X130524676Y-106348550D01*
X129669626Y-108697781D01*
X127273410Y-107825630D01*
X127273410Y-107825630D01*
G37*
D12*
X131722230Y-101420967D03*
D11*
G36*
X133388457Y-100643993D02*
G01*
X132499204Y-103087194D01*
X130056003Y-102197941D01*
X130945256Y-99754740D01*
X133388457Y-100643993D01*
X133388457Y-100643993D01*
G37*
D12*
X121621225Y-95403311D03*
D11*
G36*
X123287452Y-94626337D02*
G01*
X122398199Y-97069538D01*
X119954998Y-96180285D01*
X120844251Y-93737084D01*
X123287452Y-94626337D01*
X123287452Y-94626337D01*
G37*
D10*
X176653947Y-109043857D03*
D11*
G36*
X175883364Y-110654548D02*
G01*
X175028314Y-108305317D01*
X177424530Y-107433166D01*
X178279580Y-109782397D01*
X175883364Y-110654548D01*
X175883364Y-110654548D01*
G37*
D10*
X188799958Y-101920059D03*
D11*
G36*
X188029375Y-103530750D02*
G01*
X187174325Y-101181519D01*
X189570541Y-100309368D01*
X190425591Y-102658599D01*
X188029375Y-103530750D01*
X188029375Y-103530750D01*
G37*
D12*
X187320532Y-95764848D03*
D11*
G36*
X188097506Y-94098621D02*
G01*
X188986759Y-96541822D01*
X186543558Y-97431075D01*
X185654305Y-94987874D01*
X188097506Y-94098621D01*
X188097506Y-94098621D01*
G37*
D12*
X175714638Y-97647857D03*
D11*
G36*
X176491612Y-95981630D02*
G01*
X177380865Y-98424831D01*
X174937664Y-99314084D01*
X174048411Y-96870883D01*
X176491612Y-95981630D01*
X176491612Y-95981630D01*
G37*
D12*
X192747054Y-88745555D03*
D11*
G36*
X193524028Y-87079328D02*
G01*
X194413281Y-89522529D01*
X191970080Y-90411782D01*
X191080827Y-87968581D01*
X193524028Y-87079328D01*
X193524028Y-87079328D01*
G37*
D12*
X204352948Y-86862546D03*
D11*
G36*
X205129922Y-85196319D02*
G01*
X206019175Y-87639520D01*
X203575974Y-88528773D01*
X202686721Y-86085572D01*
X205129922Y-85196319D01*
X205129922Y-85196319D01*
G37*
D10*
X205832374Y-93017757D03*
D11*
G36*
X205061791Y-94628448D02*
G01*
X204206741Y-92279217D01*
X206602957Y-91407066D01*
X207458007Y-93756297D01*
X205061791Y-94628448D01*
X205061791Y-94628448D01*
G37*
D10*
X193686363Y-100141555D03*
D11*
G36*
X192915780Y-101752246D02*
G01*
X192060730Y-99403015D01*
X194456946Y-98530864D01*
X195311996Y-100880095D01*
X192915780Y-101752246D01*
X192915780Y-101752246D01*
G37*
D10*
X211587509Y-93626075D03*
D11*
G36*
X210816926Y-95236766D02*
G01*
X209961876Y-92887535D01*
X212358092Y-92015384D01*
X213213142Y-94364615D01*
X210816926Y-95236766D01*
X210816926Y-95236766D01*
G37*
D10*
X223733520Y-86502277D03*
D11*
G36*
X222962937Y-88112968D02*
G01*
X222107887Y-85763737D01*
X224504103Y-84891586D01*
X225359153Y-87240817D01*
X222962937Y-88112968D01*
X222962937Y-88112968D01*
G37*
D12*
X222254094Y-80347066D03*
D11*
G36*
X223031068Y-78680839D02*
G01*
X223920321Y-81124040D01*
X221477120Y-82013293D01*
X220587867Y-79570092D01*
X223031068Y-78680839D01*
X223031068Y-78680839D01*
G37*
D12*
X210648200Y-82230075D03*
D11*
G36*
X211425174Y-80563848D02*
G01*
X212314427Y-83007049D01*
X209871226Y-83896302D01*
X208981973Y-81453101D01*
X211425174Y-80563848D01*
X211425174Y-80563848D01*
G37*
D10*
X232746388Y-96061161D03*
D11*
G36*
X231975805Y-97671852D02*
G01*
X231120755Y-95322621D01*
X233516971Y-94450470D01*
X234372021Y-96799701D01*
X231975805Y-97671852D01*
X231975805Y-97671852D01*
G37*
D10*
X244892399Y-88937363D03*
D11*
G36*
X244121816Y-90548054D02*
G01*
X243266766Y-88198823D01*
X245662982Y-87326672D01*
X246518032Y-89675903D01*
X244121816Y-90548054D01*
X244121816Y-90548054D01*
G37*
D12*
X243412973Y-82782152D03*
D11*
G36*
X244189947Y-81115925D02*
G01*
X245079200Y-83559126D01*
X242635999Y-84448379D01*
X241746746Y-82005178D01*
X244189947Y-81115925D01*
X244189947Y-81115925D01*
G37*
D12*
X231807079Y-84665161D03*
D11*
G36*
X232584053Y-82998934D02*
G01*
X233473306Y-85442135D01*
X231030105Y-86331388D01*
X230140852Y-83888187D01*
X232584053Y-82998934D01*
X232584053Y-82998934D01*
G37*
D12*
X249708233Y-78149688D03*
D11*
G36*
X250485207Y-76483461D02*
G01*
X251374460Y-78926662D01*
X248931259Y-79815915D01*
X248042006Y-77372714D01*
X250485207Y-76483461D01*
X250485207Y-76483461D01*
G37*
D12*
X261314127Y-76266679D03*
D11*
G36*
X262091101Y-74600452D02*
G01*
X262980354Y-77043653D01*
X260537153Y-77932906D01*
X259647900Y-75489705D01*
X262091101Y-74600452D01*
X262091101Y-74600452D01*
G37*
D10*
X262793553Y-82421890D03*
D11*
G36*
X262022970Y-84032581D02*
G01*
X261167920Y-81683350D01*
X263564136Y-80811199D01*
X264419186Y-83160430D01*
X262022970Y-84032581D01*
X262022970Y-84032581D01*
G37*
D10*
X250647542Y-89545688D03*
D11*
G36*
X249876959Y-91156379D02*
G01*
X249021909Y-88807148D01*
X251418125Y-87934997D01*
X252273175Y-90284228D01*
X249876959Y-91156379D01*
X249876959Y-91156379D01*
G37*
D12*
X270867115Y-80584770D03*
D11*
G36*
X271644089Y-78918543D02*
G01*
X272533342Y-81361744D01*
X270090141Y-82250997D01*
X269200888Y-79807796D01*
X271644089Y-78918543D01*
X271644089Y-78918543D01*
G37*
D12*
X282473009Y-78701761D03*
D11*
G36*
X283249983Y-77035534D02*
G01*
X284139236Y-79478735D01*
X281696035Y-80367988D01*
X280806782Y-77924787D01*
X283249983Y-77035534D01*
X283249983Y-77035534D01*
G37*
D10*
X283952435Y-84856972D03*
D11*
G36*
X283181852Y-86467663D02*
G01*
X282326802Y-84118432D01*
X284723018Y-83246281D01*
X285578068Y-85595512D01*
X283181852Y-86467663D01*
X283181852Y-86467663D01*
G37*
D10*
X271806424Y-91980770D03*
D11*
G36*
X271035841Y-93591461D02*
G01*
X270180791Y-91242230D01*
X272577007Y-90370079D01*
X273432057Y-92719310D01*
X271035841Y-93591461D01*
X271035841Y-93591461D01*
G37*
D10*
X13347613Y-105574981D03*
D11*
G36*
X11721980Y-106313521D02*
G01*
X12577030Y-103964290D01*
X14973246Y-104836441D01*
X14118196Y-107185672D01*
X11721980Y-106313521D01*
X11721980Y-106313521D01*
G37*
D10*
X27231087Y-107925141D03*
D11*
G36*
X25605454Y-108663681D02*
G01*
X26460504Y-106314450D01*
X28856720Y-107186601D01*
X28001670Y-109535832D01*
X25605454Y-108663681D01*
X25605454Y-108663681D01*
G37*
D12*
X30054274Y-102259018D03*
D11*
G36*
X31720501Y-101482044D02*
G01*
X30831248Y-103925245D01*
X28388047Y-103035992D01*
X29277300Y-100592791D01*
X31720501Y-101482044D01*
X31720501Y-101482044D01*
G37*
D12*
X19953269Y-96241362D03*
D11*
G36*
X21619496Y-95464388D02*
G01*
X20730243Y-97907589D01*
X18287042Y-97018336D01*
X19176295Y-94575135D01*
X21619496Y-95464388D01*
X21619496Y-95464388D01*
G37*
D12*
X41112151Y-93806271D03*
D11*
G36*
X42778378Y-93029297D02*
G01*
X41889125Y-95472498D01*
X39445924Y-94583245D01*
X40335177Y-92140044D01*
X42778378Y-93029297D01*
X42778378Y-93029297D01*
G37*
D12*
X51213156Y-99823927D03*
D11*
G36*
X52879383Y-99046953D02*
G01*
X51990130Y-101490154D01*
X49546929Y-100600901D01*
X50436182Y-98157700D01*
X52879383Y-99046953D01*
X52879383Y-99046953D01*
G37*
D10*
X48389969Y-105490050D03*
D11*
G36*
X46764336Y-106228590D02*
G01*
X47619386Y-103879359D01*
X50015602Y-104751510D01*
X49160552Y-107100741D01*
X46764336Y-106228590D01*
X46764336Y-106228590D01*
G37*
D10*
X34506495Y-103139890D03*
D11*
G36*
X32880862Y-103878430D02*
G01*
X33735912Y-101529199D01*
X36132128Y-102401350D01*
X35277078Y-104750581D01*
X32880862Y-103878430D01*
X32880862Y-103878430D01*
G37*
D12*
X59013298Y-100321751D03*
D11*
G36*
X60679525Y-99544777D02*
G01*
X59790272Y-101987978D01*
X57347071Y-101098725D01*
X58236324Y-98655524D01*
X60679525Y-99544777D01*
X60679525Y-99544777D01*
G37*
D12*
X69114303Y-106339407D03*
D11*
G36*
X70780530Y-105562433D02*
G01*
X69891277Y-108005634D01*
X67448076Y-107116381D01*
X68337329Y-104673180D01*
X70780530Y-105562433D01*
X70780530Y-105562433D01*
G37*
D10*
X66291116Y-112005530D03*
D11*
G36*
X64665483Y-112744070D02*
G01*
X65520533Y-110394839D01*
X67916749Y-111266990D01*
X67061699Y-113616221D01*
X64665483Y-112744070D01*
X64665483Y-112744070D01*
G37*
D10*
X52407642Y-109655370D03*
D11*
G36*
X50782009Y-110393910D02*
G01*
X51637059Y-108044679D01*
X54033275Y-108916830D01*
X53178225Y-111266061D01*
X50782009Y-110393910D01*
X50782009Y-110393910D01*
G37*
D10*
X73566535Y-107220287D03*
D11*
G36*
X71940902Y-107958827D02*
G01*
X72795952Y-105609596D01*
X75192168Y-106481747D01*
X74337118Y-108830978D01*
X71940902Y-107958827D01*
X71940902Y-107958827D01*
G37*
D10*
X87450009Y-109570447D03*
D11*
G36*
X85824376Y-110308987D02*
G01*
X86679426Y-107959756D01*
X89075642Y-108831907D01*
X88220592Y-111181138D01*
X85824376Y-110308987D01*
X85824376Y-110308987D01*
G37*
D12*
X90273196Y-103904324D03*
D11*
G36*
X91939423Y-103127350D02*
G01*
X91050170Y-105570551D01*
X88606969Y-104681298D01*
X89496222Y-102238097D01*
X91939423Y-103127350D01*
X91939423Y-103127350D01*
G37*
D12*
X80172191Y-97886668D03*
D11*
G36*
X81838418Y-97109694D02*
G01*
X80949165Y-99552895D01*
X78505964Y-98663642D01*
X79395217Y-96220441D01*
X81838418Y-97109694D01*
X81838418Y-97109694D01*
G37*
D12*
X98073328Y-104402154D03*
D11*
G36*
X99739555Y-103625180D02*
G01*
X98850302Y-106068381D01*
X96407101Y-105179128D01*
X97296354Y-102735927D01*
X99739555Y-103625180D01*
X99739555Y-103625180D01*
G37*
D12*
X108174333Y-110419810D03*
D11*
G36*
X109840560Y-109642836D02*
G01*
X108951307Y-112086037D01*
X106508106Y-111196784D01*
X107397359Y-108753583D01*
X109840560Y-109642836D01*
X109840560Y-109642836D01*
G37*
D10*
X105351146Y-116085933D03*
D11*
G36*
X103725513Y-116824473D02*
G01*
X104580563Y-114475242D01*
X106976779Y-115347393D01*
X106121729Y-117696624D01*
X103725513Y-116824473D01*
X103725513Y-116824473D01*
G37*
D10*
X91467672Y-113735773D03*
D11*
G36*
X89842039Y-114474313D02*
G01*
X90697089Y-112125082D01*
X93093305Y-112997233D01*
X92238255Y-115346464D01*
X89842039Y-114474313D01*
X89842039Y-114474313D01*
G37*
D10*
X108500079Y-122638071D03*
D11*
G36*
X106874446Y-123376611D02*
G01*
X107729496Y-121027380D01*
X110125712Y-121899531D01*
X109270662Y-124248762D01*
X106874446Y-123376611D01*
X106874446Y-123376611D01*
G37*
D10*
X122383553Y-124988231D03*
D11*
G36*
X120757920Y-125726771D02*
G01*
X121612970Y-123377540D01*
X124009186Y-124249691D01*
X123154136Y-126598922D01*
X120757920Y-125726771D01*
X120757920Y-125726771D01*
G37*
D12*
X125206740Y-119322108D03*
D11*
G36*
X126872967Y-118545134D02*
G01*
X125983714Y-120988335D01*
X123540513Y-120099082D01*
X124429766Y-117655881D01*
X126872967Y-118545134D01*
X126872967Y-118545134D01*
G37*
D12*
X115105735Y-113304452D03*
D11*
G36*
X116771962Y-112527478D02*
G01*
X115882709Y-114970679D01*
X113439508Y-114081426D01*
X114328761Y-111638225D01*
X116771962Y-112527478D01*
X116771962Y-112527478D01*
G37*
D10*
X183169434Y-126945001D03*
D11*
G36*
X182398851Y-128555692D02*
G01*
X181543801Y-126206461D01*
X183940017Y-125334310D01*
X184795067Y-127683541D01*
X182398851Y-128555692D01*
X182398851Y-128555692D01*
G37*
D10*
X195315445Y-119821203D03*
D11*
G36*
X194544862Y-121431894D02*
G01*
X193689812Y-119082663D01*
X196086028Y-118210512D01*
X196941078Y-120559743D01*
X194544862Y-121431894D01*
X194544862Y-121431894D01*
G37*
D12*
X193836019Y-113665992D03*
D11*
G36*
X194612993Y-111999765D02*
G01*
X195502246Y-114442966D01*
X193059045Y-115332219D01*
X192169792Y-112889018D01*
X194612993Y-111999765D01*
X194612993Y-111999765D01*
G37*
D12*
X182230125Y-115549001D03*
D11*
G36*
X183007099Y-113882774D02*
G01*
X183896352Y-116325975D01*
X181453151Y-117215228D01*
X180563898Y-114772027D01*
X183007099Y-113882774D01*
X183007099Y-113882774D01*
G37*
D10*
X200201852Y-118042701D03*
D11*
G36*
X199431269Y-119653392D02*
G01*
X198576219Y-117304161D01*
X200972435Y-116432010D01*
X201827485Y-118781241D01*
X199431269Y-119653392D01*
X199431269Y-119653392D01*
G37*
D10*
X212347863Y-110918903D03*
D11*
G36*
X211577280Y-112529594D02*
G01*
X210722230Y-110180363D01*
X213118446Y-109308212D01*
X213973496Y-111657443D01*
X211577280Y-112529594D01*
X211577280Y-112529594D01*
G37*
D12*
X210868437Y-104763692D03*
D11*
G36*
X211645411Y-103097465D02*
G01*
X212534664Y-105540666D01*
X210091463Y-106429919D01*
X209202210Y-103986718D01*
X211645411Y-103097465D01*
X211645411Y-103097465D01*
G37*
D12*
X199262543Y-106646701D03*
D11*
G36*
X200039517Y-104980474D02*
G01*
X200928770Y-107423675D01*
X198485569Y-108312928D01*
X197596316Y-105869727D01*
X200039517Y-104980474D01*
X200039517Y-104980474D01*
G37*
D12*
X217163685Y-100131222D03*
D11*
G36*
X217940659Y-98464995D02*
G01*
X218829912Y-100908196D01*
X216386711Y-101797449D01*
X215497458Y-99354248D01*
X217940659Y-98464995D01*
X217940659Y-98464995D01*
G37*
D12*
X228769579Y-98248213D03*
D11*
G36*
X229546553Y-96581986D02*
G01*
X230435806Y-99025187D01*
X227992605Y-99914440D01*
X227103352Y-97471239D01*
X229546553Y-96581986D01*
X229546553Y-96581986D01*
G37*
D10*
X230249005Y-104403424D03*
D11*
G36*
X229478422Y-106014115D02*
G01*
X228623372Y-103664884D01*
X231019588Y-102792733D01*
X231874638Y-105141964D01*
X229478422Y-106014115D01*
X229478422Y-106014115D01*
G37*
D10*
X218102994Y-111527222D03*
D11*
G36*
X217332411Y-113137913D02*
G01*
X216477361Y-110788682D01*
X218873577Y-109916531D01*
X219728627Y-112265762D01*
X217332411Y-113137913D01*
X217332411Y-113137913D01*
G37*
D12*
X238322568Y-102566305D03*
D11*
G36*
X239099542Y-100900078D02*
G01*
X239988795Y-103343279D01*
X237545594Y-104232532D01*
X236656341Y-101789331D01*
X239099542Y-100900078D01*
X239099542Y-100900078D01*
G37*
D12*
X249928462Y-100683296D03*
D11*
G36*
X250705436Y-99017069D02*
G01*
X251594689Y-101460270D01*
X249151488Y-102349523D01*
X248262235Y-99906322D01*
X250705436Y-99017069D01*
X250705436Y-99017069D01*
G37*
D10*
X251407888Y-106838507D03*
D11*
G36*
X250637305Y-108449198D02*
G01*
X249782255Y-106099967D01*
X252178471Y-105227816D01*
X253033521Y-107577047D01*
X250637305Y-108449198D01*
X250637305Y-108449198D01*
G37*
D10*
X239261877Y-113962305D03*
D11*
G36*
X238491294Y-115572996D02*
G01*
X237636244Y-113223765D01*
X240032460Y-112351614D01*
X240887510Y-114700845D01*
X238491294Y-115572996D01*
X238491294Y-115572996D01*
G37*
D10*
X257163026Y-107446820D03*
D11*
G36*
X256392443Y-109057511D02*
G01*
X255537393Y-106708280D01*
X257933609Y-105836129D01*
X258788659Y-108185360D01*
X256392443Y-109057511D01*
X256392443Y-109057511D01*
G37*
D10*
X269309037Y-100323022D03*
D11*
G36*
X268538454Y-101933713D02*
G01*
X267683404Y-99584482D01*
X270079620Y-98712331D01*
X270934670Y-101061562D01*
X268538454Y-101933713D01*
X268538454Y-101933713D01*
G37*
D12*
X267829611Y-94167811D03*
D11*
G36*
X268606585Y-92501584D02*
G01*
X269495838Y-94944785D01*
X267052637Y-95834038D01*
X266163384Y-93390837D01*
X268606585Y-92501584D01*
X268606585Y-92501584D01*
G37*
D12*
X256223717Y-96050820D03*
D11*
G36*
X257000691Y-94384593D02*
G01*
X257889944Y-96827794D01*
X255446743Y-97717047D01*
X254557490Y-95273846D01*
X257000691Y-94384593D01*
X257000691Y-94384593D01*
G37*
D10*
X278321911Y-109881910D03*
D11*
G36*
X277551328Y-111492601D02*
G01*
X276696278Y-109143370D01*
X279092494Y-108271219D01*
X279947544Y-110620450D01*
X277551328Y-111492601D01*
X277551328Y-111492601D01*
G37*
D10*
X290467922Y-102758112D03*
D11*
G36*
X289697339Y-104368803D02*
G01*
X288842289Y-102019572D01*
X291238505Y-101147421D01*
X292093555Y-103496652D01*
X289697339Y-104368803D01*
X289697339Y-104368803D01*
G37*
D12*
X288988496Y-96602901D03*
D11*
G36*
X289765470Y-94936674D02*
G01*
X290654723Y-97379875D01*
X288211522Y-98269128D01*
X287322269Y-95825927D01*
X289765470Y-94936674D01*
X289765470Y-94936674D01*
G37*
D12*
X277382602Y-98485910D03*
D11*
G36*
X278159576Y-96819683D02*
G01*
X279048829Y-99262884D01*
X276605628Y-100152137D01*
X275716375Y-97708936D01*
X278159576Y-96819683D01*
X278159576Y-96819683D01*
G37*
D10*
X6832125Y-123476122D03*
D11*
G36*
X5206492Y-124214662D02*
G01*
X6061542Y-121865431D01*
X8457758Y-122737582D01*
X7602708Y-125086813D01*
X5206492Y-124214662D01*
X5206492Y-124214662D01*
G37*
D10*
X20715599Y-125826282D03*
D11*
G36*
X19089966Y-126564822D02*
G01*
X19945016Y-124215591D01*
X22341232Y-125087742D01*
X21486182Y-127436973D01*
X19089966Y-126564822D01*
X19089966Y-126564822D01*
G37*
D12*
X23538786Y-120160159D03*
D11*
G36*
X25205013Y-119383185D02*
G01*
X24315760Y-121826386D01*
X21872559Y-120937133D01*
X22761812Y-118493932D01*
X25205013Y-119383185D01*
X25205013Y-119383185D01*
G37*
D12*
X13437781Y-114142503D03*
D11*
G36*
X15104008Y-113365529D02*
G01*
X14214755Y-115808730D01*
X11771554Y-114919477D01*
X12660807Y-112476276D01*
X15104008Y-113365529D01*
X15104008Y-113365529D01*
G37*
D10*
X27991011Y-121041036D03*
D11*
G36*
X26365378Y-121779576D02*
G01*
X27220428Y-119430345D01*
X29616644Y-120302496D01*
X28761594Y-122651727D01*
X26365378Y-121779576D01*
X26365378Y-121779576D01*
G37*
D10*
X41874485Y-123391196D03*
D11*
G36*
X40248852Y-124129736D02*
G01*
X41103902Y-121780505D01*
X43500118Y-122652656D01*
X42645068Y-125001887D01*
X40248852Y-124129736D01*
X40248852Y-124129736D01*
G37*
D12*
X44697672Y-117725073D03*
D11*
G36*
X46363899Y-116948099D02*
G01*
X45474646Y-119391300D01*
X43031445Y-118502047D01*
X43920698Y-116058846D01*
X46363899Y-116948099D01*
X46363899Y-116948099D01*
G37*
D12*
X34596667Y-111707417D03*
D11*
G36*
X36262894Y-110930443D02*
G01*
X35373641Y-113373644D01*
X32930440Y-112484391D01*
X33819693Y-110041190D01*
X36262894Y-110930443D01*
X36262894Y-110930443D01*
G37*
D12*
X52497815Y-118222905D03*
D11*
G36*
X54164042Y-117445931D02*
G01*
X53274789Y-119889132D01*
X50831588Y-118999879D01*
X51720841Y-116556678D01*
X54164042Y-117445931D01*
X54164042Y-117445931D01*
G37*
D12*
X62598820Y-124240561D03*
D11*
G36*
X64265047Y-123463587D02*
G01*
X63375794Y-125906788D01*
X60932593Y-125017535D01*
X61821846Y-122574334D01*
X64265047Y-123463587D01*
X64265047Y-123463587D01*
G37*
D10*
X59775633Y-129906684D03*
D11*
G36*
X58150000Y-130645224D02*
G01*
X59005050Y-128295993D01*
X61401266Y-129168144D01*
X60546216Y-131517375D01*
X58150000Y-130645224D01*
X58150000Y-130645224D01*
G37*
D10*
X45892159Y-127556524D03*
D11*
G36*
X44266526Y-128295064D02*
G01*
X45121576Y-125945833D01*
X47517792Y-126817984D01*
X46662742Y-129167215D01*
X44266526Y-128295064D01*
X44266526Y-128295064D01*
G37*
D10*
X67051042Y-125121430D03*
D11*
G36*
X65425409Y-125859970D02*
G01*
X66280459Y-123510739D01*
X68676675Y-124382890D01*
X67821625Y-126732121D01*
X65425409Y-125859970D01*
X65425409Y-125859970D01*
G37*
D10*
X80934516Y-127471590D03*
D11*
G36*
X79308883Y-128210130D02*
G01*
X80163933Y-125860899D01*
X82560149Y-126733050D01*
X81705099Y-129082281D01*
X79308883Y-128210130D01*
X79308883Y-128210130D01*
G37*
D12*
X83757703Y-121805467D03*
D11*
G36*
X85423930Y-121028493D02*
G01*
X84534677Y-123471694D01*
X82091476Y-122582441D01*
X82980729Y-120139240D01*
X85423930Y-121028493D01*
X85423930Y-121028493D01*
G37*
D12*
X73656698Y-115787811D03*
D11*
G36*
X75322925Y-115010837D02*
G01*
X74433672Y-117454038D01*
X71990471Y-116564785D01*
X72879724Y-114121584D01*
X75322925Y-115010837D01*
X75322925Y-115010837D01*
G37*
D12*
X91557845Y-122303295D03*
D11*
G36*
X93224072Y-121526321D02*
G01*
X92334819Y-123969522D01*
X89891618Y-123080269D01*
X90780871Y-120637068D01*
X93224072Y-121526321D01*
X93224072Y-121526321D01*
G37*
D12*
X101658850Y-128320951D03*
D11*
G36*
X103325077Y-127543977D02*
G01*
X102435824Y-129987178D01*
X99992623Y-129097925D01*
X100881876Y-126654724D01*
X103325077Y-127543977D01*
X103325077Y-127543977D01*
G37*
D10*
X98835663Y-133987074D03*
D11*
G36*
X97210030Y-134725614D02*
G01*
X98065080Y-132376383D01*
X100461296Y-133248534D01*
X99606246Y-135597765D01*
X97210030Y-134725614D01*
X97210030Y-134725614D01*
G37*
D10*
X84952189Y-131636914D03*
D11*
G36*
X83326556Y-132375454D02*
G01*
X84181606Y-130026223D01*
X86577822Y-130898374D01*
X85722772Y-133247605D01*
X83326556Y-132375454D01*
X83326556Y-132375454D01*
G37*
D10*
X101984605Y-140539217D03*
D11*
G36*
X100358972Y-141277757D02*
G01*
X101214022Y-138928526D01*
X103610238Y-139800677D01*
X102755188Y-142149908D01*
X100358972Y-141277757D01*
X100358972Y-141277757D01*
G37*
D10*
X115868079Y-142889377D03*
D11*
G36*
X114242446Y-143627917D02*
G01*
X115097496Y-141278686D01*
X117493712Y-142150837D01*
X116638662Y-144500068D01*
X114242446Y-143627917D01*
X114242446Y-143627917D01*
G37*
D12*
X118691266Y-137223254D03*
D11*
G36*
X120357493Y-136446280D02*
G01*
X119468240Y-138889481D01*
X117025039Y-138000228D01*
X117914292Y-135557027D01*
X120357493Y-136446280D01*
X120357493Y-136446280D01*
G37*
D12*
X108590261Y-131205598D03*
D11*
G36*
X110256488Y-130428624D02*
G01*
X109367235Y-132871825D01*
X106924034Y-131982572D01*
X107813287Y-129539371D01*
X110256488Y-130428624D01*
X110256488Y-130428624D01*
G37*
D10*
X189684913Y-144846147D03*
D11*
G36*
X188914330Y-146456838D02*
G01*
X188059280Y-144107607D01*
X190455496Y-143235456D01*
X191310546Y-145584687D01*
X188914330Y-146456838D01*
X188914330Y-146456838D01*
G37*
D10*
X201830924Y-137722349D03*
D11*
G36*
X201060341Y-139333040D02*
G01*
X200205291Y-136983809D01*
X202601507Y-136111658D01*
X203456557Y-138460889D01*
X201060341Y-139333040D01*
X201060341Y-139333040D01*
G37*
D12*
X200351498Y-131567138D03*
D11*
G36*
X201128472Y-129900911D02*
G01*
X202017725Y-132344112D01*
X199574524Y-133233365D01*
X198685271Y-130790164D01*
X201128472Y-129900911D01*
X201128472Y-129900911D01*
G37*
D12*
X188745604Y-133450147D03*
D11*
G36*
X189522578Y-131783920D02*
G01*
X190411831Y-134227121D01*
X187968630Y-135116374D01*
X187079377Y-132673173D01*
X189522578Y-131783920D01*
X189522578Y-131783920D01*
G37*
D10*
X206717326Y-135943848D03*
D11*
G36*
X205946743Y-137554539D02*
G01*
X205091693Y-135205308D01*
X207487909Y-134333157D01*
X208342959Y-136682388D01*
X205946743Y-137554539D01*
X205946743Y-137554539D01*
G37*
D10*
X218863337Y-128820050D03*
D11*
G36*
X218092754Y-130430741D02*
G01*
X217237704Y-128081510D01*
X219633920Y-127209359D01*
X220488970Y-129558590D01*
X218092754Y-130430741D01*
X218092754Y-130430741D01*
G37*
D12*
X217383911Y-122664839D03*
D11*
G36*
X218160885Y-120998612D02*
G01*
X219050138Y-123441813D01*
X216606937Y-124331066D01*
X215717684Y-121887865D01*
X218160885Y-120998612D01*
X218160885Y-120998612D01*
G37*
D12*
X205778017Y-124547848D03*
D11*
G36*
X206554991Y-122881621D02*
G01*
X207444244Y-125324822D01*
X205001043Y-126214075D01*
X204111790Y-123770874D01*
X206554991Y-122881621D01*
X206554991Y-122881621D01*
G37*
D12*
X223679163Y-118032357D03*
D11*
G36*
X224456137Y-116366130D02*
G01*
X225345390Y-118809331D01*
X222902189Y-119698584D01*
X222012936Y-117255383D01*
X224456137Y-116366130D01*
X224456137Y-116366130D01*
G37*
D12*
X235285057Y-116149348D03*
D11*
G36*
X236062031Y-114483121D02*
G01*
X236951284Y-116926322D01*
X234508083Y-117815575D01*
X233618830Y-115372374D01*
X236062031Y-114483121D01*
X236062031Y-114483121D01*
G37*
D10*
X236764483Y-122304559D03*
D11*
G36*
X235993900Y-123915250D02*
G01*
X235138850Y-121566019D01*
X237535066Y-120693868D01*
X238390116Y-123043099D01*
X235993900Y-123915250D01*
X235993900Y-123915250D01*
G37*
D10*
X224618472Y-129428357D03*
D11*
G36*
X223847889Y-131039048D02*
G01*
X222992839Y-128689817D01*
X225389055Y-127817666D01*
X226244105Y-130166897D01*
X223847889Y-131039048D01*
X223847889Y-131039048D01*
G37*
D10*
X245777360Y-131863443D03*
D11*
G36*
X245006777Y-133474134D02*
G01*
X244151727Y-131124903D01*
X246547943Y-130252752D01*
X247402993Y-132601983D01*
X245006777Y-133474134D01*
X245006777Y-133474134D01*
G37*
D10*
X257923371Y-124739645D03*
D11*
G36*
X257152788Y-126350336D02*
G01*
X256297738Y-124001105D01*
X258693954Y-123128954D01*
X259549004Y-125478185D01*
X257152788Y-126350336D01*
X257152788Y-126350336D01*
G37*
D12*
X256443945Y-118584434D03*
D11*
G36*
X257220919Y-116918207D02*
G01*
X258110172Y-119361408D01*
X255666971Y-120250661D01*
X254777718Y-117807460D01*
X257220919Y-116918207D01*
X257220919Y-116918207D01*
G37*
D12*
X244838051Y-120467443D03*
D11*
G36*
X245615025Y-118801216D02*
G01*
X246504278Y-121244417D01*
X244061077Y-122133670D01*
X243171824Y-119690469D01*
X245615025Y-118801216D01*
X245615025Y-118801216D01*
G37*
D10*
X263678510Y-125347964D03*
D11*
G36*
X262907927Y-126958655D02*
G01*
X262052877Y-124609424D01*
X264449093Y-123737273D01*
X265304143Y-126086504D01*
X262907927Y-126958655D01*
X262907927Y-126958655D01*
G37*
D10*
X275824521Y-118224166D03*
D11*
G36*
X275053938Y-119834857D02*
G01*
X274198888Y-117485626D01*
X276595104Y-116613475D01*
X277450154Y-118962706D01*
X275053938Y-119834857D01*
X275053938Y-119834857D01*
G37*
D12*
X274345095Y-112068955D03*
D11*
G36*
X275122069Y-110402728D02*
G01*
X276011322Y-112845929D01*
X273568121Y-113735182D01*
X272678868Y-111291981D01*
X275122069Y-110402728D01*
X275122069Y-110402728D01*
G37*
D12*
X262739201Y-113951964D03*
D11*
G36*
X263516175Y-112285737D02*
G01*
X264405428Y-114728938D01*
X261962227Y-115618191D01*
X261072974Y-113174990D01*
X263516175Y-112285737D01*
X263516175Y-112285737D01*
G37*
D10*
X284837390Y-127783052D03*
D11*
G36*
X284066807Y-129393743D02*
G01*
X283211757Y-127044512D01*
X285607973Y-126172361D01*
X286463023Y-128521592D01*
X284066807Y-129393743D01*
X284066807Y-129393743D01*
G37*
D10*
X296983401Y-120659254D03*
D11*
G36*
X296212818Y-122269945D02*
G01*
X295357768Y-119920714D01*
X297753984Y-119048563D01*
X298609034Y-121397794D01*
X296212818Y-122269945D01*
X296212818Y-122269945D01*
G37*
D12*
X295503975Y-114504043D03*
D11*
G36*
X296280949Y-112837816D02*
G01*
X297170202Y-115281017D01*
X294727001Y-116170270D01*
X293837748Y-113727069D01*
X296280949Y-112837816D01*
X296280949Y-112837816D01*
G37*
D12*
X283898081Y-116387052D03*
D11*
G36*
X284675055Y-114720825D02*
G01*
X285564308Y-117164026D01*
X283121107Y-118053279D01*
X282231854Y-115610078D01*
X284675055Y-114720825D01*
X284675055Y-114720825D01*
G37*
D10*
X129658972Y-120202982D03*
D11*
G36*
X128033339Y-120941522D02*
G01*
X128888389Y-118592291D01*
X131284605Y-119464442D01*
X130429555Y-121813673D01*
X128033339Y-120941522D01*
X128033339Y-120941522D01*
G37*
D10*
X143542446Y-122553142D03*
D11*
G36*
X141916813Y-123291682D02*
G01*
X142771863Y-120942451D01*
X145168079Y-121814602D01*
X144313029Y-124163833D01*
X141916813Y-123291682D01*
X141916813Y-123291682D01*
G37*
D12*
X146365633Y-116887019D03*
D11*
G36*
X148031860Y-116110045D02*
G01*
X147142607Y-118553246D01*
X144699406Y-117663993D01*
X145588659Y-115220792D01*
X148031860Y-116110045D01*
X148031860Y-116110045D01*
G37*
D12*
X136264628Y-110869363D03*
D11*
G36*
X137930855Y-110092389D02*
G01*
X137041602Y-112535590D01*
X134598401Y-111646337D01*
X135487654Y-109203136D01*
X137930855Y-110092389D01*
X137930855Y-110092389D01*
G37*
D10*
X162010552Y-124509914D03*
D11*
G36*
X161239969Y-126120605D02*
G01*
X160384919Y-123771374D01*
X162781135Y-122899223D01*
X163636185Y-125248454D01*
X161239969Y-126120605D01*
X161239969Y-126120605D01*
G37*
D10*
X174156563Y-117386116D03*
D11*
G36*
X173385980Y-118996807D02*
G01*
X172530930Y-116647576D01*
X174927146Y-115775425D01*
X175782196Y-118124656D01*
X173385980Y-118996807D01*
X173385980Y-118996807D01*
G37*
D12*
X172677137Y-111230905D03*
D11*
G36*
X173454111Y-109564678D02*
G01*
X174343364Y-112007879D01*
X171900163Y-112897132D01*
X171010910Y-110453931D01*
X173454111Y-109564678D01*
X173454111Y-109564678D01*
G37*
D12*
X161071243Y-113113914D03*
D11*
G36*
X161848217Y-111447687D02*
G01*
X162737470Y-113890888D01*
X160294269Y-114780141D01*
X159405016Y-112336940D01*
X161848217Y-111447687D01*
X161848217Y-111447687D01*
G37*
D12*
X129749144Y-128770506D03*
D11*
G36*
X131415371Y-127993532D02*
G01*
X130526118Y-130436733D01*
X128082917Y-129547480D01*
X128972170Y-127104279D01*
X131415371Y-127993532D01*
X131415371Y-127993532D01*
G37*
D12*
X139850149Y-134788162D03*
D11*
G36*
X141516376Y-134011188D02*
G01*
X140627123Y-136454389D01*
X138183922Y-135565136D01*
X139073175Y-133121935D01*
X141516376Y-134011188D01*
X141516376Y-134011188D01*
G37*
D10*
X137026962Y-140454285D03*
D11*
G36*
X135401329Y-141192825D02*
G01*
X136256379Y-138843594D01*
X138652595Y-139715745D01*
X137797545Y-142064976D01*
X135401329Y-141192825D01*
X135401329Y-141192825D01*
G37*
D10*
X123143488Y-138104125D03*
D11*
G36*
X121517855Y-138842665D02*
G01*
X122372905Y-136493434D01*
X124769121Y-137365585D01*
X123914071Y-139714816D01*
X121517855Y-138842665D01*
X121517855Y-138842665D01*
G37*
D10*
X150886179Y-155273704D03*
D11*
G36*
X150868501Y-157059149D02*
G01*
X149100734Y-155291382D01*
X150903857Y-153488259D01*
X152671624Y-155256026D01*
X150868501Y-157059149D01*
X150868501Y-157059149D01*
G37*
D10*
X158883556Y-143684224D03*
D11*
G36*
X158865878Y-145469669D02*
G01*
X157098111Y-143701902D01*
X158901234Y-141898779D01*
X160669001Y-143666546D01*
X158865878Y-145469669D01*
X158865878Y-145469669D01*
G37*
D12*
X154941436Y-138730941D03*
D11*
G36*
X154941436Y-136892463D02*
G01*
X156779914Y-138730941D01*
X154941436Y-140569419D01*
X153102958Y-138730941D01*
X154941436Y-136892463D01*
X154941436Y-136892463D01*
G37*
D12*
X145218718Y-145342389D03*
D11*
G36*
X145218718Y-143503911D02*
G01*
X147057196Y-145342389D01*
X145218718Y-147180867D01*
X143380240Y-145342389D01*
X145218718Y-143503911D01*
X145218718Y-143503911D01*
G37*
M02*
