G04 #@! TF.GenerationSoftware,KiCad,Pcbnew,(5.1.2)-1*
G04 #@! TF.CreationDate,2020-06-30T18:44:26+09:00*
G04 #@! TF.ProjectId,avion,6176696f-6e2e-46b6-9963-61645f706362,rev?*
G04 #@! TF.SameCoordinates,Original*
G04 #@! TF.FileFunction,Legend,Top*
G04 #@! TF.FilePolarity,Positive*
%FSLAX46Y46*%
G04 Gerber Fmt 4.6, Leading zero omitted, Abs format (unit mm)*
G04 Created by KiCad (PCBNEW (5.1.2)-1) date 2020-06-30 18:44:26*
%MOMM*%
%LPD*%
G04 APERTURE LIST*
%ADD10C,0.300000*%
%ADD11C,0.150000*%
%ADD12C,0.120000*%
G04 APERTURE END LIST*
D10*
X60513332Y-137834237D02*
X60506917Y-138896080D01*
X61184541Y-138078538D01*
X62161002Y-137901851D02*
X62295244Y-137950711D01*
X62405056Y-138066692D01*
X62447747Y-138158243D01*
X62466008Y-138316915D01*
X62435408Y-138609829D01*
X62313258Y-138945433D01*
X62148417Y-139189487D01*
X62032437Y-139299298D01*
X61940886Y-139341989D01*
X61782214Y-139360250D01*
X61647972Y-139311390D01*
X61538160Y-139195409D01*
X61495469Y-139103858D01*
X61477208Y-138945187D01*
X61507808Y-138652273D01*
X61629958Y-138316668D01*
X61794799Y-138072615D01*
X61910779Y-137962803D01*
X62002330Y-137920112D01*
X62161002Y-137901851D01*
X62770766Y-139568029D02*
X62813457Y-139659580D01*
X62721906Y-139702270D01*
X62679216Y-139610720D01*
X62770766Y-139568029D01*
X62721906Y-139702270D01*
X63790165Y-138646843D02*
X63881716Y-138604152D01*
X64040387Y-138585892D01*
X64375992Y-138708042D01*
X64485804Y-138824023D01*
X64528495Y-138915573D01*
X64546756Y-139074245D01*
X64497896Y-139208487D01*
X64357485Y-139385420D01*
X63258874Y-139897710D01*
X64131445Y-140215301D01*
X64784393Y-140300929D02*
X64827084Y-140392480D01*
X64735533Y-140435171D01*
X64692843Y-140343620D01*
X64784393Y-140300929D01*
X64735533Y-140435171D01*
X66145072Y-140948201D02*
X65339622Y-140655041D01*
X65742347Y-140801621D02*
X66255377Y-139392082D01*
X66047845Y-139544585D01*
X65864744Y-139629966D01*
X65706072Y-139648227D01*
X62882643Y-131469386D02*
X63395673Y-130059847D01*
X63731278Y-130181997D01*
X63908210Y-130322408D01*
X63993592Y-130505510D01*
X64011853Y-130664182D01*
X63981254Y-130957095D01*
X63907964Y-131158458D01*
X63743123Y-131402512D01*
X63627142Y-131512323D01*
X63444040Y-131597705D01*
X63218247Y-131591536D01*
X62882643Y-131469386D01*
X64853579Y-132110735D02*
X64694907Y-132128996D01*
X64426424Y-132031276D01*
X64316612Y-131915295D01*
X64298351Y-131756624D01*
X64493791Y-131219656D01*
X64609772Y-131109845D01*
X64768444Y-131091584D01*
X65036927Y-131189304D01*
X65146739Y-131305285D01*
X65165000Y-131463956D01*
X65116140Y-131598198D01*
X64396071Y-131488140D01*
X65457667Y-132330606D02*
X65567479Y-132446586D01*
X65835963Y-132544306D01*
X65994634Y-132526046D01*
X66110615Y-132416234D01*
X66135045Y-132349113D01*
X66116785Y-132190441D01*
X66006973Y-132074460D01*
X65805610Y-132001170D01*
X65695798Y-131885189D01*
X65677537Y-131726517D01*
X65701967Y-131659397D01*
X65817948Y-131549585D01*
X65976620Y-131531324D01*
X66177983Y-131604614D01*
X66287795Y-131720595D01*
X66641413Y-132837467D02*
X66983434Y-131897774D01*
X67154444Y-131427928D02*
X67062893Y-131470619D01*
X67105584Y-131562169D01*
X67197135Y-131519479D01*
X67154444Y-131427928D01*
X67105584Y-131562169D01*
X68258731Y-132361944D02*
X67843421Y-133503000D01*
X67727440Y-133612811D01*
X67635889Y-133655502D01*
X67477217Y-133673763D01*
X67275854Y-133600473D01*
X67166042Y-133484492D01*
X67941141Y-133234516D02*
X67782469Y-133252777D01*
X67513985Y-133155057D01*
X67404173Y-133039076D01*
X67361482Y-132947525D01*
X67343222Y-132788853D01*
X67489802Y-132386128D01*
X67605783Y-132276316D01*
X67697334Y-132233625D01*
X67856005Y-132215364D01*
X68124489Y-132313084D01*
X68234301Y-132429065D01*
X68929940Y-132606244D02*
X68587920Y-133545937D01*
X68881080Y-132740486D02*
X68972631Y-132697795D01*
X69131302Y-132679534D01*
X69332665Y-132752824D01*
X69442477Y-132868805D01*
X69460738Y-133027477D01*
X69192008Y-133765807D01*
X70424614Y-134138426D02*
X70265942Y-134156687D01*
X69997459Y-134058967D01*
X69887647Y-133942986D01*
X69869386Y-133784314D01*
X70064826Y-133247347D01*
X70180807Y-133137535D01*
X70339479Y-133119275D01*
X70607962Y-133216995D01*
X70717774Y-133332975D01*
X70736035Y-133491647D01*
X70687175Y-133625889D01*
X69967106Y-133515831D01*
X71675481Y-134669717D02*
X72188511Y-133260178D01*
X71699911Y-134602596D02*
X71541239Y-134620857D01*
X71272756Y-134523137D01*
X71162944Y-134407156D01*
X71120253Y-134315605D01*
X71101992Y-134156934D01*
X71248572Y-133754208D01*
X71364553Y-133644396D01*
X71456104Y-133601706D01*
X71614776Y-133583445D01*
X71883259Y-133681165D01*
X71993071Y-133797146D01*
X73420625Y-135304898D02*
X73933655Y-133895359D01*
X73738215Y-134432326D02*
X73896886Y-134414065D01*
X74165370Y-134511785D01*
X74275182Y-134627766D01*
X74317873Y-134719317D01*
X74336134Y-134877989D01*
X74189554Y-135280714D01*
X74073573Y-135390526D01*
X73982022Y-135433217D01*
X73823350Y-135451478D01*
X73554866Y-135353758D01*
X73445055Y-135237777D01*
X74903700Y-134780515D02*
X74897284Y-135842358D01*
X75574909Y-135024815D02*
X74897284Y-135842358D01*
X74640892Y-136129102D01*
X74549342Y-136171793D01*
X74390670Y-136190054D01*
X77960662Y-136197209D02*
X77917971Y-136105658D01*
X77808160Y-135989677D01*
X77673918Y-135940817D01*
X77515246Y-135959078D01*
X77423695Y-136001769D01*
X77307714Y-136111581D01*
X77258854Y-136245823D01*
X77277115Y-136404495D01*
X77319806Y-136496046D01*
X77429618Y-136612026D01*
X77563860Y-136660886D01*
X77722531Y-136642626D01*
X77814082Y-136599935D01*
X78009522Y-136062967D02*
X77814082Y-136599935D01*
X77856773Y-136691486D01*
X77923894Y-136715916D01*
X78082566Y-136697655D01*
X78198547Y-136587843D01*
X78320697Y-136252238D01*
X78259745Y-136002016D01*
X78107242Y-135794484D01*
X77863189Y-135629643D01*
X77570275Y-135599044D01*
X77320052Y-135659996D01*
X77112521Y-135812498D01*
X76947680Y-136056552D01*
X76917081Y-136349465D01*
X76978032Y-136599688D01*
X77130535Y-136807220D01*
X77374589Y-136972061D01*
X77667502Y-137002660D01*
X77917725Y-136941708D01*
X78796712Y-136197456D02*
X79333679Y-136392896D01*
X79169085Y-135800900D02*
X78729345Y-137009076D01*
X78747606Y-137167748D01*
X78857418Y-137283728D01*
X78991659Y-137332589D01*
X80065594Y-137723469D02*
X80334324Y-136985139D01*
X80316063Y-136826467D01*
X80206251Y-136710486D01*
X79937768Y-136612766D01*
X79779096Y-136631027D01*
X80090024Y-137656348D02*
X79931352Y-137674609D01*
X79595747Y-137552459D01*
X79485936Y-137436478D01*
X79467675Y-137277806D01*
X79516535Y-137143564D01*
X79632516Y-137033752D01*
X79791188Y-137015491D01*
X80126792Y-137137641D01*
X80285464Y-137119381D01*
X81078823Y-137028076D02*
X80736803Y-137967769D01*
X81029963Y-137162318D02*
X81121514Y-137119627D01*
X81280186Y-137101366D01*
X81481548Y-137174656D01*
X81591360Y-137290637D01*
X81609621Y-137449309D01*
X81340891Y-138187639D01*
X82573497Y-138560258D02*
X82414825Y-138578519D01*
X82146342Y-138480799D01*
X82036530Y-138364818D01*
X82018269Y-138206146D01*
X82213709Y-137669179D01*
X82329690Y-137559367D01*
X82488362Y-137541106D01*
X82756845Y-137638826D01*
X82866657Y-137754807D01*
X82884918Y-137913479D01*
X82836058Y-138047721D01*
X82115989Y-137937663D01*
X83428054Y-137883127D02*
X83421639Y-138944969D01*
X84099263Y-138127427D02*
X83421639Y-138944969D01*
X83165247Y-139231714D01*
X83073696Y-139274405D01*
X82915024Y-139292665D01*
X84898299Y-139482429D02*
X85167029Y-138744099D01*
X85148768Y-138585428D01*
X85038956Y-138469447D01*
X84770472Y-138371727D01*
X84611801Y-138389988D01*
X84922729Y-139415308D02*
X84764057Y-139433569D01*
X84428452Y-139311419D01*
X84318641Y-139195438D01*
X84300380Y-139036767D01*
X84349240Y-138902525D01*
X84465221Y-138792713D01*
X84623892Y-138774452D01*
X84959497Y-138896602D01*
X85118169Y-138878341D01*
X85710165Y-138713747D02*
X86247132Y-138909187D01*
X86082538Y-138317191D02*
X85642798Y-139525367D01*
X85661059Y-139684039D01*
X85770870Y-139800020D01*
X85905112Y-139848880D01*
X86332268Y-139928339D02*
X86442079Y-140044320D01*
X86710563Y-140142040D01*
X86869235Y-140123779D01*
X86985216Y-140013967D01*
X87009646Y-139946846D01*
X86991385Y-139788174D01*
X86881573Y-139672193D01*
X86680210Y-139598903D01*
X86570399Y-139482922D01*
X86552138Y-139324251D01*
X86576568Y-139257130D01*
X86692549Y-139147318D01*
X86851220Y-139129057D01*
X87052583Y-139202347D01*
X87162395Y-139318328D01*
X63194731Y-132700363D02*
X62523522Y-132456063D01*
X62212101Y-133102842D01*
X62303652Y-133060151D01*
X62462324Y-133041890D01*
X62797928Y-133164040D01*
X62907740Y-133280021D01*
X62950431Y-133371572D01*
X62968692Y-133530244D01*
X62846542Y-133865849D01*
X62730561Y-133975660D01*
X62639010Y-134018351D01*
X62480338Y-134036612D01*
X62144734Y-133914462D01*
X62034922Y-133798481D01*
X61992231Y-133706930D01*
X63731698Y-132895803D02*
X64604270Y-133213393D01*
X63938984Y-133579351D01*
X64140346Y-133652641D01*
X64250158Y-133768622D01*
X64292849Y-133860172D01*
X64311110Y-134018844D01*
X64188960Y-134354449D01*
X64072979Y-134464261D01*
X63981428Y-134506951D01*
X63822756Y-134525212D01*
X63420031Y-134378632D01*
X63310219Y-134262651D01*
X63267528Y-134171100D01*
X65769262Y-135233683D02*
X66282293Y-133824144D01*
X66574713Y-135526843D02*
X66263785Y-134501522D01*
X67087743Y-134117304D02*
X65989133Y-134629595D01*
X67740199Y-135875032D02*
X67581527Y-135893293D01*
X67313043Y-135795573D01*
X67203231Y-135679592D01*
X67184971Y-135520920D01*
X67380411Y-134983953D01*
X67496392Y-134874141D01*
X67655063Y-134855880D01*
X67923547Y-134953600D01*
X68033359Y-135069581D01*
X68051620Y-135228253D01*
X68002760Y-135362495D01*
X67282691Y-135252437D01*
X68594756Y-135197900D02*
X68588340Y-136259743D01*
X69265965Y-135442200D02*
X68588340Y-136259743D01*
X68331948Y-136546488D01*
X68240398Y-136589178D01*
X68081726Y-136607439D01*
X69418221Y-136485782D02*
X69528033Y-136601763D01*
X69796517Y-136699483D01*
X69955188Y-136681222D01*
X70071169Y-136571411D01*
X70095599Y-136504290D01*
X70077338Y-136345618D01*
X69967527Y-136229637D01*
X69766164Y-136156347D01*
X69656352Y-136040366D01*
X69638091Y-135881694D01*
X69662521Y-135814573D01*
X69778502Y-135704761D01*
X69937174Y-135686501D01*
X70138537Y-135759791D01*
X70248348Y-135875772D01*
X61535390Y-134962091D02*
X61626941Y-134919400D01*
X61785613Y-134901139D01*
X62121217Y-135023289D01*
X62231029Y-135139270D01*
X62273720Y-135230821D01*
X62291981Y-135389493D01*
X62243121Y-135523735D01*
X62102710Y-135700667D01*
X61004099Y-136212958D01*
X61876671Y-136530548D01*
X63262273Y-135438599D02*
X63396515Y-135487459D01*
X63506326Y-135603440D01*
X63549017Y-135694991D01*
X63567278Y-135853663D01*
X63536679Y-136146577D01*
X63414529Y-136482181D01*
X63249688Y-136726235D01*
X63133707Y-136836047D01*
X63042156Y-136878737D01*
X62883484Y-136896998D01*
X62749243Y-136848138D01*
X62639431Y-136732157D01*
X62596740Y-136640606D01*
X62578479Y-136481935D01*
X62609078Y-136189021D01*
X62731228Y-135853417D01*
X62896069Y-135609363D01*
X63012050Y-135499551D01*
X63103601Y-135456860D01*
X63262273Y-135438599D01*
X64897111Y-137629899D02*
X65410142Y-136220360D01*
X65745746Y-136342510D01*
X65922679Y-136482921D01*
X66008061Y-136666022D01*
X66026322Y-136824694D01*
X65995722Y-137117608D01*
X65922432Y-137318971D01*
X65757591Y-137563024D01*
X65641610Y-137672836D01*
X65458509Y-137758218D01*
X65232716Y-137752049D01*
X64897111Y-137629899D01*
X66868048Y-138271248D02*
X66709376Y-138289509D01*
X66440892Y-138191789D01*
X66331080Y-138075808D01*
X66312820Y-137917136D01*
X66508260Y-137380169D01*
X66624241Y-137270357D01*
X66782912Y-137252096D01*
X67051396Y-137349816D01*
X67161208Y-137465797D01*
X67179469Y-137624469D01*
X67130609Y-137758711D01*
X66410540Y-137648653D01*
X68460935Y-137862846D02*
X68045625Y-139003902D01*
X67929644Y-139113714D01*
X67838093Y-139156404D01*
X67679421Y-139174665D01*
X67478058Y-139101375D01*
X67368247Y-138985394D01*
X68143345Y-138735418D02*
X67984673Y-138753679D01*
X67716189Y-138655959D01*
X67606378Y-138539978D01*
X67563687Y-138448427D01*
X67545426Y-138289755D01*
X67692006Y-137887030D01*
X67807987Y-137777218D01*
X67899538Y-137734527D01*
X68058209Y-137716266D01*
X68326693Y-137813986D01*
X68436505Y-137929967D01*
X68838984Y-138912597D02*
X68881675Y-139004148D01*
X68790124Y-139046839D01*
X68747433Y-138955288D01*
X68838984Y-138912597D01*
X68790124Y-139046839D01*
X70614726Y-139254864D02*
X71285935Y-139499164D01*
X70333904Y-139608729D02*
X71316781Y-138370201D01*
X71273597Y-139950750D01*
X72085464Y-139182067D02*
X71743443Y-140121760D01*
X72036604Y-139316309D02*
X72128154Y-139273618D01*
X72286826Y-139255357D01*
X72488189Y-139328647D01*
X72598001Y-139444628D01*
X72616262Y-139603300D01*
X72347532Y-140341630D01*
X73964849Y-139866107D02*
X73549539Y-141007163D01*
X73433558Y-141116974D01*
X73342007Y-141159665D01*
X73183335Y-141177926D01*
X72981972Y-141104636D01*
X72872160Y-140988655D01*
X73647259Y-140738679D02*
X73488587Y-140756940D01*
X73220103Y-140659220D01*
X73110291Y-140543239D01*
X73067601Y-140451688D01*
X73049340Y-140293016D01*
X73195920Y-139890291D01*
X73311901Y-139780479D01*
X73403452Y-139737788D01*
X73562123Y-139719527D01*
X73830607Y-139817247D01*
X73940419Y-139933228D01*
X74495400Y-141123390D02*
X74385589Y-141007409D01*
X74367328Y-140848737D01*
X74807068Y-139640561D01*
X75593765Y-141447149D02*
X75435093Y-141465410D01*
X75166609Y-141367690D01*
X75056798Y-141251709D01*
X75038537Y-141093037D01*
X75233977Y-140556070D01*
X75349958Y-140446258D01*
X75508630Y-140427998D01*
X75777113Y-140525718D01*
X75886925Y-140641699D01*
X75905186Y-140800370D01*
X75856326Y-140934612D01*
X75136257Y-140824554D01*
X76844632Y-141978440D02*
X77357662Y-140568902D01*
X76869062Y-141911320D02*
X76710390Y-141929580D01*
X76441907Y-141831860D01*
X76332095Y-141715879D01*
X76289404Y-141624329D01*
X76271143Y-141465657D01*
X76417723Y-141062931D01*
X76533704Y-140953120D01*
X76625255Y-140910429D01*
X76783927Y-140892168D01*
X77052410Y-140989888D01*
X77162222Y-141105869D01*
D11*
X29500978Y-59118057D02*
X29842998Y-58178365D01*
X25054716Y-71334061D02*
X25994408Y-71676081D01*
X30782690Y-58520385D02*
X29842998Y-58178365D01*
X25054716Y-71334061D02*
X25396736Y-70394369D01*
X38552432Y-75182651D02*
X38210412Y-76122343D01*
X42998694Y-62966647D02*
X42059002Y-62624627D01*
X37270720Y-75780323D02*
X38210412Y-76122343D01*
X42998694Y-62966647D02*
X42656674Y-63906339D01*
X176882942Y-126514125D02*
X177224962Y-127453817D01*
X180731532Y-140011841D02*
X181671224Y-139669821D01*
X176882942Y-126514125D02*
X175943250Y-126856145D01*
X181329204Y-138730129D02*
X181671224Y-139669821D01*
X168515528Y-144458103D02*
X168173508Y-143518411D01*
X164666938Y-130960387D02*
X163727246Y-131302407D01*
X168515528Y-144458103D02*
X169455220Y-144116083D01*
X164069266Y-132242099D02*
X163727246Y-131302407D01*
D12*
X38329716Y-59772115D02*
X39095841Y-57667203D01*
X38104190Y-59690030D02*
X38870315Y-57585118D01*
X38216953Y-59731072D02*
X38983078Y-57626161D01*
X34681498Y-57252392D02*
X35292298Y-57474706D01*
X39887395Y-59147184D02*
X39276594Y-58924871D01*
X34909235Y-58527161D02*
X38893532Y-59977327D01*
X35675360Y-56422250D02*
X34909235Y-58527161D01*
X39659657Y-57872415D02*
X35675360Y-56422250D01*
X38893532Y-59977327D02*
X39659657Y-57872415D01*
X60052417Y-57542236D02*
X60818542Y-55437324D01*
X60818542Y-55437324D02*
X56834245Y-53987159D01*
X56834245Y-53987159D02*
X56068120Y-56092070D01*
X56068120Y-56092070D02*
X60052417Y-57542236D01*
X61046280Y-56712093D02*
X60435479Y-56489780D01*
X55840383Y-54817301D02*
X56451183Y-55039615D01*
X59375838Y-57295981D02*
X60141963Y-55191070D01*
X59263075Y-57254939D02*
X60029200Y-55150027D01*
X59488601Y-57337024D02*
X60254726Y-55232112D01*
X77389748Y-63852510D02*
X78155873Y-61747598D01*
X77164222Y-63770425D02*
X77930347Y-61665513D01*
X77276985Y-63811467D02*
X78043110Y-61706556D01*
X73741530Y-61332787D02*
X74352330Y-61555101D01*
X78947427Y-63227579D02*
X78336626Y-63005266D01*
X73969267Y-62607556D02*
X77953564Y-64057722D01*
X74735392Y-60502645D02*
X73969267Y-62607556D01*
X78719689Y-61952810D02*
X74735392Y-60502645D01*
X77953564Y-64057722D02*
X78719689Y-61952810D01*
X99112450Y-61622632D02*
X99878575Y-59517720D01*
X99878575Y-59517720D02*
X95894278Y-58067555D01*
X95894278Y-58067555D02*
X95128153Y-60172466D01*
X95128153Y-60172466D02*
X99112450Y-61622632D01*
X100106313Y-60792489D02*
X99495512Y-60570176D01*
X94900416Y-58897697D02*
X95511216Y-59120011D01*
X98435871Y-61376377D02*
X99201996Y-59271466D01*
X98323108Y-61335335D02*
X99089233Y-59230423D01*
X98548634Y-61417420D02*
X99314759Y-59312508D01*
X116449780Y-67932903D02*
X117215905Y-65827991D01*
X116224254Y-67850818D02*
X116990379Y-65745906D01*
X116337017Y-67891860D02*
X117103142Y-65786949D01*
X112801562Y-65413180D02*
X113412362Y-65635494D01*
X118007459Y-67307972D02*
X117396658Y-67085659D01*
X113029299Y-66687949D02*
X117013596Y-68138115D01*
X113795424Y-64583038D02*
X113029299Y-66687949D01*
X117779721Y-66033203D02*
X113795424Y-64583038D01*
X117013596Y-68138115D02*
X117779721Y-66033203D01*
X133482190Y-76835210D02*
X134248315Y-74730298D01*
X133256664Y-76753125D02*
X134022789Y-74648213D01*
X133369427Y-76794167D02*
X134135552Y-74689256D01*
X129833972Y-74315487D02*
X130444772Y-74537801D01*
X135039869Y-76210279D02*
X134429068Y-75987966D01*
X130061709Y-75590256D02*
X134046006Y-77040422D01*
X130827834Y-73485345D02*
X130061709Y-75590256D01*
X134812131Y-74935510D02*
X130827834Y-73485345D01*
X134046006Y-77040422D02*
X134812131Y-74935510D01*
X173429141Y-75594573D02*
X172663016Y-73489661D01*
X172663016Y-73489661D02*
X168678719Y-74939827D01*
X168678719Y-74939827D02*
X169444844Y-77044738D01*
X169444844Y-77044738D02*
X173429141Y-75594573D01*
X173656879Y-74319804D02*
X173046078Y-74542117D01*
X168450982Y-76214596D02*
X169061782Y-75992282D01*
X172752562Y-75840827D02*
X171986437Y-73735916D01*
X172639799Y-75881870D02*
X171873674Y-73776958D01*
X172865325Y-75799785D02*
X172099200Y-73694873D01*
X189897738Y-66897483D02*
X189131613Y-64792571D01*
X189672212Y-66979568D02*
X188906087Y-64874656D01*
X189784975Y-66938525D02*
X189018850Y-64833614D01*
X185483395Y-67312294D02*
X186094195Y-67089980D01*
X190689292Y-65417502D02*
X190078491Y-65639815D01*
X186477257Y-68142436D02*
X190461554Y-66692271D01*
X185711132Y-66037525D02*
X186477257Y-68142436D01*
X189695429Y-64587359D02*
X185711132Y-66037525D01*
X190461554Y-66692271D02*
X189695429Y-64587359D01*
X207798877Y-60381996D02*
X207032752Y-58277084D01*
X207573351Y-60464081D02*
X206807226Y-58359169D01*
X207686114Y-60423038D02*
X206919989Y-58318127D01*
X203384534Y-60796807D02*
X203995334Y-60574493D01*
X208590431Y-58902015D02*
X207979630Y-59124328D01*
X204378396Y-61626949D02*
X208362693Y-60176784D01*
X203612271Y-59522038D02*
X204378396Y-61626949D01*
X207596568Y-58071872D02*
X203612271Y-59522038D01*
X208362693Y-60176784D02*
X207596568Y-58071872D01*
X228957760Y-62817085D02*
X228191635Y-60712173D01*
X228732234Y-62899170D02*
X227966109Y-60794258D01*
X228844997Y-62858127D02*
X228078872Y-60753216D01*
X224543417Y-63231896D02*
X225154217Y-63009582D01*
X229749314Y-61337104D02*
X229138513Y-61559417D01*
X225537279Y-64062038D02*
X229521576Y-62611873D01*
X224771154Y-61957127D02*
X225537279Y-64062038D01*
X228755451Y-60506961D02*
X224771154Y-61957127D01*
X229521576Y-62611873D02*
X228755451Y-60506961D01*
X246858913Y-56301594D02*
X246092788Y-54196682D01*
X246633387Y-56383679D02*
X245867262Y-54278767D01*
X246746150Y-56342636D02*
X245980025Y-54237725D01*
X242444570Y-56716405D02*
X243055370Y-56494091D01*
X247650467Y-54821613D02*
X247039666Y-55043926D01*
X243438432Y-57546547D02*
X247422729Y-56096382D01*
X242672307Y-55441636D02*
X243438432Y-57546547D01*
X246656604Y-53991470D02*
X242672307Y-55441636D01*
X247422729Y-56096382D02*
X246656604Y-53991470D01*
X268553759Y-58454935D02*
X267787634Y-56350023D01*
X267787634Y-56350023D02*
X263803337Y-57800189D01*
X263803337Y-57800189D02*
X264569462Y-59905100D01*
X264569462Y-59905100D02*
X268553759Y-58454935D01*
X268781497Y-57180166D02*
X268170696Y-57402479D01*
X263575600Y-59074958D02*
X264186400Y-58852644D01*
X267877180Y-58701189D02*
X267111055Y-56596278D01*
X267764417Y-58742232D02*
X266998292Y-56637320D01*
X267989943Y-58660147D02*
X267223818Y-56555235D01*
X32378049Y-77878465D02*
X33144174Y-75773553D01*
X33144174Y-75773553D02*
X29159877Y-74323388D01*
X29159877Y-74323388D02*
X28393752Y-76428299D01*
X28393752Y-76428299D02*
X32378049Y-77878465D01*
X33371912Y-77048322D02*
X32761111Y-76826009D01*
X28166015Y-75153530D02*
X28776815Y-75375844D01*
X31701470Y-77632210D02*
X32467595Y-75527299D01*
X31588707Y-77591168D02*
X32354832Y-75486256D01*
X31814233Y-77673253D02*
X32580358Y-75568341D01*
X52973117Y-75238172D02*
X53739242Y-73133260D01*
X52747591Y-75156087D02*
X53513716Y-73051175D01*
X52860354Y-75197129D02*
X53626479Y-73092218D01*
X49324899Y-72718449D02*
X49935699Y-72940763D01*
X54530796Y-74613241D02*
X53919995Y-74390928D01*
X49552636Y-73993218D02*
X53536933Y-75443384D01*
X50318761Y-71888307D02*
X49552636Y-73993218D01*
X54303058Y-73338472D02*
X50318761Y-71888307D01*
X53536933Y-75443384D02*
X54303058Y-73338472D01*
X70874261Y-81753651D02*
X71640386Y-79648739D01*
X70648735Y-81671566D02*
X71414860Y-79566654D01*
X70761498Y-81712608D02*
X71527623Y-79607697D01*
X67226043Y-79233928D02*
X67836843Y-79456242D01*
X72431940Y-81128720D02*
X71821139Y-80906407D01*
X67453780Y-80508697D02*
X71438077Y-81958863D01*
X68219905Y-78403786D02*
X67453780Y-80508697D01*
X72204202Y-79853951D02*
X68219905Y-78403786D01*
X71438077Y-81958863D02*
X72204202Y-79853951D01*
X92596962Y-79523777D02*
X93363087Y-77418865D01*
X93363087Y-77418865D02*
X89378790Y-75968700D01*
X89378790Y-75968700D02*
X88612665Y-78073611D01*
X88612665Y-78073611D02*
X92596962Y-79523777D01*
X93590825Y-78693634D02*
X92980024Y-78471321D01*
X88384928Y-76798842D02*
X88995728Y-77021156D01*
X91920383Y-79277522D02*
X92686508Y-77172611D01*
X91807620Y-79236480D02*
X92573745Y-77131568D01*
X92033146Y-79318565D02*
X92799271Y-77213653D01*
X109934294Y-85834048D02*
X110700419Y-83729136D01*
X109708768Y-85751963D02*
X110474893Y-83647051D01*
X109821531Y-85793005D02*
X110587656Y-83688094D01*
X106286076Y-83314325D02*
X106896876Y-83536639D01*
X111491973Y-85209117D02*
X110881172Y-84986804D01*
X106513813Y-84589094D02*
X110498110Y-86039260D01*
X107279938Y-82484183D02*
X106513813Y-84589094D01*
X111264235Y-83934348D02*
X107279938Y-82484183D01*
X110498110Y-86039260D02*
X111264235Y-83934348D01*
X127530518Y-94941558D02*
X128296643Y-92836646D01*
X128296643Y-92836646D02*
X124312346Y-91386481D01*
X124312346Y-91386481D02*
X123546221Y-93491392D01*
X123546221Y-93491392D02*
X127530518Y-94941558D01*
X128524381Y-94111415D02*
X127913580Y-93889102D01*
X123318484Y-92216623D02*
X123929284Y-92438937D01*
X126853939Y-94695303D02*
X127620064Y-92590392D01*
X126741176Y-94654261D02*
X127507301Y-92549349D01*
X126966702Y-94736346D02*
X127732827Y-92631434D01*
X179944623Y-93495714D02*
X179178498Y-91390802D01*
X179178498Y-91390802D02*
X175194201Y-92840968D01*
X175194201Y-92840968D02*
X175960326Y-94945879D01*
X175960326Y-94945879D02*
X179944623Y-93495714D01*
X180172361Y-92220945D02*
X179561560Y-92443258D01*
X174966464Y-94115737D02*
X175577264Y-93893423D01*
X179268044Y-93741968D02*
X178501919Y-91637057D01*
X179155281Y-93783011D02*
X178389156Y-91678099D01*
X179380807Y-93700926D02*
X178614682Y-91596014D01*
X196977039Y-84593410D02*
X196210914Y-82488498D01*
X196210914Y-82488498D02*
X192226617Y-83938664D01*
X192226617Y-83938664D02*
X192992742Y-86043575D01*
X192992742Y-86043575D02*
X196977039Y-84593410D01*
X197204777Y-83318641D02*
X196593976Y-83540954D01*
X191998880Y-85213433D02*
X192609680Y-84991119D01*
X196300460Y-84839664D02*
X195534335Y-82734753D01*
X196187697Y-84880707D02*
X195421572Y-82775795D01*
X196413223Y-84798622D02*
X195647098Y-82693710D01*
X214878179Y-78077928D02*
X214112054Y-75973016D01*
X214112054Y-75973016D02*
X210127757Y-77423182D01*
X210127757Y-77423182D02*
X210893882Y-79528093D01*
X210893882Y-79528093D02*
X214878179Y-78077928D01*
X215105917Y-76803159D02*
X214495116Y-77025472D01*
X209900020Y-78697951D02*
X210510820Y-78475637D01*
X214201600Y-78324182D02*
X213435475Y-76219271D01*
X214088837Y-78365225D02*
X213322712Y-76260313D01*
X214314363Y-78283140D02*
X213548238Y-76178228D01*
X236037065Y-80513017D02*
X235270940Y-78408105D01*
X235270940Y-78408105D02*
X231286643Y-79858271D01*
X231286643Y-79858271D02*
X232052768Y-81963182D01*
X232052768Y-81963182D02*
X236037065Y-80513017D01*
X236264803Y-79238248D02*
X235654002Y-79460561D01*
X231058906Y-81133040D02*
X231669706Y-80910726D01*
X235360486Y-80759271D02*
X234594361Y-78654360D01*
X235247723Y-80800314D02*
X234481598Y-78695402D01*
X235473249Y-80718229D02*
X234707124Y-78613317D01*
X253374395Y-74202746D02*
X252608270Y-72097834D01*
X253148869Y-74284831D02*
X252382744Y-72179919D01*
X253261632Y-74243788D02*
X252495507Y-72138877D01*
X248960052Y-74617557D02*
X249570852Y-74395243D01*
X254165949Y-72722765D02*
X253555148Y-72945078D01*
X249953914Y-75447699D02*
X253938211Y-73997534D01*
X249187789Y-73342788D02*
X249953914Y-75447699D01*
X253172086Y-71892622D02*
X249187789Y-73342788D01*
X253938211Y-73997534D02*
X253172086Y-71892622D01*
X274533283Y-76637840D02*
X273767158Y-74532928D01*
X274307757Y-76719925D02*
X273541632Y-74615013D01*
X274420520Y-76678882D02*
X273654395Y-74573971D01*
X270118940Y-77052651D02*
X270729740Y-76830337D01*
X275324837Y-75157859D02*
X274714036Y-75380172D01*
X271112802Y-77882793D02*
X275097099Y-76432628D01*
X270346677Y-75777882D02*
X271112802Y-77882793D01*
X274330974Y-74327716D02*
X270346677Y-75777882D01*
X275097099Y-76432628D02*
X274330974Y-74327716D01*
X25895448Y-95791582D02*
X26661573Y-93686670D01*
X25669922Y-95709497D02*
X26436047Y-93604585D01*
X25782685Y-95750539D02*
X26548810Y-93645628D01*
X22247230Y-93271859D02*
X22858030Y-93494173D01*
X27453127Y-95166651D02*
X26842326Y-94944338D01*
X22474967Y-94546628D02*
X26459264Y-95996794D01*
X23241092Y-92441717D02*
X22474967Y-94546628D01*
X27225389Y-93891882D02*
X23241092Y-92441717D01*
X26459264Y-95996794D02*
X27225389Y-93891882D01*
X46457638Y-93139312D02*
X47223763Y-91034400D01*
X46232112Y-93057227D02*
X46998237Y-90952315D01*
X46344875Y-93098269D02*
X47111000Y-90993358D01*
X42809420Y-90619589D02*
X43420220Y-90841903D01*
X48015317Y-92514381D02*
X47404516Y-92292068D01*
X43037157Y-91894358D02*
X47021454Y-93344524D01*
X43803282Y-89789447D02*
X43037157Y-91894358D01*
X47787579Y-91239612D02*
X43803282Y-89789447D01*
X47021454Y-93344524D02*
X47787579Y-91239612D01*
X64922600Y-99860004D02*
X65688725Y-97755092D01*
X65688725Y-97755092D02*
X61704428Y-96304927D01*
X61704428Y-96304927D02*
X60938303Y-98409838D01*
X60938303Y-98409838D02*
X64922600Y-99860004D01*
X65916463Y-99029861D02*
X65305662Y-98807548D01*
X60710566Y-97135069D02*
X61321366Y-97357383D01*
X64246021Y-99613749D02*
X65012146Y-97508838D01*
X64133258Y-99572707D02*
X64899383Y-97467795D01*
X64358784Y-99654792D02*
X65124909Y-97549880D01*
X85300479Y-97816414D02*
X86066604Y-95711502D01*
X85074953Y-97734329D02*
X85841078Y-95629417D01*
X85187716Y-97775371D02*
X85953841Y-95670460D01*
X81652261Y-95296691D02*
X82263061Y-95519005D01*
X86858158Y-97191483D02*
X86247357Y-96969170D01*
X81879998Y-96571460D02*
X85864295Y-98021626D01*
X82646123Y-94466549D02*
X81879998Y-96571460D01*
X86630420Y-95916714D02*
X82646123Y-94466549D01*
X85864295Y-98021626D02*
X86630420Y-95916714D01*
X103418816Y-103735193D02*
X104184941Y-101630281D01*
X103193290Y-103653108D02*
X103959415Y-101548196D01*
X103306053Y-103694150D02*
X104072178Y-101589239D01*
X99770598Y-101215470D02*
X100381398Y-101437784D01*
X104976495Y-103110262D02*
X104365694Y-102887949D01*
X99998335Y-102490239D02*
X103982632Y-103940405D01*
X100764460Y-100385328D02*
X99998335Y-102490239D01*
X104748757Y-101835493D02*
X100764460Y-100385328D01*
X103982632Y-103940405D02*
X104748757Y-101835493D01*
X121015039Y-112842703D02*
X121781164Y-110737791D01*
X121781164Y-110737791D02*
X117796867Y-109287626D01*
X117796867Y-109287626D02*
X117030742Y-111392537D01*
X117030742Y-111392537D02*
X121015039Y-112842703D01*
X122008902Y-112012560D02*
X121398101Y-111790247D01*
X116803005Y-110117768D02*
X117413805Y-110340082D01*
X120338460Y-112596448D02*
X121104585Y-110491537D01*
X120225697Y-112555406D02*
X120991822Y-110450494D01*
X120451223Y-112637491D02*
X121217348Y-110532579D01*
X185896288Y-111602071D02*
X185130163Y-109497159D01*
X185670762Y-111684156D02*
X184904637Y-109579244D01*
X185783525Y-111643113D02*
X185017400Y-109538202D01*
X181481945Y-112016882D02*
X182092745Y-111794568D01*
X186687842Y-110122090D02*
X186077041Y-110344403D01*
X182475807Y-112847024D02*
X186460104Y-111396859D01*
X181709682Y-110742113D02*
X182475807Y-112847024D01*
X185693979Y-109291947D02*
X181709682Y-110742113D01*
X186460104Y-111396859D02*
X185693979Y-109291947D01*
X202928704Y-102699764D02*
X202162579Y-100594852D01*
X202703178Y-102781849D02*
X201937053Y-100676937D01*
X202815941Y-102740806D02*
X202049816Y-100635895D01*
X198514361Y-103114575D02*
X199125161Y-102892261D01*
X203720258Y-101219783D02*
X203109457Y-101442096D01*
X199508223Y-103944717D02*
X203492520Y-102494552D01*
X198742098Y-101839806D02*
X199508223Y-103944717D01*
X202726395Y-100389640D02*
X198742098Y-101839806D01*
X203492520Y-102494552D02*
X202726395Y-100389640D01*
X221393670Y-95979078D02*
X220627545Y-93874166D01*
X220627545Y-93874166D02*
X216643248Y-95324332D01*
X216643248Y-95324332D02*
X217409373Y-97429243D01*
X217409373Y-97429243D02*
X221393670Y-95979078D01*
X221621408Y-94704309D02*
X221010607Y-94926622D01*
X216415511Y-96599101D02*
X217026311Y-96376787D01*
X220717091Y-96225332D02*
X219950966Y-94120421D01*
X220604328Y-96266375D02*
X219838203Y-94161463D01*
X220829854Y-96184290D02*
X220063729Y-94079378D01*
X242552544Y-98414163D02*
X241786419Y-96309251D01*
X241786419Y-96309251D02*
X237802122Y-97759417D01*
X237802122Y-97759417D02*
X238568247Y-99864328D01*
X238568247Y-99864328D02*
X242552544Y-98414163D01*
X242780282Y-97139394D02*
X242169481Y-97361707D01*
X237574385Y-99034186D02*
X238185185Y-98811872D01*
X241875965Y-98660417D02*
X241109840Y-96555506D01*
X241763202Y-98701460D02*
X240997077Y-96596548D01*
X241988728Y-98619375D02*
X241222603Y-96514463D01*
X260453695Y-91898682D02*
X259687570Y-89793770D01*
X259687570Y-89793770D02*
X255703273Y-91243936D01*
X255703273Y-91243936D02*
X256469398Y-93348847D01*
X256469398Y-93348847D02*
X260453695Y-91898682D01*
X260681433Y-90623913D02*
X260070632Y-90846226D01*
X255475536Y-92518705D02*
X256086336Y-92296391D01*
X259777116Y-92144936D02*
X259010991Y-90040025D01*
X259664353Y-92185979D02*
X258898228Y-90081067D01*
X259889879Y-92103894D02*
X259123754Y-89998982D01*
X280988021Y-94474413D02*
X280221896Y-92369501D01*
X280221896Y-92369501D02*
X276237599Y-93819667D01*
X276237599Y-93819667D02*
X277003724Y-95924578D01*
X277003724Y-95924578D02*
X280988021Y-94474413D01*
X281215759Y-93199644D02*
X280604958Y-93421957D01*
X276009862Y-95094436D02*
X276620662Y-94872122D01*
X280311442Y-94720667D02*
X279545317Y-92615756D01*
X280198679Y-94761710D02*
X279432554Y-92656798D01*
X280424205Y-94679625D02*
X279658080Y-92574713D01*
X18783262Y-113475554D02*
X19549387Y-111370642D01*
X18557736Y-113393469D02*
X19323861Y-111288557D01*
X18670499Y-113434511D02*
X19436624Y-111329600D01*
X15135044Y-110955831D02*
X15745844Y-111178145D01*
X20340941Y-112850623D02*
X19730140Y-112628310D01*
X15362781Y-112230600D02*
X19347078Y-113680766D01*
X16128906Y-110125689D02*
X15362781Y-112230600D01*
X20113203Y-111575854D02*
X16128906Y-110125689D01*
X19347078Y-113680766D02*
X20113203Y-111575854D01*
X39942151Y-111040458D02*
X40708276Y-108935546D01*
X39716625Y-110958373D02*
X40482750Y-108853461D01*
X39829388Y-110999415D02*
X40595513Y-108894504D01*
X36293933Y-108520735D02*
X36904733Y-108743049D01*
X41499830Y-110415527D02*
X40889029Y-110193214D01*
X36521670Y-109795504D02*
X40505967Y-111245670D01*
X37287795Y-107690593D02*
X36521670Y-109795504D01*
X41272092Y-109140758D02*
X37287795Y-107690593D01*
X40505967Y-111245670D02*
X41272092Y-109140758D01*
X58407111Y-117761151D02*
X59173236Y-115656239D01*
X59173236Y-115656239D02*
X55188939Y-114206074D01*
X55188939Y-114206074D02*
X54422814Y-116310985D01*
X54422814Y-116310985D02*
X58407111Y-117761151D01*
X59400974Y-116931008D02*
X58790173Y-116708695D01*
X54195077Y-115036216D02*
X54805877Y-115258530D01*
X57730532Y-117514896D02*
X58496657Y-115409985D01*
X57617769Y-117473854D02*
X58383894Y-115368942D01*
X57843295Y-117555939D02*
X58609420Y-115451027D01*
X79566000Y-115326062D02*
X80332125Y-113221150D01*
X80332125Y-113221150D02*
X76347828Y-111770985D01*
X76347828Y-111770985D02*
X75581703Y-113875896D01*
X75581703Y-113875896D02*
X79566000Y-115326062D01*
X80559863Y-114495919D02*
X79949062Y-114273606D01*
X75353966Y-112601127D02*
X75964766Y-112823441D01*
X78889421Y-115079807D02*
X79655546Y-112974896D01*
X78776658Y-115038765D02*
X79542783Y-112933853D01*
X79002184Y-115120850D02*
X79768309Y-113015938D01*
X97467144Y-121841548D02*
X98233269Y-119736636D01*
X98233269Y-119736636D02*
X94248972Y-118286471D01*
X94248972Y-118286471D02*
X93482847Y-120391382D01*
X93482847Y-120391382D02*
X97467144Y-121841548D01*
X98461007Y-121011405D02*
X97850206Y-120789092D01*
X93255110Y-119116613D02*
X93865910Y-119338927D01*
X96790565Y-121595293D02*
X97556690Y-119490382D01*
X96677802Y-121554251D02*
X97443927Y-119449339D01*
X96903328Y-121636336D02*
X97669453Y-119531424D01*
X114499554Y-130743851D02*
X115265679Y-128638939D01*
X115265679Y-128638939D02*
X111281382Y-127188774D01*
X111281382Y-127188774D02*
X110515257Y-129293685D01*
X110515257Y-129293685D02*
X114499554Y-130743851D01*
X115493417Y-129913708D02*
X114882616Y-129691395D01*
X110287520Y-128018916D02*
X110898320Y-128241230D01*
X113822975Y-130497596D02*
X114589100Y-128392685D01*
X113710212Y-130456554D02*
X114476337Y-128351642D01*
X113935738Y-130538639D02*
X114701863Y-128433727D01*
X192975588Y-129298002D02*
X192209463Y-127193090D01*
X192209463Y-127193090D02*
X188225166Y-128643256D01*
X188225166Y-128643256D02*
X188991291Y-130748167D01*
X188991291Y-130748167D02*
X192975588Y-129298002D01*
X193203326Y-128023233D02*
X192592525Y-128245546D01*
X187997429Y-129918025D02*
X188608229Y-129695711D01*
X192299009Y-129544256D02*
X191532884Y-127439345D01*
X192186246Y-129585299D02*
X191420121Y-127480387D01*
X192411772Y-129503214D02*
X191645647Y-127398302D01*
X210008005Y-120395695D02*
X209241880Y-118290783D01*
X209241880Y-118290783D02*
X205257583Y-119740949D01*
X205257583Y-119740949D02*
X206023708Y-121845860D01*
X206023708Y-121845860D02*
X210008005Y-120395695D01*
X210235743Y-119120926D02*
X209624942Y-119343239D01*
X205029846Y-121015718D02*
X205640646Y-120793404D01*
X209331426Y-120641949D02*
X208565301Y-118537038D01*
X209218663Y-120682992D02*
X208452538Y-118578080D01*
X209444189Y-120600907D02*
X208678064Y-118495995D01*
X227909148Y-113880219D02*
X227143023Y-111775307D01*
X227143023Y-111775307D02*
X223158726Y-113225473D01*
X223158726Y-113225473D02*
X223924851Y-115330384D01*
X223924851Y-115330384D02*
X227909148Y-113880219D01*
X228136886Y-112605450D02*
X227526085Y-112827763D01*
X222930989Y-114500242D02*
X223541789Y-114277928D01*
X227232569Y-114126473D02*
X226466444Y-112021562D01*
X227119806Y-114167516D02*
X226353681Y-112062604D01*
X227345332Y-114085431D02*
X226579207Y-111980519D01*
X248504217Y-116520514D02*
X247738092Y-114415602D01*
X248278691Y-116602599D02*
X247512566Y-114497687D01*
X248391454Y-116561556D02*
X247625329Y-114456645D01*
X244089874Y-116935325D02*
X244700674Y-116713011D01*
X249295771Y-115040533D02*
X248684970Y-115262846D01*
X245083736Y-117765467D02*
X249068033Y-116315302D01*
X244317611Y-115660556D02*
X245083736Y-117765467D01*
X248301908Y-114210390D02*
X244317611Y-115660556D01*
X249068033Y-116315302D02*
X248301908Y-114210390D01*
X266941319Y-109723286D02*
X266175194Y-107618374D01*
X266175194Y-107618374D02*
X262190897Y-109068540D01*
X262190897Y-109068540D02*
X262957022Y-111173451D01*
X262957022Y-111173451D02*
X266941319Y-109723286D01*
X267169057Y-108448517D02*
X266558256Y-108670830D01*
X261963160Y-110343309D02*
X262573960Y-110120995D01*
X266264740Y-109969540D02*
X265498615Y-107864629D01*
X266151977Y-110010583D02*
X265385852Y-107905671D01*
X266377503Y-109928498D02*
X265611378Y-107823586D01*
X287536395Y-112363581D02*
X286770270Y-110258669D01*
X287310869Y-112445666D02*
X286544744Y-110340754D01*
X287423632Y-112404623D02*
X286657507Y-110299712D01*
X283122052Y-112778392D02*
X283732852Y-112556078D01*
X288327949Y-110883600D02*
X287717148Y-111105913D01*
X284115914Y-113608534D02*
X288100211Y-112158369D01*
X283349789Y-111503623D02*
X284115914Y-113608534D01*
X287334086Y-110053457D02*
X283349789Y-111503623D01*
X288100211Y-112158369D02*
X287334086Y-110053457D01*
X142173924Y-110407615D02*
X142940049Y-108302703D01*
X142940049Y-108302703D02*
X138955752Y-106852538D01*
X138955752Y-106852538D02*
X138189627Y-108957449D01*
X138189627Y-108957449D02*
X142173924Y-110407615D01*
X143167787Y-109577472D02*
X142556986Y-109355159D01*
X137961890Y-107682680D02*
X138572690Y-107904994D01*
X141497345Y-110161360D02*
X142263470Y-108056449D01*
X141384582Y-110120318D02*
X142150707Y-108015406D01*
X141610108Y-110202403D02*
X142376233Y-108097491D01*
X164737400Y-109166980D02*
X163971275Y-107062068D01*
X164511874Y-109249065D02*
X163745749Y-107144153D01*
X164624637Y-109208022D02*
X163858512Y-107103111D01*
X160323057Y-109581791D02*
X160933857Y-109359477D01*
X165528954Y-107686999D02*
X164918153Y-107909312D01*
X161316919Y-110411933D02*
X165301216Y-108961768D01*
X160550794Y-108307022D02*
X161316919Y-110411933D01*
X164535091Y-106856856D02*
X160550794Y-108307022D01*
X165301216Y-108961768D02*
X164535091Y-106856856D01*
X135658443Y-128308763D02*
X136424568Y-126203851D01*
X136424568Y-126203851D02*
X132440271Y-124753686D01*
X132440271Y-124753686D02*
X131674146Y-126858597D01*
X131674146Y-126858597D02*
X135658443Y-128308763D01*
X136652306Y-127478620D02*
X136041505Y-127256307D01*
X131446409Y-125583828D02*
X132057209Y-125806142D01*
X134981864Y-128062508D02*
X135747989Y-125957597D01*
X134869101Y-128021466D02*
X135635226Y-125916554D01*
X135094627Y-128103551D02*
X135860752Y-125998639D01*
X147477614Y-140001605D02*
X145893695Y-138417686D01*
X145893695Y-138417686D02*
X142895562Y-141415819D01*
X142895562Y-141415819D02*
X144479481Y-142999738D01*
X144479481Y-142999738D02*
X147477614Y-140001605D01*
X147145274Y-138750026D02*
X146685655Y-139209645D01*
X143227902Y-142667398D02*
X143687522Y-142207778D01*
X146968497Y-140510722D02*
X145384578Y-138926803D01*
X146883644Y-140595575D02*
X145299725Y-139011656D01*
X147053350Y-140425869D02*
X145469431Y-138841950D01*
X171816702Y-126862918D02*
X171050577Y-124758006D01*
X171050577Y-124758006D02*
X167066280Y-126208172D01*
X167066280Y-126208172D02*
X167832405Y-128313083D01*
X167832405Y-128313083D02*
X171816702Y-126862918D01*
X172044440Y-125588149D02*
X171433639Y-125810462D01*
X166838543Y-127482941D02*
X167449343Y-127260627D01*
X171140123Y-127109172D02*
X170373998Y-125004261D01*
X171027360Y-127150215D02*
X170261235Y-125045303D01*
X171252886Y-127068130D02*
X170486761Y-124963218D01*
D11*
X64157574Y-60531570D02*
X63815554Y-61471262D01*
X58429600Y-73345246D02*
X59369292Y-73687266D01*
X64157574Y-60531570D02*
X63217882Y-60189550D01*
X59711312Y-72747574D02*
X59369292Y-73687266D01*
X46213596Y-68898984D02*
X46555616Y-67959292D01*
X51941570Y-56085308D02*
X51001878Y-55743288D01*
X46213596Y-68898984D02*
X47153288Y-69241004D01*
X50659858Y-56682980D02*
X51001878Y-55743288D01*
X68561007Y-63198453D02*
X68903027Y-62258761D01*
X64114745Y-75414457D02*
X65054437Y-75756477D01*
X69842719Y-62600781D02*
X68903027Y-62258761D01*
X64114745Y-75414457D02*
X64456765Y-74474765D01*
X77612461Y-79263047D02*
X77270441Y-80202739D01*
X82058723Y-67047043D02*
X81119031Y-66705023D01*
X76330749Y-79860719D02*
X77270441Y-80202739D01*
X82058723Y-67047043D02*
X81716703Y-67986735D01*
X103217613Y-64611954D02*
X102875593Y-65551646D01*
X97489639Y-77425630D02*
X98429331Y-77767650D01*
X103217613Y-64611954D02*
X102277921Y-64269934D01*
X98771351Y-76827958D02*
X98429331Y-77767650D01*
X85273635Y-72979368D02*
X85615655Y-72039676D01*
X91001609Y-60165692D02*
X90061917Y-59823672D01*
X85273635Y-72979368D02*
X86213327Y-73321388D01*
X89719897Y-60763364D02*
X90061917Y-59823672D01*
X107621039Y-67278847D02*
X107963059Y-66339155D01*
X103174777Y-79494851D02*
X104114469Y-79836871D01*
X108902751Y-66681175D02*
X107963059Y-66339155D01*
X103174777Y-79494851D02*
X103516797Y-78555159D01*
X116672493Y-83343441D02*
X116330473Y-84283133D01*
X121118755Y-71127437D02*
X120179063Y-70785417D01*
X115390781Y-83941113D02*
X116330473Y-84283133D01*
X121118755Y-71127437D02*
X120776735Y-72067129D01*
X138151167Y-80029747D02*
X137809147Y-80969439D01*
X132423193Y-92843423D02*
X133362885Y-93185443D01*
X138151167Y-80029747D02*
X137211475Y-79687727D01*
X133704905Y-92245751D02*
X133362885Y-93185443D01*
X120207189Y-88397161D02*
X120549209Y-87457469D01*
X125935163Y-75583485D02*
X124995471Y-75241465D01*
X120207189Y-88397161D02*
X121146881Y-88739181D01*
X124653451Y-76181157D02*
X124995471Y-75241465D01*
X178495374Y-75245783D02*
X178837394Y-76185475D01*
X182343964Y-88743499D02*
X183283656Y-88401479D01*
X178495374Y-75245783D02*
X177555682Y-75587803D01*
X182941636Y-87461787D02*
X183283656Y-88401479D01*
X170127960Y-93189761D02*
X169785940Y-92250069D01*
X166279370Y-79692045D02*
X165339678Y-80034065D01*
X170127960Y-93189761D02*
X171067652Y-92847741D01*
X165681698Y-80973757D02*
X165339678Y-80034065D01*
X195527790Y-66343475D02*
X195869810Y-67283167D01*
X199376380Y-79841191D02*
X200316072Y-79499171D01*
X195527790Y-66343475D02*
X194588098Y-66685495D01*
X199974052Y-78559479D02*
X200316072Y-79499171D01*
X187160376Y-84287453D02*
X186818356Y-83347761D01*
X183311786Y-70789737D02*
X182372094Y-71131757D01*
X187160376Y-84287453D02*
X188100068Y-83945433D01*
X182714114Y-72071449D02*
X182372094Y-71131757D01*
X200615258Y-65555971D02*
X200273238Y-64616279D01*
X205061520Y-77771975D02*
X206001212Y-77429955D01*
X201212930Y-64274259D02*
X200273238Y-64616279D01*
X205061520Y-77771975D02*
X204719500Y-76832283D01*
X217875196Y-72044001D02*
X218217216Y-72983693D01*
X213428934Y-59827997D02*
X212489242Y-60170017D01*
X217277524Y-73325713D02*
X218217216Y-72983693D01*
X213428934Y-59827997D02*
X213770954Y-60767689D01*
X221774139Y-67991060D02*
X221432119Y-67051368D01*
X226220401Y-80207064D02*
X227160093Y-79865044D01*
X222371811Y-66709348D02*
X221432119Y-67051368D01*
X226220401Y-80207064D02*
X225878381Y-79267372D01*
X239034077Y-74479090D02*
X239376097Y-75418782D01*
X234587815Y-62263086D02*
X233648123Y-62605106D01*
X238436405Y-75760802D02*
X239376097Y-75418782D01*
X234587815Y-62263086D02*
X234929835Y-63202778D01*
X252488965Y-55747602D02*
X252830985Y-56687294D01*
X256337555Y-69245318D02*
X257277247Y-68903298D01*
X252488965Y-55747602D02*
X251549273Y-56089622D01*
X256935227Y-67963606D02*
X257277247Y-68903298D01*
X244121551Y-73691580D02*
X243779531Y-72751888D01*
X240272961Y-60193864D02*
X239333269Y-60535884D01*
X244121551Y-73691580D02*
X245061243Y-73349560D01*
X239675289Y-61475576D02*
X239333269Y-60535884D01*
X273647850Y-58182686D02*
X273989870Y-59122378D01*
X277496440Y-71680402D02*
X278436132Y-71338382D01*
X273647850Y-58182686D02*
X272708158Y-58524706D01*
X278094112Y-70398690D02*
X278436132Y-71338382D01*
X265280436Y-76126664D02*
X264938416Y-75186972D01*
X261431846Y-62628948D02*
X260492154Y-62970968D01*
X265280436Y-76126664D02*
X266220128Y-75784644D01*
X260834174Y-63910660D02*
X260492154Y-62970968D01*
X22985499Y-77019210D02*
X23327519Y-76079518D01*
X18539237Y-89235214D02*
X19478929Y-89577234D01*
X24267211Y-76421538D02*
X23327519Y-76079518D01*
X18539237Y-89235214D02*
X18881257Y-88295522D01*
X32036953Y-93083804D02*
X31694933Y-94023496D01*
X36483215Y-80867800D02*
X35543523Y-80525780D01*
X30755241Y-93681476D02*
X31694933Y-94023496D01*
X36483215Y-80867800D02*
X36141195Y-81807492D01*
X57642095Y-78432712D02*
X57300075Y-79372404D01*
X51914121Y-91246388D02*
X52853813Y-91588408D01*
X57642095Y-78432712D02*
X56702403Y-78090692D01*
X53195833Y-90648716D02*
X52853813Y-91588408D01*
X39698117Y-86800126D02*
X40040137Y-85860434D01*
X45426091Y-73986450D02*
X44486399Y-73644430D01*
X39698117Y-86800126D02*
X40637809Y-87142146D01*
X44144379Y-74584122D02*
X44486399Y-73644430D01*
X62045524Y-81099598D02*
X62387544Y-80159906D01*
X57599262Y-93315602D02*
X58538954Y-93657622D01*
X63327236Y-80501926D02*
X62387544Y-80159906D01*
X57599262Y-93315602D02*
X57941282Y-92375910D01*
X71096978Y-97164192D02*
X70754958Y-98103884D01*
X75543240Y-84948188D02*
X74603548Y-84606168D01*
X69815266Y-97761864D02*
X70754958Y-98103884D01*
X75543240Y-84948188D02*
X75201220Y-85887880D01*
X96702127Y-82513103D02*
X96360107Y-83452795D01*
X90974153Y-95326779D02*
X91913845Y-95668799D01*
X96702127Y-82513103D02*
X95762435Y-82171083D01*
X92255865Y-94729107D02*
X91913845Y-95668799D01*
X78758149Y-90880517D02*
X79100169Y-89940825D01*
X84486123Y-78066841D02*
X83546431Y-77724821D01*
X78758149Y-90880517D02*
X79697841Y-91222537D01*
X83204411Y-78664513D02*
X83546431Y-77724821D01*
X114603275Y-89028587D02*
X114261255Y-89968279D01*
X108875301Y-101842263D02*
X109814993Y-102184283D01*
X114603275Y-89028587D02*
X113663583Y-88686567D01*
X110157013Y-101244591D02*
X109814993Y-102184283D01*
X96659297Y-97396001D02*
X97001317Y-96456309D01*
X102387271Y-84582325D02*
X101447579Y-84240305D01*
X96659297Y-97396001D02*
X97598989Y-97738021D01*
X101105559Y-85179997D02*
X101447579Y-84240305D01*
X118137971Y-94082301D02*
X118479991Y-93142609D01*
X113691709Y-106298305D02*
X114631401Y-106640325D01*
X119419683Y-93484629D02*
X118479991Y-93142609D01*
X113691709Y-106298305D02*
X114033729Y-105358613D01*
X127189425Y-110146895D02*
X126847405Y-111086587D01*
X131635687Y-97930891D02*
X130695995Y-97588871D01*
X125907713Y-110744567D02*
X126847405Y-111086587D01*
X131635687Y-97930891D02*
X131293667Y-98870583D01*
X172197182Y-98874897D02*
X171855162Y-97935205D01*
X176643444Y-111090901D02*
X177583136Y-110748881D01*
X172794854Y-97593185D02*
X171855162Y-97935205D01*
X176643444Y-111090901D02*
X176301424Y-110151209D01*
X189457120Y-105362927D02*
X189799140Y-106302619D01*
X185010858Y-93146923D02*
X184071166Y-93488943D01*
X188859448Y-106644639D02*
X189799140Y-106302619D01*
X185010858Y-93146923D02*
X185352878Y-94086615D01*
X202043274Y-84244621D02*
X202385294Y-85184313D01*
X205891864Y-97742337D02*
X206831556Y-97400317D01*
X202043274Y-84244621D02*
X201103582Y-84586641D01*
X206489536Y-96460625D02*
X206831556Y-97400317D01*
X193675860Y-102188599D02*
X193333840Y-101248907D01*
X189827270Y-88690883D02*
X188887578Y-89032903D01*
X193675860Y-102188599D02*
X194615552Y-101846579D01*
X189229598Y-89972595D02*
X188887578Y-89032903D01*
X207130744Y-83457115D02*
X206788724Y-82517423D01*
X211577006Y-95673119D02*
X212516698Y-95331099D01*
X207728416Y-82175403D02*
X206788724Y-82517423D01*
X211577006Y-95673119D02*
X211234986Y-94733427D01*
X224390682Y-89945145D02*
X224732702Y-90884837D01*
X219944420Y-77729141D02*
X219004728Y-78071161D01*
X223793010Y-91226857D02*
X224732702Y-90884837D01*
X219944420Y-77729141D02*
X220286440Y-78668833D01*
X228289623Y-85892201D02*
X227947603Y-84952509D01*
X232735885Y-98108205D02*
X233675577Y-97766185D01*
X228887295Y-84610489D02*
X227947603Y-84952509D01*
X232735885Y-98108205D02*
X232393865Y-97168513D01*
X245549561Y-92380231D02*
X245891581Y-93319923D01*
X241103299Y-80164227D02*
X240163607Y-80506247D01*
X244951889Y-93661943D02*
X245891581Y-93319923D01*
X241103299Y-80164227D02*
X241445319Y-81103919D01*
X259004453Y-73648754D02*
X259346473Y-74588446D01*
X262853043Y-87146470D02*
X263792735Y-86804450D01*
X259004453Y-73648754D02*
X258064761Y-73990774D01*
X263450715Y-85864758D02*
X263792735Y-86804450D01*
X250637039Y-91592732D02*
X250295019Y-90653040D01*
X246788449Y-78095016D02*
X245848757Y-78437036D01*
X250637039Y-91592732D02*
X251576731Y-91250712D01*
X246190777Y-79376728D02*
X245848757Y-78437036D01*
X280163335Y-76083836D02*
X280505355Y-77023528D01*
X284011925Y-89581552D02*
X284951617Y-89239532D01*
X280163335Y-76083836D02*
X279223643Y-76425856D01*
X284609597Y-88299840D02*
X284951617Y-89239532D01*
X271795921Y-94027814D02*
X271453901Y-93088122D01*
X267947331Y-80530098D02*
X267007639Y-80872118D01*
X271795921Y-94027814D02*
X272735613Y-93685794D01*
X267349659Y-81811810D02*
X267007639Y-80872118D01*
X16470015Y-94920352D02*
X16812035Y-93980660D01*
X12023753Y-107136356D02*
X12963445Y-107478376D01*
X17751727Y-94322680D02*
X16812035Y-93980660D01*
X12023753Y-107136356D02*
X12365773Y-106196664D01*
X25521469Y-110984946D02*
X25179449Y-111924638D01*
X29967731Y-98768942D02*
X29028039Y-98426922D01*
X24239757Y-111582618D02*
X25179449Y-111924638D01*
X29967731Y-98768942D02*
X29625711Y-99708634D01*
X51126613Y-96333851D02*
X50784593Y-97273543D01*
X45398639Y-109147527D02*
X46338331Y-109489547D01*
X51126613Y-96333851D02*
X50186921Y-95991831D01*
X46680351Y-108549855D02*
X46338331Y-109489547D01*
X33182635Y-104701265D02*
X33524655Y-103761573D01*
X38910609Y-91887589D02*
X37970917Y-91545569D01*
X33182635Y-104701265D02*
X34122327Y-105043285D01*
X37628897Y-92485261D02*
X37970917Y-91545569D01*
X69027760Y-102849331D02*
X68685740Y-103789023D01*
X63299786Y-115663007D02*
X64239478Y-116005027D01*
X69027760Y-102849331D02*
X68088068Y-102507311D01*
X64581498Y-115065335D02*
X64239478Y-116005027D01*
X51083782Y-111216745D02*
X51425802Y-110277053D01*
X56811756Y-98403069D02*
X55872064Y-98061049D01*
X51083782Y-111216745D02*
X52023474Y-111558765D01*
X55530044Y-99000741D02*
X55872064Y-98061049D01*
X76688937Y-96565658D02*
X77030957Y-95625966D01*
X72242675Y-108781662D02*
X73182367Y-109123682D01*
X77970649Y-95967986D02*
X77030957Y-95625966D01*
X72242675Y-108781662D02*
X72584695Y-107841970D01*
X85740391Y-112630252D02*
X85398371Y-113569944D01*
X90186653Y-100414248D02*
X89246961Y-100072228D01*
X84458679Y-113227924D02*
X85398371Y-113569944D01*
X90186653Y-100414248D02*
X89844633Y-101353940D01*
X108087790Y-106929734D02*
X107745770Y-107869426D01*
X102359816Y-119743410D02*
X103299508Y-120085430D01*
X108087790Y-106929734D02*
X107148098Y-106587714D01*
X103641528Y-119145738D02*
X103299508Y-120085430D01*
X90143812Y-115297148D02*
X90485832Y-114357456D01*
X95871786Y-102483472D02*
X94932094Y-102141452D01*
X90143812Y-115297148D02*
X91083504Y-115639168D01*
X94590074Y-103081144D02*
X94932094Y-102141452D01*
X111622481Y-111983442D02*
X111964501Y-111043750D01*
X107176219Y-124199446D02*
X108115911Y-124541466D01*
X112904193Y-111385770D02*
X111964501Y-111043750D01*
X107176219Y-124199446D02*
X107518239Y-123259754D01*
X120673935Y-128048036D02*
X120331915Y-128987728D01*
X125120197Y-115832032D02*
X124180505Y-115490012D01*
X119392223Y-128645708D02*
X120331915Y-128987728D01*
X125120197Y-115832032D02*
X124778177Y-116771724D01*
X178712669Y-116776041D02*
X178370649Y-115836349D01*
X183158931Y-128992045D02*
X184098623Y-128650025D01*
X179310341Y-115494329D02*
X178370649Y-115836349D01*
X183158931Y-128992045D02*
X182816911Y-128052353D01*
X195972607Y-123264071D02*
X196314627Y-124203763D01*
X191526345Y-111048067D02*
X190586653Y-111390087D01*
X195374935Y-124545783D02*
X196314627Y-124203763D01*
X191526345Y-111048067D02*
X191868365Y-111987759D01*
X195745087Y-107873741D02*
X195403067Y-106934049D01*
X200191349Y-120089745D02*
X201131041Y-119747725D01*
X196342759Y-106592029D02*
X195403067Y-106934049D01*
X200191349Y-120089745D02*
X199849329Y-119150053D01*
X213005025Y-114361771D02*
X213347045Y-115301463D01*
X208558763Y-102145767D02*
X207619071Y-102487787D01*
X212407353Y-115643483D02*
X213347045Y-115301463D01*
X208558763Y-102145767D02*
X208900783Y-103085459D01*
X226459905Y-95630288D02*
X226801925Y-96569980D01*
X230308495Y-109128004D02*
X231248187Y-108785984D01*
X226459905Y-95630288D02*
X225520213Y-95972308D01*
X230906167Y-107846292D02*
X231248187Y-108785984D01*
X218092491Y-113574266D02*
X217750471Y-112634574D01*
X214243901Y-100076550D02*
X213304209Y-100418570D01*
X218092491Y-113574266D02*
X219032183Y-113232246D01*
X213646229Y-101358262D02*
X213304209Y-100418570D01*
X247618788Y-98065371D02*
X247960808Y-99005063D01*
X251467378Y-111563087D02*
X252407070Y-111221067D01*
X247618788Y-98065371D02*
X246679096Y-98407391D01*
X252065050Y-110281375D02*
X252407070Y-111221067D01*
X239251374Y-116009349D02*
X238909354Y-115069657D01*
X235402784Y-102511633D02*
X234463092Y-102853653D01*
X239251374Y-116009349D02*
X240191066Y-115667329D01*
X234805112Y-103793345D02*
X234463092Y-102853653D01*
X252706261Y-97277860D02*
X252364241Y-96338168D01*
X257152523Y-109493864D02*
X258092215Y-109151844D01*
X253303933Y-95996148D02*
X252364241Y-96338168D01*
X257152523Y-109493864D02*
X256810503Y-108554172D01*
X269966199Y-103765890D02*
X270308219Y-104705582D01*
X265519937Y-91549886D02*
X264580245Y-91891906D01*
X269368527Y-105047602D02*
X270308219Y-104705582D01*
X265519937Y-91549886D02*
X265861957Y-92489578D01*
X273865146Y-99712950D02*
X273523126Y-98773258D01*
X278311408Y-111928954D02*
X279251100Y-111586934D01*
X274462818Y-98431238D02*
X273523126Y-98773258D01*
X278311408Y-111928954D02*
X277969388Y-110989262D01*
X291125084Y-106200980D02*
X291467104Y-107140672D01*
X286678822Y-93984976D02*
X285739130Y-94326996D01*
X290527412Y-107482692D02*
X291467104Y-107140672D01*
X286678822Y-93984976D02*
X287020842Y-94924668D01*
X9954527Y-112821493D02*
X10296547Y-111881801D01*
X5508265Y-125037497D02*
X6447957Y-125379517D01*
X11236239Y-112223821D02*
X10296547Y-111881801D01*
X5508265Y-125037497D02*
X5850285Y-124097805D01*
X19005981Y-128886087D02*
X18663961Y-129825779D01*
X23452243Y-116670083D02*
X22512551Y-116328063D01*
X17724269Y-129483759D02*
X18663961Y-129825779D01*
X23452243Y-116670083D02*
X23110223Y-117609775D01*
X31113413Y-110386407D02*
X31455433Y-109446715D01*
X26667151Y-122602411D02*
X27606843Y-122944431D01*
X32395125Y-109788735D02*
X31455433Y-109446715D01*
X26667151Y-122602411D02*
X27009171Y-121662719D01*
X40164867Y-126451001D02*
X39822847Y-127390693D01*
X44611129Y-114234997D02*
X43671437Y-113892977D01*
X38883155Y-127048673D02*
X39822847Y-127390693D01*
X44611129Y-114234997D02*
X44269109Y-115174689D01*
X62512277Y-120750485D02*
X62170257Y-121690177D01*
X56784303Y-133564161D02*
X57723995Y-133906181D01*
X62512277Y-120750485D02*
X61572585Y-120408465D01*
X58066015Y-132966489D02*
X57723995Y-133906181D01*
X44568299Y-129117899D02*
X44910319Y-128178207D01*
X50296273Y-116304223D02*
X49356581Y-115962203D01*
X44568299Y-129117899D02*
X45507991Y-129459919D01*
X49014561Y-116901895D02*
X49356581Y-115962203D01*
X70173444Y-114466801D02*
X70515464Y-113527109D01*
X65727182Y-126682805D02*
X66666874Y-127024825D01*
X71455156Y-113869129D02*
X70515464Y-113527109D01*
X65727182Y-126682805D02*
X66069202Y-125743113D01*
X79224898Y-130531395D02*
X78882878Y-131471087D01*
X83671160Y-118315391D02*
X82731468Y-117973371D01*
X77943186Y-131129067D02*
X78882878Y-131471087D01*
X83671160Y-118315391D02*
X83329140Y-119255083D01*
X101572307Y-124830875D02*
X101230287Y-125770567D01*
X95844333Y-137644551D02*
X96784025Y-137986571D01*
X101572307Y-124830875D02*
X100632615Y-124488855D01*
X97126045Y-137046879D02*
X96784025Y-137986571D01*
X83628329Y-133198289D02*
X83970349Y-132258597D01*
X89356303Y-120384613D02*
X88416611Y-120042593D01*
X83628329Y-133198289D02*
X84568021Y-133540309D01*
X88074591Y-120982285D02*
X88416611Y-120042593D01*
X105107007Y-129884588D02*
X105449027Y-128944896D01*
X100660745Y-142100592D02*
X101600437Y-142442612D01*
X106388719Y-129286916D02*
X105449027Y-128944896D01*
X100660745Y-142100592D02*
X101002765Y-141160900D01*
X114158461Y-145949182D02*
X113816441Y-146888874D01*
X118604723Y-133733178D02*
X117665031Y-133391158D01*
X112876749Y-146546854D02*
X113816441Y-146888874D01*
X118604723Y-133733178D02*
X118262703Y-134672870D01*
X185228148Y-134677187D02*
X184886128Y-133737495D01*
X189674410Y-146893191D02*
X190614102Y-146551171D01*
X185825820Y-133395475D02*
X184886128Y-133737495D01*
X189674410Y-146893191D02*
X189332390Y-145953499D01*
X202488086Y-141165217D02*
X202830106Y-142104909D01*
X198041824Y-128949213D02*
X197102132Y-129291233D01*
X201890414Y-142446929D02*
X202830106Y-142104909D01*
X198041824Y-128949213D02*
X198383844Y-129888905D01*
X202260561Y-125774888D02*
X201918541Y-124835196D01*
X206706823Y-137990892D02*
X207646515Y-137648872D01*
X202858233Y-124493176D02*
X201918541Y-124835196D01*
X206706823Y-137990892D02*
X206364803Y-137051200D01*
X219520499Y-132262918D02*
X219862519Y-133202610D01*
X215074237Y-120046914D02*
X214134545Y-120388934D01*
X218922827Y-133544630D02*
X219862519Y-133202610D01*
X215074237Y-120046914D02*
X215416257Y-120986606D01*
X232975383Y-113531423D02*
X233317403Y-114471115D01*
X236823973Y-127029139D02*
X237763665Y-126687119D01*
X232975383Y-113531423D02*
X232035691Y-113873443D01*
X237421645Y-125747427D02*
X237763665Y-126687119D01*
X224607969Y-131475401D02*
X224265949Y-130535709D01*
X220759379Y-117977685D02*
X219819687Y-118319705D01*
X224607969Y-131475401D02*
X225547661Y-131133381D01*
X220161707Y-119259397D02*
X219819687Y-118319705D01*
X241320595Y-121694483D02*
X240978575Y-120754791D01*
X245766857Y-133910487D02*
X246706549Y-133568467D01*
X241918267Y-120412771D02*
X240978575Y-120754791D01*
X245766857Y-133910487D02*
X245424837Y-132970795D01*
X258580533Y-128182513D02*
X258922553Y-129122205D01*
X254134271Y-115966509D02*
X253194579Y-116308529D01*
X257982861Y-129464225D02*
X258922553Y-129122205D01*
X254134271Y-115966509D02*
X254476291Y-116906201D01*
X259221745Y-115179004D02*
X258879725Y-114239312D01*
X263668007Y-127395008D02*
X264607699Y-127052988D01*
X259819417Y-113897292D02*
X258879725Y-114239312D01*
X263668007Y-127395008D02*
X263325987Y-126455316D01*
X276481683Y-121667034D02*
X276823703Y-122606726D01*
X272035421Y-109451030D02*
X271095729Y-109793050D01*
X275884011Y-122948746D02*
X276823703Y-122606726D01*
X272035421Y-109451030D02*
X272377441Y-110390722D01*
X280380625Y-117614092D02*
X280038605Y-116674400D01*
X284826887Y-129830096D02*
X285766579Y-129488076D01*
X280978297Y-116332380D02*
X280038605Y-116674400D01*
X284826887Y-129830096D02*
X284484867Y-128890404D01*
X297640563Y-124102122D02*
X297982583Y-125041814D01*
X293194301Y-111886118D02*
X292254609Y-112228138D01*
X297042891Y-125383834D02*
X297982583Y-125041814D01*
X293194301Y-111886118D02*
X293536321Y-112825810D01*
X132781374Y-109548353D02*
X133123394Y-108608661D01*
X128335112Y-121764357D02*
X129274804Y-122106377D01*
X134063086Y-108950681D02*
X133123394Y-108608661D01*
X128335112Y-121764357D02*
X128677132Y-120824665D01*
X141832828Y-125612947D02*
X141490808Y-126552639D01*
X146279090Y-113396943D02*
X145339398Y-113054923D01*
X140551116Y-126210619D02*
X141490808Y-126552639D01*
X146279090Y-113396943D02*
X145937070Y-114336635D01*
X157553787Y-114340954D02*
X157211767Y-113401262D01*
X162000049Y-126556958D02*
X162939741Y-126214938D01*
X158151459Y-113059242D02*
X157211767Y-113401262D01*
X162000049Y-126556958D02*
X161658029Y-125617266D01*
X174813725Y-120828984D02*
X175155745Y-121768676D01*
X170367463Y-108612980D02*
X169427771Y-108955000D01*
X174216053Y-122110696D02*
X175155745Y-121768676D01*
X170367463Y-108612980D02*
X170709483Y-109552672D01*
X139763606Y-131298086D02*
X139421586Y-132237778D01*
X134035632Y-144111762D02*
X134975324Y-144453782D01*
X139763606Y-131298086D02*
X138823914Y-130956066D01*
X135317344Y-143514090D02*
X134975324Y-144453782D01*
X121819628Y-139665500D02*
X122161648Y-138725808D01*
X127547602Y-126851824D02*
X126607910Y-126509804D01*
X121819628Y-139665500D02*
X122759320Y-140007520D01*
X126265890Y-127449496D02*
X126607910Y-126509804D01*
X142549390Y-147941007D02*
X141842283Y-147233900D01*
X151741778Y-157133395D02*
X152448885Y-156426288D01*
X142549390Y-146526793D02*
X141842283Y-147233900D01*
X151741778Y-157133395D02*
X151034671Y-156426288D01*
X160934166Y-146526793D02*
X161641273Y-147233900D01*
X151741778Y-137334405D02*
X151034671Y-138041512D01*
X160934166Y-147941007D02*
X161641273Y-147233900D01*
X151741778Y-137334405D02*
X152448885Y-138041512D01*
D12*
X169791776Y-57778528D02*
X165291776Y-57778528D01*
X171041776Y-61778528D02*
X171041776Y-60278528D01*
X165291776Y-64278528D02*
X169791776Y-64278528D01*
X164041776Y-60278528D02*
X164041776Y-61778528D01*
D11*
X35458720Y-59317515D02*
X35576675Y-59411123D01*
X35800412Y-59492556D01*
X35906193Y-59480382D01*
X35967227Y-59451922D01*
X36044548Y-59378714D01*
X36077121Y-59289219D01*
X36064947Y-59183438D01*
X36036486Y-59122404D01*
X35963278Y-59045083D01*
X35800576Y-58935189D01*
X35727368Y-58857869D01*
X35698908Y-58796835D01*
X35686734Y-58691054D01*
X35719307Y-58601559D01*
X35796628Y-58528351D01*
X35857662Y-58499891D01*
X35963443Y-58487717D01*
X36187179Y-58569150D01*
X36305134Y-58662757D01*
X36634652Y-58732017D02*
X36516368Y-59753143D01*
X36939657Y-59147081D01*
X36874346Y-59883436D01*
X37440103Y-59025177D01*
X37948281Y-60274316D02*
X37411313Y-60078876D01*
X37679797Y-60176596D02*
X38021817Y-59236904D01*
X37883463Y-59338572D01*
X37761395Y-59395493D01*
X37655613Y-59407667D01*
X168313899Y-128728196D02*
X168464428Y-128724083D01*
X168688164Y-128642650D01*
X168761372Y-128565329D01*
X168789832Y-128504295D01*
X168802006Y-128398514D01*
X168769433Y-128309019D01*
X168692112Y-128235812D01*
X168631078Y-128207351D01*
X168525297Y-128195177D01*
X168330021Y-128215576D01*
X168224240Y-128203403D01*
X168163206Y-128174942D01*
X168085886Y-128101734D01*
X168053312Y-128012240D01*
X168065486Y-127906458D01*
X168093947Y-127845424D01*
X168167155Y-127768104D01*
X168390891Y-127686670D01*
X168541419Y-127682558D01*
X168838364Y-127523804D02*
X169404120Y-128382063D01*
X169338809Y-127645707D01*
X169762098Y-128251770D01*
X169643814Y-127230644D01*
X170449265Y-126937483D02*
X170001793Y-127100350D01*
X170119912Y-127564110D01*
X170148373Y-127503076D01*
X170221581Y-127425755D01*
X170445317Y-127344322D01*
X170551098Y-127356496D01*
X170612132Y-127384956D01*
X170689453Y-127458164D01*
X170770886Y-127681900D01*
X170758712Y-127787682D01*
X170730252Y-127848715D01*
X170657044Y-127926036D01*
X170433307Y-128007469D01*
X170327526Y-127995296D01*
X170266492Y-127966835D01*
X170807243Y-126807190D02*
X171388958Y-126595463D01*
X171206020Y-127067448D01*
X171340262Y-127018588D01*
X171446043Y-127030762D01*
X171507077Y-127059223D01*
X171584398Y-127132431D01*
X171665831Y-127356167D01*
X171653657Y-127461948D01*
X171625197Y-127522982D01*
X171551989Y-127600303D01*
X171283505Y-127698023D01*
X171177724Y-127685849D01*
X171116690Y-127657388D01*
X39848205Y-61529854D02*
X40190225Y-60590161D01*
X40385172Y-61725294D02*
X40177887Y-61041747D01*
X40727192Y-60785601D02*
X39994785Y-61127128D01*
X61007090Y-59094763D02*
X61349110Y-58155070D01*
X61544057Y-59290203D02*
X61336772Y-58606656D01*
X61886077Y-58350510D02*
X61153670Y-58692037D01*
X78908237Y-65610249D02*
X79250257Y-64670556D01*
X79445204Y-65805689D02*
X79237919Y-65122142D01*
X79787224Y-64865996D02*
X79054817Y-65207523D01*
X100067123Y-63175159D02*
X100409143Y-62235466D01*
X100604090Y-63370599D02*
X100396805Y-62687052D01*
X100946110Y-62430906D02*
X100213703Y-62772433D01*
X117968269Y-69690642D02*
X118310289Y-68750949D01*
X118505236Y-69886082D02*
X118297951Y-69202535D01*
X118847256Y-68946389D02*
X118114849Y-69287916D01*
X135000679Y-78592949D02*
X135342699Y-77653256D01*
X135537646Y-78788389D02*
X135330361Y-78104842D01*
X135879666Y-77848696D02*
X135147259Y-78190223D01*
X175158408Y-76170225D02*
X174816388Y-75230533D01*
X175695375Y-75974785D02*
X175097210Y-75584398D01*
X175353355Y-75035093D02*
X175011828Y-75767500D01*
X192190821Y-67267923D02*
X191848801Y-66328231D01*
X192727788Y-67072483D02*
X192129623Y-66682096D01*
X192385768Y-66132791D02*
X192044241Y-66865198D01*
X210091960Y-60752436D02*
X209749940Y-59812744D01*
X210628927Y-60556996D02*
X210030762Y-60166609D01*
X210286907Y-59617304D02*
X209945380Y-60349711D01*
X231250843Y-63187525D02*
X230908823Y-62247833D01*
X231787810Y-62992085D02*
X231189645Y-62601698D01*
X231445790Y-62052393D02*
X231104263Y-62784800D01*
X249151996Y-56672034D02*
X248809976Y-55732342D01*
X249688963Y-56476594D02*
X249090798Y-56086207D01*
X249346943Y-55536902D02*
X249005416Y-56269309D01*
X270283026Y-59030587D02*
X269941006Y-58090895D01*
X270819993Y-58835147D02*
X270221828Y-58444760D01*
X270477973Y-57895455D02*
X270136446Y-58627862D01*
X33332722Y-79430992D02*
X33674742Y-78491299D01*
X33869689Y-79626432D02*
X33662404Y-78942885D01*
X34211709Y-78686739D02*
X33479302Y-79028266D01*
X54491606Y-76995911D02*
X54833626Y-76056218D01*
X55028573Y-77191351D02*
X54821288Y-76507804D01*
X55370593Y-76251658D02*
X54638186Y-76593185D01*
X72392750Y-83511390D02*
X72734770Y-82571697D01*
X72929717Y-83706830D02*
X72722432Y-83023283D01*
X73271737Y-82767137D02*
X72539330Y-83108664D01*
X93551635Y-81076304D02*
X93893655Y-80136611D01*
X94088602Y-81271744D02*
X93881317Y-80588197D01*
X94430622Y-80332051D02*
X93698215Y-80673578D01*
X111452783Y-87591787D02*
X111794803Y-86652094D01*
X111989750Y-87787227D02*
X111782465Y-87103680D01*
X112331770Y-86847534D02*
X111599363Y-87189061D01*
X128485191Y-96494085D02*
X128827211Y-95554392D01*
X129022158Y-96689525D02*
X128814873Y-96005978D01*
X129364178Y-95749832D02*
X128631771Y-96091359D01*
X181673890Y-94071366D02*
X181331870Y-93131674D01*
X182210857Y-93875926D02*
X181612692Y-93485539D01*
X181868837Y-92936234D02*
X181527310Y-93668641D01*
X198706306Y-85169062D02*
X198364286Y-84229370D01*
X199243273Y-84973622D02*
X198645108Y-84583235D01*
X198901253Y-84033930D02*
X198559726Y-84766337D01*
X216607446Y-78653580D02*
X216265426Y-77713888D01*
X217144413Y-78458140D02*
X216546248Y-78067753D01*
X216802393Y-77518448D02*
X216460866Y-78250855D01*
X237766332Y-81088669D02*
X237424312Y-80148977D01*
X238303299Y-80893229D02*
X237705134Y-80502842D01*
X237961279Y-79953537D02*
X237619752Y-80685944D01*
X255667478Y-74573186D02*
X255325458Y-73633494D01*
X256204445Y-74377746D02*
X255606280Y-73987359D01*
X255862425Y-73438054D02*
X255520898Y-74170461D01*
X276826366Y-77008280D02*
X276484346Y-76068588D01*
X277363333Y-76812840D02*
X276765168Y-76422453D01*
X277021313Y-75873148D02*
X276679786Y-76605555D01*
X27413937Y-97549321D02*
X27755957Y-96609628D01*
X27950904Y-97744761D02*
X27743619Y-97061214D01*
X28292924Y-96805068D02*
X27560517Y-97146595D01*
X47976127Y-94897051D02*
X48318147Y-93957358D01*
X48513094Y-95092491D02*
X48305809Y-94408944D01*
X48855114Y-94152798D02*
X48122707Y-94494325D01*
X65877273Y-101412531D02*
X66219293Y-100472838D01*
X66414240Y-101607971D02*
X66206955Y-100924424D01*
X66756260Y-100668278D02*
X66023853Y-101009805D01*
X86818968Y-99574153D02*
X87160988Y-98634460D01*
X87355935Y-99769593D02*
X87148650Y-99086046D01*
X87697955Y-98829900D02*
X86965548Y-99171427D01*
X104937305Y-105492932D02*
X105279325Y-104553239D01*
X105474272Y-105688372D02*
X105266987Y-105004825D01*
X105816292Y-104748679D02*
X105083885Y-105090206D01*
X121969712Y-114395230D02*
X122311732Y-113455537D01*
X122506679Y-114590670D02*
X122299394Y-113907123D01*
X122848699Y-113650977D02*
X122116292Y-113992504D01*
X188189371Y-111972511D02*
X187847351Y-111032819D01*
X188726338Y-111777071D02*
X188128173Y-111386684D01*
X188384318Y-110837379D02*
X188042791Y-111569786D01*
X205221787Y-103070204D02*
X204879767Y-102130512D01*
X205758754Y-102874764D02*
X205160589Y-102484377D01*
X205416734Y-101935072D02*
X205075207Y-102667479D01*
X223122937Y-96554730D02*
X222780917Y-95615038D01*
X223659904Y-96359290D02*
X223061739Y-95968903D01*
X223317884Y-95419598D02*
X222976357Y-96152005D01*
X244281811Y-98989815D02*
X243939791Y-98050123D01*
X244818778Y-98794375D02*
X244220613Y-98403988D01*
X244476758Y-97854683D02*
X244135231Y-98587090D01*
X262182962Y-92474334D02*
X261840942Y-91534642D01*
X262719929Y-92278894D02*
X262121764Y-91888507D01*
X262377909Y-91339202D02*
X262036382Y-92071609D01*
X282717288Y-95050065D02*
X282375268Y-94110373D01*
X283254255Y-94854625D02*
X282656090Y-94464238D01*
X282912235Y-93914933D02*
X282570708Y-94647340D01*
X20301751Y-115233293D02*
X20643771Y-114293600D01*
X20838718Y-115428733D02*
X20631433Y-114745186D01*
X21180738Y-114489040D02*
X20448331Y-114830567D01*
X41460640Y-112798197D02*
X41802660Y-111858504D01*
X41997607Y-112993637D02*
X41790322Y-112310090D01*
X42339627Y-112053944D02*
X41607220Y-112395471D01*
X59361784Y-119313678D02*
X59703804Y-118373985D01*
X59898751Y-119509118D02*
X59691466Y-118825571D01*
X60240771Y-118569425D02*
X59508364Y-118910952D01*
X80520673Y-116878589D02*
X80862693Y-115938896D01*
X81057640Y-117074029D02*
X80850355Y-116390482D01*
X81399660Y-116134336D02*
X80667253Y-116475863D01*
X98421817Y-123394075D02*
X98763837Y-122454382D01*
X98958784Y-123589515D02*
X98751499Y-122905968D01*
X99300804Y-122649822D02*
X98568397Y-122991349D01*
X115454227Y-132296378D02*
X115796247Y-131356685D01*
X115991194Y-132491818D02*
X115783909Y-131808271D01*
X116333214Y-131552125D02*
X115600807Y-131893652D01*
X194704855Y-129873654D02*
X194362835Y-128933962D01*
X195241822Y-129678214D02*
X194643657Y-129287827D01*
X194899802Y-128738522D02*
X194558275Y-129470929D01*
X211737272Y-120971347D02*
X211395252Y-120031655D01*
X212274239Y-120775907D02*
X211676074Y-120385520D01*
X211932219Y-119836215D02*
X211590692Y-120568622D01*
X229638415Y-114455871D02*
X229296395Y-113516179D01*
X230175382Y-114260431D02*
X229577217Y-113870044D01*
X229833362Y-113320739D02*
X229491835Y-114053146D01*
X250797300Y-116890954D02*
X250455280Y-115951262D01*
X251334267Y-116695514D02*
X250736102Y-116305127D01*
X250992247Y-115755822D02*
X250650720Y-116488229D01*
X268670586Y-110298938D02*
X268328566Y-109359246D01*
X269207553Y-110103498D02*
X268609388Y-109713111D01*
X268865533Y-109163806D02*
X268524006Y-109896213D01*
X289829478Y-112734021D02*
X289487458Y-111794329D01*
X290366445Y-112538581D02*
X289768280Y-112148194D01*
X290024425Y-111598889D02*
X289682898Y-112331296D01*
X143128597Y-111960142D02*
X143470617Y-111020449D01*
X143665564Y-112155582D02*
X143458279Y-111472035D01*
X144007584Y-111215889D02*
X143275177Y-111557416D01*
X167030483Y-109537420D02*
X166688463Y-108597728D01*
X167567450Y-109341980D02*
X166969285Y-108951593D01*
X167225430Y-108402288D02*
X166883903Y-109134695D01*
X136613116Y-129861290D02*
X136955136Y-128921597D01*
X137150083Y-130056730D02*
X136942798Y-129373183D01*
X137492103Y-129117037D02*
X136759696Y-129458564D01*
X149288144Y-139792503D02*
X148581037Y-139085396D01*
X149692205Y-139388442D02*
X148985098Y-139287427D01*
X148985098Y-138681335D02*
X148985098Y-139489457D01*
X173545969Y-127438570D02*
X173203949Y-126498878D01*
X174082936Y-127243130D02*
X173484771Y-126852743D01*
X173740916Y-126303438D02*
X173399389Y-127035845D01*
X56617600Y-56882438D02*
X56735555Y-56976046D01*
X56959292Y-57057479D01*
X57065073Y-57045305D01*
X57126107Y-57016845D01*
X57203428Y-56943637D01*
X57236001Y-56854142D01*
X57223827Y-56748361D01*
X57195366Y-56687327D01*
X57122158Y-56610006D01*
X56959456Y-56500112D01*
X56886248Y-56422792D01*
X56857788Y-56361758D01*
X56845614Y-56255977D01*
X56878187Y-56166482D01*
X56955508Y-56093274D01*
X57016542Y-56064814D01*
X57122323Y-56052640D01*
X57346059Y-56134073D01*
X57464014Y-56227680D01*
X57793532Y-56296940D02*
X57675248Y-57318066D01*
X58098537Y-56712004D01*
X58033226Y-57448359D01*
X58598983Y-56590100D01*
X58879640Y-56793601D02*
X58940674Y-56765141D01*
X59046455Y-56752967D01*
X59270192Y-56834400D01*
X59343400Y-56911721D01*
X59371860Y-56972755D01*
X59384034Y-57078536D01*
X59351461Y-57168030D01*
X59257853Y-57285986D01*
X58525446Y-57627513D01*
X59107161Y-57839239D01*
X74518749Y-63397911D02*
X74636704Y-63491519D01*
X74860441Y-63572952D01*
X74966222Y-63560778D01*
X75027256Y-63532318D01*
X75104577Y-63459110D01*
X75137150Y-63369615D01*
X75124976Y-63263834D01*
X75096515Y-63202800D01*
X75023307Y-63125479D01*
X74860605Y-63015585D01*
X74787397Y-62938265D01*
X74758937Y-62877231D01*
X74746763Y-62771450D01*
X74779336Y-62681955D01*
X74856657Y-62608747D01*
X74917691Y-62580287D01*
X75023472Y-62568113D01*
X75247208Y-62649546D01*
X75365163Y-62743153D01*
X75694681Y-62812413D02*
X75576397Y-63833539D01*
X75999686Y-63227477D01*
X75934375Y-63963832D01*
X76500132Y-63105573D01*
X76768615Y-63203293D02*
X77350330Y-63415020D01*
X76906805Y-63658991D01*
X77041047Y-63707851D01*
X77114255Y-63785172D01*
X77142716Y-63846206D01*
X77154890Y-63951987D01*
X77073456Y-64175723D01*
X76996136Y-64248931D01*
X76935102Y-64277392D01*
X76829321Y-64289566D01*
X76560837Y-64191846D01*
X76487629Y-64114525D01*
X76459168Y-64053491D01*
X95677639Y-60962822D02*
X95795594Y-61056430D01*
X96019331Y-61137863D01*
X96125112Y-61125689D01*
X96186146Y-61097229D01*
X96263467Y-61024021D01*
X96296040Y-60934526D01*
X96283866Y-60828745D01*
X96255405Y-60767711D01*
X96182197Y-60690390D01*
X96019495Y-60580496D01*
X95946287Y-60503176D01*
X95917827Y-60442142D01*
X95905653Y-60336361D01*
X95938226Y-60246866D01*
X96015547Y-60173658D01*
X96076581Y-60145198D01*
X96182362Y-60133024D01*
X96406098Y-60214457D01*
X96524053Y-60308064D01*
X96853571Y-60377324D02*
X96735287Y-61398450D01*
X97158576Y-60792388D01*
X97093265Y-61528743D01*
X97659022Y-60670484D01*
X98305718Y-61260588D02*
X98077705Y-61887050D01*
X98212276Y-60821177D02*
X97744239Y-61410952D01*
X98325954Y-61622679D01*
X113578781Y-67478305D02*
X113696736Y-67571913D01*
X113920473Y-67653346D01*
X114026254Y-67641172D01*
X114087288Y-67612712D01*
X114164609Y-67539504D01*
X114197182Y-67450009D01*
X114185008Y-67344228D01*
X114156547Y-67283194D01*
X114083339Y-67205873D01*
X113920637Y-67095979D01*
X113847429Y-67018659D01*
X113818969Y-66957625D01*
X113806795Y-66851844D01*
X113839368Y-66762349D01*
X113916689Y-66689141D01*
X113977723Y-66660681D01*
X114083504Y-66648507D01*
X114307240Y-66729940D01*
X114425195Y-66823547D01*
X114754713Y-66892807D02*
X114636429Y-67913933D01*
X115059718Y-67307871D01*
X114994407Y-68044226D01*
X115560164Y-67185967D01*
X116365614Y-67479127D02*
X115918142Y-67316260D01*
X115710528Y-67747446D01*
X115771562Y-67718986D01*
X115877343Y-67706812D01*
X116101079Y-67788245D01*
X116174287Y-67865566D01*
X116202748Y-67926600D01*
X116214922Y-68032381D01*
X116133488Y-68256117D01*
X116056168Y-68329325D01*
X115995134Y-68357786D01*
X115889353Y-68369960D01*
X115665616Y-68288526D01*
X115592408Y-68211206D01*
X115563948Y-68150172D01*
X130611193Y-76380615D02*
X130729148Y-76474223D01*
X130952885Y-76555656D01*
X131058666Y-76543482D01*
X131119700Y-76515022D01*
X131197021Y-76441814D01*
X131229594Y-76352319D01*
X131217420Y-76246538D01*
X131188959Y-76185504D01*
X131115751Y-76108183D01*
X130953049Y-75998289D01*
X130879841Y-75920969D01*
X130851381Y-75859935D01*
X130839207Y-75754154D01*
X130871780Y-75664659D01*
X130949101Y-75591451D01*
X131010135Y-75562991D01*
X131115916Y-75550817D01*
X131339652Y-75632250D01*
X131457607Y-75725857D01*
X131787125Y-75795117D02*
X131668841Y-76816243D01*
X132092130Y-76210181D01*
X132026819Y-76946536D01*
X132592576Y-76088277D01*
X133353279Y-76365150D02*
X133174290Y-76300004D01*
X133068509Y-76312178D01*
X133007475Y-76340638D01*
X132869120Y-76442307D01*
X132759226Y-76605009D01*
X132628933Y-76962987D01*
X132641107Y-77068768D01*
X132669568Y-77129802D01*
X132742775Y-77207123D01*
X132921765Y-77272270D01*
X133027546Y-77260096D01*
X133088580Y-77231635D01*
X133165900Y-77158427D01*
X133247334Y-76934691D01*
X133235160Y-76828910D01*
X133206699Y-76767876D01*
X133133491Y-76690555D01*
X132954502Y-76625409D01*
X132848721Y-76637582D01*
X132787687Y-76666043D01*
X132710366Y-76739251D01*
X170373804Y-77296987D02*
X170524332Y-77292874D01*
X170748069Y-77211441D01*
X170821276Y-77134120D01*
X170849737Y-77073086D01*
X170861911Y-76967305D01*
X170829338Y-76877811D01*
X170752017Y-76804603D01*
X170690983Y-76776142D01*
X170585202Y-76763968D01*
X170389926Y-76784368D01*
X170284145Y-76772194D01*
X170223111Y-76743733D01*
X170145790Y-76670525D01*
X170113217Y-76581031D01*
X170125391Y-76475250D01*
X170153851Y-76414216D01*
X170227059Y-76336895D01*
X170450796Y-76255462D01*
X170601324Y-76251349D01*
X170898268Y-76092595D02*
X171464025Y-76950854D01*
X171398714Y-76214499D01*
X171822003Y-76820561D01*
X171703719Y-75799435D01*
X171972203Y-75701715D02*
X172598665Y-75473701D01*
X172537959Y-76559974D01*
X187406220Y-68394679D02*
X187556748Y-68390566D01*
X187780485Y-68309133D01*
X187853692Y-68231812D01*
X187882153Y-68170778D01*
X187894327Y-68064997D01*
X187861754Y-67975503D01*
X187784433Y-67902295D01*
X187723399Y-67873834D01*
X187617618Y-67861660D01*
X187422342Y-67882060D01*
X187316561Y-67869886D01*
X187255527Y-67841425D01*
X187178206Y-67768217D01*
X187145633Y-67678723D01*
X187157807Y-67572942D01*
X187186267Y-67511908D01*
X187259475Y-67434587D01*
X187483212Y-67353154D01*
X187633740Y-67349041D01*
X187930684Y-67190287D02*
X188496441Y-68048546D01*
X188431130Y-67312191D01*
X188854419Y-67918253D01*
X188736135Y-66897127D01*
X189374935Y-67120699D02*
X189269154Y-67108525D01*
X189208120Y-67080064D01*
X189130799Y-67006856D01*
X189114513Y-66962109D01*
X189126687Y-66856328D01*
X189155147Y-66795294D01*
X189228355Y-66717973D01*
X189407344Y-66652827D01*
X189513125Y-66665001D01*
X189574159Y-66693461D01*
X189651480Y-66766669D01*
X189667767Y-66811416D01*
X189655593Y-66917198D01*
X189627132Y-66978232D01*
X189553924Y-67055552D01*
X189374935Y-67120699D01*
X189301727Y-67198019D01*
X189273267Y-67259053D01*
X189261093Y-67364835D01*
X189326239Y-67543824D01*
X189403560Y-67617032D01*
X189464594Y-67645492D01*
X189570375Y-67657666D01*
X189749364Y-67592519D01*
X189822572Y-67515199D01*
X189851033Y-67454165D01*
X189863207Y-67348384D01*
X189798060Y-67169395D01*
X189720739Y-67096187D01*
X189659705Y-67067726D01*
X189553924Y-67055552D01*
X205307364Y-61879201D02*
X205457892Y-61875088D01*
X205681629Y-61793655D01*
X205754836Y-61716334D01*
X205783297Y-61655300D01*
X205795471Y-61549519D01*
X205762898Y-61460025D01*
X205685577Y-61386817D01*
X205624543Y-61358356D01*
X205518762Y-61346182D01*
X205323486Y-61366582D01*
X205217705Y-61354408D01*
X205156671Y-61325947D01*
X205079350Y-61252739D01*
X205046777Y-61163245D01*
X205058951Y-61057464D01*
X205087411Y-60996430D01*
X205160619Y-60919109D01*
X205384356Y-60837676D01*
X205534884Y-60833563D01*
X205831828Y-60674809D02*
X206397585Y-61533068D01*
X206332274Y-60796713D01*
X206755563Y-61402775D01*
X206637279Y-60381649D01*
X207382025Y-61174761D02*
X207561014Y-61109615D01*
X207634222Y-61032294D01*
X207662682Y-60971260D01*
X207703317Y-60804445D01*
X207682917Y-60609169D01*
X207552624Y-60251191D01*
X207475303Y-60177983D01*
X207414269Y-60149523D01*
X207308488Y-60137349D01*
X207129499Y-60202495D01*
X207056291Y-60279816D01*
X207027831Y-60340850D01*
X207015657Y-60446631D01*
X207097090Y-60670368D01*
X207174411Y-60743575D01*
X207235445Y-60772036D01*
X207341226Y-60784210D01*
X207520215Y-60719063D01*
X207593423Y-60641743D01*
X207621883Y-60580709D01*
X207634057Y-60474927D01*
X226018772Y-64477157D02*
X226169301Y-64473044D01*
X226393037Y-64391611D01*
X226466245Y-64314290D01*
X226494705Y-64253256D01*
X226506879Y-64147475D01*
X226474306Y-64057980D01*
X226396985Y-63984773D01*
X226335951Y-63956312D01*
X226230170Y-63944138D01*
X226034894Y-63964537D01*
X225929113Y-63952364D01*
X225868079Y-63923903D01*
X225790759Y-63850695D01*
X225758185Y-63761201D01*
X225770359Y-63655419D01*
X225798820Y-63594385D01*
X225872028Y-63517065D01*
X226095764Y-63435631D01*
X226246292Y-63431519D01*
X226543237Y-63272765D02*
X227108993Y-64131024D01*
X227043682Y-63394668D01*
X227466971Y-64000731D01*
X227348687Y-62979605D01*
X228540906Y-63609850D02*
X228003939Y-63805291D01*
X228272422Y-63707570D02*
X227930402Y-62767878D01*
X227889767Y-62934693D01*
X227832846Y-63056761D01*
X227759638Y-63134081D01*
X228780600Y-62458431D02*
X228870095Y-62425858D01*
X228975876Y-62438032D01*
X229036910Y-62466492D01*
X229114230Y-62539700D01*
X229224124Y-62702402D01*
X229305558Y-62926139D01*
X229325957Y-63121415D01*
X229313783Y-63227196D01*
X229285323Y-63288230D01*
X229212115Y-63365550D01*
X229122620Y-63398124D01*
X229016839Y-63385950D01*
X228955805Y-63357489D01*
X228878484Y-63284281D01*
X228768590Y-63121579D01*
X228687157Y-62897843D01*
X228666758Y-62702567D01*
X228678932Y-62596786D01*
X228707392Y-62535752D01*
X228780600Y-62458431D01*
X243919922Y-57961673D02*
X244070451Y-57957560D01*
X244294187Y-57876127D01*
X244367395Y-57798806D01*
X244395855Y-57737772D01*
X244408029Y-57631991D01*
X244375456Y-57542496D01*
X244298135Y-57469289D01*
X244237101Y-57440828D01*
X244131320Y-57428654D01*
X243936044Y-57449053D01*
X243830263Y-57436880D01*
X243769229Y-57408419D01*
X243691909Y-57335211D01*
X243659335Y-57245717D01*
X243671509Y-57139935D01*
X243699970Y-57078901D01*
X243773178Y-57001581D01*
X243996914Y-56920147D01*
X244147442Y-56916035D01*
X244444387Y-56757281D02*
X245010143Y-57615540D01*
X244944832Y-56879184D01*
X245368121Y-57485247D01*
X245249837Y-56464121D01*
X246442056Y-57094366D02*
X245905089Y-57289807D01*
X246173572Y-57192086D02*
X245831552Y-56252394D01*
X245790917Y-56419209D01*
X245733996Y-56541277D01*
X245660788Y-56618597D01*
X247337001Y-56768633D02*
X246800034Y-56964073D01*
X247068517Y-56866353D02*
X246726497Y-55926660D01*
X246685863Y-56093476D01*
X246628942Y-56215543D01*
X246555734Y-56292864D01*
X265078807Y-60396757D02*
X265229336Y-60392644D01*
X265453072Y-60311211D01*
X265526280Y-60233890D01*
X265554740Y-60172856D01*
X265566914Y-60067075D01*
X265534341Y-59977580D01*
X265457020Y-59904373D01*
X265395986Y-59875912D01*
X265290205Y-59863738D01*
X265094929Y-59884137D01*
X264989148Y-59871964D01*
X264928114Y-59843503D01*
X264850794Y-59770295D01*
X264818220Y-59680801D01*
X264830394Y-59575019D01*
X264858855Y-59513985D01*
X264932063Y-59436665D01*
X265155799Y-59355231D01*
X265306327Y-59351119D01*
X265603272Y-59192365D02*
X266169028Y-60050624D01*
X266103717Y-59314268D01*
X266527006Y-59920331D01*
X266408722Y-58899205D01*
X267600941Y-59529450D02*
X267063974Y-59724891D01*
X267332457Y-59627170D02*
X266990437Y-58687478D01*
X266949802Y-58854293D01*
X266892881Y-58976361D01*
X266819673Y-59053681D01*
X267649472Y-58548959D02*
X267677933Y-58487925D01*
X267751141Y-58410604D01*
X267974877Y-58329171D01*
X268080658Y-58341345D01*
X268141692Y-58369806D01*
X268219013Y-58443013D01*
X268251586Y-58532508D01*
X268255699Y-58683036D01*
X267914172Y-59415444D01*
X268495886Y-59203717D01*
X28495769Y-77055802D02*
X28613724Y-77149409D01*
X28837460Y-77230842D01*
X28943241Y-77218668D01*
X29004275Y-77190208D01*
X29081596Y-77117000D01*
X29114169Y-77027505D01*
X29101995Y-76921724D01*
X29073535Y-76860690D01*
X29000327Y-76783370D01*
X28837624Y-76673476D01*
X28764417Y-76596155D01*
X28735956Y-76535121D01*
X28723782Y-76429340D01*
X28756355Y-76339845D01*
X28833676Y-76266638D01*
X28894710Y-76238177D01*
X29000491Y-76226003D01*
X29224227Y-76307436D01*
X29342183Y-76401044D01*
X29671700Y-76470303D02*
X29553416Y-77491429D01*
X29976706Y-76885367D01*
X29911394Y-77621723D01*
X30477151Y-76763463D01*
X30985329Y-78012603D02*
X30448362Y-77817163D01*
X30716845Y-77914883D02*
X31058865Y-76975190D01*
X30920511Y-77076858D01*
X30798443Y-77133780D01*
X30692662Y-77145954D01*
X31640580Y-77186917D02*
X32222294Y-77398644D01*
X31778770Y-77642615D01*
X31913012Y-77691475D01*
X31986220Y-77768796D01*
X32014680Y-77829830D01*
X32026854Y-77935611D01*
X31945421Y-78159347D01*
X31868100Y-78232555D01*
X31807066Y-78261016D01*
X31701285Y-78273189D01*
X31432802Y-78175469D01*
X31359594Y-78098149D01*
X31331133Y-78037115D01*
X49654649Y-74620714D02*
X49772604Y-74714321D01*
X49996340Y-74795754D01*
X50102121Y-74783580D01*
X50163155Y-74755120D01*
X50240476Y-74681912D01*
X50273049Y-74592417D01*
X50260875Y-74486636D01*
X50232415Y-74425602D01*
X50159207Y-74348282D01*
X49996504Y-74238388D01*
X49923297Y-74161067D01*
X49894836Y-74100033D01*
X49882662Y-73994252D01*
X49915235Y-73904757D01*
X49992556Y-73831550D01*
X50053590Y-73803089D01*
X50159371Y-73790915D01*
X50383107Y-73872348D01*
X50501063Y-73965956D01*
X50830580Y-74035215D02*
X50712296Y-75056341D01*
X51135586Y-74450279D01*
X51070274Y-75186635D01*
X51636031Y-74328375D01*
X52144209Y-75577515D02*
X51607242Y-75382075D01*
X51875725Y-75479795D02*
X52217745Y-74540102D01*
X52079391Y-74641770D01*
X51957323Y-74698692D01*
X51851542Y-74710866D01*
X53177673Y-75244213D02*
X52949660Y-75870675D01*
X53084230Y-74804802D02*
X52616194Y-75394577D01*
X53197908Y-75606304D01*
X67555794Y-81136190D02*
X67673749Y-81229797D01*
X67897485Y-81311230D01*
X68003266Y-81299056D01*
X68064300Y-81270596D01*
X68141621Y-81197388D01*
X68174194Y-81107893D01*
X68162020Y-81002112D01*
X68133560Y-80941078D01*
X68060352Y-80863758D01*
X67897649Y-80753864D01*
X67824442Y-80676543D01*
X67795981Y-80615509D01*
X67783807Y-80509728D01*
X67816380Y-80420233D01*
X67893701Y-80347026D01*
X67954735Y-80318565D01*
X68060516Y-80306391D01*
X68284252Y-80387824D01*
X68402208Y-80481432D01*
X68731725Y-80550691D02*
X68613441Y-81571817D01*
X69036731Y-80965755D01*
X68971419Y-81702111D01*
X69537176Y-80843851D01*
X70045354Y-82092991D02*
X69508387Y-81897551D01*
X69776870Y-81995271D02*
X70118890Y-81055578D01*
X69980536Y-81157246D01*
X69858468Y-81214168D01*
X69752687Y-81226342D01*
X71237572Y-81462745D02*
X70790099Y-81299878D01*
X70582485Y-81731064D01*
X70643519Y-81702604D01*
X70749301Y-81690430D01*
X70973037Y-81771863D01*
X71046245Y-81849184D01*
X71074705Y-81910218D01*
X71086879Y-82015999D01*
X71005446Y-82239735D01*
X70928125Y-82312943D01*
X70867091Y-82341404D01*
X70761310Y-82353577D01*
X70537574Y-82272144D01*
X70464366Y-82194823D01*
X70435905Y-82133790D01*
X88714681Y-78701105D02*
X88832636Y-78794712D01*
X89056372Y-78876145D01*
X89162153Y-78863971D01*
X89223187Y-78835511D01*
X89300508Y-78762303D01*
X89333081Y-78672808D01*
X89320907Y-78567027D01*
X89292447Y-78505993D01*
X89219239Y-78428673D01*
X89056536Y-78318779D01*
X88983329Y-78241458D01*
X88954868Y-78180424D01*
X88942694Y-78074643D01*
X88975267Y-77985148D01*
X89052588Y-77911941D01*
X89113622Y-77883480D01*
X89219403Y-77871306D01*
X89443139Y-77952739D01*
X89561095Y-78046347D01*
X89890612Y-78115606D02*
X89772328Y-79136732D01*
X90195618Y-78530670D01*
X90130306Y-79267026D01*
X90696063Y-78408766D01*
X91204241Y-79657906D02*
X90667274Y-79462466D01*
X90935757Y-79560186D02*
X91277777Y-78620493D01*
X91139423Y-78722161D01*
X91017355Y-78779083D01*
X90911574Y-78791257D01*
X92351712Y-79011373D02*
X92172723Y-78946226D01*
X92066942Y-78958400D01*
X92005908Y-78986861D01*
X91867553Y-79088529D01*
X91757659Y-79251232D01*
X91627366Y-79609210D01*
X91639540Y-79714991D01*
X91668000Y-79776025D01*
X91741208Y-79853346D01*
X91920197Y-79918492D01*
X92025978Y-79906319D01*
X92087012Y-79877858D01*
X92164333Y-79804650D01*
X92245766Y-79580914D01*
X92233592Y-79475133D01*
X92205132Y-79414099D01*
X92131924Y-79336778D01*
X91952935Y-79271631D01*
X91847154Y-79283805D01*
X91786120Y-79312266D01*
X91708799Y-79385474D01*
X106615829Y-85216589D02*
X106733784Y-85310196D01*
X106957520Y-85391629D01*
X107063301Y-85379455D01*
X107124335Y-85350995D01*
X107201656Y-85277787D01*
X107234229Y-85188292D01*
X107222055Y-85082511D01*
X107193595Y-85021477D01*
X107120387Y-84944157D01*
X106957684Y-84834263D01*
X106884477Y-84756942D01*
X106856016Y-84695908D01*
X106843842Y-84590127D01*
X106876415Y-84500632D01*
X106953736Y-84427425D01*
X107014770Y-84398964D01*
X107120551Y-84386790D01*
X107344287Y-84468223D01*
X107462243Y-84561831D01*
X107791760Y-84631090D02*
X107673476Y-85652216D01*
X108096766Y-85046154D01*
X108031454Y-85782510D01*
X108597211Y-84924250D01*
X109105389Y-86173390D02*
X108568422Y-85977950D01*
X108836905Y-86075670D02*
X109178925Y-85135977D01*
X109040571Y-85237645D01*
X108918503Y-85294567D01*
X108812722Y-85306741D01*
X109760640Y-85347704D02*
X110387102Y-85575717D01*
X109642356Y-86368830D01*
X123648241Y-94118893D02*
X123766196Y-94212500D01*
X123989932Y-94293933D01*
X124095713Y-94281759D01*
X124156747Y-94253299D01*
X124234068Y-94180091D01*
X124266641Y-94090596D01*
X124254467Y-93984815D01*
X124226007Y-93923781D01*
X124152799Y-93846461D01*
X123990096Y-93736567D01*
X123916889Y-93659246D01*
X123888428Y-93598212D01*
X123876254Y-93492431D01*
X123908827Y-93402936D01*
X123986148Y-93329729D01*
X124047182Y-93301268D01*
X124152963Y-93289094D01*
X124376699Y-93370527D01*
X124494655Y-93464135D01*
X124824172Y-93533394D02*
X124705888Y-94554520D01*
X125129178Y-93948458D01*
X125063866Y-94684814D01*
X125629623Y-93826554D01*
X126137801Y-95075694D02*
X125600834Y-94880254D01*
X125869317Y-94977974D02*
X126211337Y-94038281D01*
X126072983Y-94139949D01*
X125950915Y-94196871D01*
X125845134Y-94209045D01*
X126870208Y-94734167D02*
X126797000Y-94656846D01*
X126768540Y-94595812D01*
X126756366Y-94490031D01*
X126772653Y-94445284D01*
X126849973Y-94372076D01*
X126911007Y-94343615D01*
X127016788Y-94331441D01*
X127195777Y-94396588D01*
X127268985Y-94473908D01*
X127297446Y-94534942D01*
X127309620Y-94640724D01*
X127293333Y-94685471D01*
X127216012Y-94758679D01*
X127154978Y-94787139D01*
X127049197Y-94799313D01*
X126870208Y-94734167D01*
X126764427Y-94746340D01*
X126703393Y-94774801D01*
X126626072Y-94848009D01*
X126560926Y-95026998D01*
X126573100Y-95132779D01*
X126601560Y-95193813D01*
X126674768Y-95271134D01*
X126853757Y-95336280D01*
X126959538Y-95324107D01*
X127020572Y-95295646D01*
X127097893Y-95222438D01*
X127163040Y-95043449D01*
X127150866Y-94937668D01*
X127122405Y-94876634D01*
X127049197Y-94799313D01*
X176441815Y-95360994D02*
X176592344Y-95356881D01*
X176816080Y-95275448D01*
X176889288Y-95198127D01*
X176917748Y-95137093D01*
X176929922Y-95031312D01*
X176897349Y-94941817D01*
X176820028Y-94868610D01*
X176758994Y-94840149D01*
X176653213Y-94827975D01*
X176457937Y-94848374D01*
X176352156Y-94836201D01*
X176291122Y-94807740D01*
X176213802Y-94734532D01*
X176181228Y-94645038D01*
X176193402Y-94539256D01*
X176221863Y-94478222D01*
X176295071Y-94400902D01*
X176518807Y-94319468D01*
X176669335Y-94315356D01*
X176966280Y-94156602D02*
X177532036Y-95014861D01*
X177466725Y-94278505D01*
X177890014Y-94884568D01*
X177771730Y-93863442D01*
X178963949Y-94493687D02*
X178426982Y-94689128D01*
X178695465Y-94591407D02*
X178353445Y-93651715D01*
X178312810Y-93818530D01*
X178255889Y-93940598D01*
X178182681Y-94017918D01*
X179411421Y-94330821D02*
X179590410Y-94265674D01*
X179663618Y-94188353D01*
X179692079Y-94127319D01*
X179732713Y-93960504D01*
X179712314Y-93765229D01*
X179582021Y-93407250D01*
X179504700Y-93334043D01*
X179443666Y-93305582D01*
X179337885Y-93293408D01*
X179158896Y-93358555D01*
X179085688Y-93435875D01*
X179057227Y-93496909D01*
X179045053Y-93602690D01*
X179126487Y-93826427D01*
X179203807Y-93899635D01*
X179264841Y-93928095D01*
X179370623Y-93940269D01*
X179549612Y-93875123D01*
X179622819Y-93797802D01*
X179651280Y-93736768D01*
X179663454Y-93630987D01*
X193474231Y-86458692D02*
X193624760Y-86454579D01*
X193848496Y-86373146D01*
X193921704Y-86295825D01*
X193950164Y-86234791D01*
X193962338Y-86129010D01*
X193929765Y-86039515D01*
X193852444Y-85966308D01*
X193791410Y-85937847D01*
X193685629Y-85925673D01*
X193490353Y-85946072D01*
X193384572Y-85933899D01*
X193323538Y-85905438D01*
X193246218Y-85832230D01*
X193213644Y-85742736D01*
X193225818Y-85636954D01*
X193254279Y-85575920D01*
X193327487Y-85498600D01*
X193551223Y-85417166D01*
X193701751Y-85413054D01*
X193998696Y-85254300D02*
X194564452Y-86112559D01*
X194499141Y-85376203D01*
X194922430Y-85982266D01*
X194804146Y-84961140D01*
X195149951Y-84936627D02*
X195178411Y-84875593D01*
X195251619Y-84798273D01*
X195475356Y-84716839D01*
X195581137Y-84729013D01*
X195642171Y-84757474D01*
X195719491Y-84830682D01*
X195752065Y-84920176D01*
X195756177Y-85070705D01*
X195414650Y-85803112D01*
X195996365Y-85591385D01*
X196236059Y-84439966D02*
X196325554Y-84407393D01*
X196431335Y-84419567D01*
X196492369Y-84448027D01*
X196569689Y-84521235D01*
X196679583Y-84683937D01*
X196761017Y-84907674D01*
X196781416Y-85102950D01*
X196769242Y-85208731D01*
X196740782Y-85269765D01*
X196667574Y-85347085D01*
X196578079Y-85379659D01*
X196472298Y-85367485D01*
X196411264Y-85339024D01*
X196333943Y-85265816D01*
X196224049Y-85103114D01*
X196142616Y-84879378D01*
X196122217Y-84684102D01*
X196134391Y-84578321D01*
X196162851Y-84517287D01*
X196236059Y-84439966D01*
X211375377Y-79943212D02*
X211525906Y-79939099D01*
X211749642Y-79857666D01*
X211822850Y-79780345D01*
X211851310Y-79719311D01*
X211863484Y-79613530D01*
X211830911Y-79524035D01*
X211753590Y-79450828D01*
X211692556Y-79422367D01*
X211586775Y-79410193D01*
X211391499Y-79430592D01*
X211285718Y-79418419D01*
X211224684Y-79389958D01*
X211147364Y-79316750D01*
X211114790Y-79227256D01*
X211126964Y-79121474D01*
X211155425Y-79060440D01*
X211228633Y-78983120D01*
X211452369Y-78901686D01*
X211602897Y-78897574D01*
X211899842Y-78738820D02*
X212465598Y-79597079D01*
X212400287Y-78860723D01*
X212823576Y-79466786D01*
X212705292Y-78445660D01*
X213051097Y-78421147D02*
X213079557Y-78360113D01*
X213152765Y-78282793D01*
X213376502Y-78201359D01*
X213482283Y-78213533D01*
X213543317Y-78241994D01*
X213620637Y-78315202D01*
X213653211Y-78404696D01*
X213657323Y-78555225D01*
X213315796Y-79287632D01*
X213897511Y-79075905D01*
X214792456Y-78750172D02*
X214255489Y-78945612D01*
X214523972Y-78847892D02*
X214181952Y-77908199D01*
X214141318Y-78075015D01*
X214084397Y-78197082D01*
X214011189Y-78274403D01*
X232534256Y-82378298D02*
X232684785Y-82374185D01*
X232908521Y-82292752D01*
X232981729Y-82215431D01*
X233010189Y-82154397D01*
X233022363Y-82048616D01*
X232989790Y-81959121D01*
X232912469Y-81885914D01*
X232851435Y-81857453D01*
X232745654Y-81845279D01*
X232550378Y-81865678D01*
X232444597Y-81853505D01*
X232383563Y-81825044D01*
X232306243Y-81751836D01*
X232273669Y-81662342D01*
X232285843Y-81556560D01*
X232314304Y-81495526D01*
X232387512Y-81418206D01*
X232611248Y-81336772D01*
X232761776Y-81332660D01*
X233058721Y-81173906D02*
X233624477Y-82032165D01*
X233559166Y-81295809D01*
X233982455Y-81901872D01*
X233864171Y-80880746D01*
X234209976Y-80856233D02*
X234238436Y-80795199D01*
X234311644Y-80717879D01*
X234535381Y-80636445D01*
X234641162Y-80648619D01*
X234702196Y-80677080D01*
X234779516Y-80750288D01*
X234812090Y-80839782D01*
X234816202Y-80990311D01*
X234474675Y-81722718D01*
X235056390Y-81510991D01*
X235104921Y-80530500D02*
X235133382Y-80469466D01*
X235206590Y-80392145D01*
X235430326Y-80310712D01*
X235536107Y-80322886D01*
X235597141Y-80351347D01*
X235674462Y-80424554D01*
X235707035Y-80514049D01*
X235711148Y-80664577D01*
X235369621Y-81396985D01*
X235951335Y-81185258D01*
X250435410Y-75862825D02*
X250585939Y-75858712D01*
X250809675Y-75777279D01*
X250882883Y-75699958D01*
X250911343Y-75638924D01*
X250923517Y-75533143D01*
X250890944Y-75443648D01*
X250813623Y-75370441D01*
X250752589Y-75341980D01*
X250646808Y-75329806D01*
X250451532Y-75350205D01*
X250345751Y-75338032D01*
X250284717Y-75309571D01*
X250207397Y-75236363D01*
X250174823Y-75146869D01*
X250186997Y-75041087D01*
X250215458Y-74980053D01*
X250288666Y-74902733D01*
X250512402Y-74821299D01*
X250662930Y-74817187D01*
X250959875Y-74658433D02*
X251525631Y-75516692D01*
X251460320Y-74780336D01*
X251883609Y-75386399D01*
X251765325Y-74365273D01*
X252111130Y-74340760D02*
X252139590Y-74279726D01*
X252212798Y-74202406D01*
X252436535Y-74120972D01*
X252542316Y-74133146D01*
X252603350Y-74161607D01*
X252680670Y-74234815D01*
X252713244Y-74324309D01*
X252717356Y-74474838D01*
X252375829Y-75207245D01*
X252957544Y-74995518D01*
X252928754Y-73941819D02*
X253510469Y-73730092D01*
X253327531Y-74202077D01*
X253461773Y-74153217D01*
X253567554Y-74165391D01*
X253628588Y-74193852D01*
X253705909Y-74267060D01*
X253787342Y-74490796D01*
X253775168Y-74596577D01*
X253746708Y-74657611D01*
X253673500Y-74734932D01*
X253405016Y-74832652D01*
X253299235Y-74820478D01*
X253238201Y-74792017D01*
X271594292Y-78297907D02*
X271744821Y-78293794D01*
X271968557Y-78212361D01*
X272041765Y-78135040D01*
X272070225Y-78074006D01*
X272082399Y-77968225D01*
X272049826Y-77878730D01*
X271972505Y-77805523D01*
X271911471Y-77777062D01*
X271805690Y-77764888D01*
X271610414Y-77785287D01*
X271504633Y-77773114D01*
X271443599Y-77744653D01*
X271366279Y-77671445D01*
X271333705Y-77581951D01*
X271345879Y-77476169D01*
X271374340Y-77415135D01*
X271447548Y-77337815D01*
X271671284Y-77256381D01*
X271821812Y-77252269D01*
X272118757Y-77093515D02*
X272684513Y-77951774D01*
X272619202Y-77215418D01*
X273042491Y-77821481D01*
X272924207Y-76800355D01*
X273270012Y-76775842D02*
X273298472Y-76714808D01*
X273371680Y-76637488D01*
X273595417Y-76556054D01*
X273701198Y-76568228D01*
X273762232Y-76596689D01*
X273839552Y-76669897D01*
X273872126Y-76759391D01*
X273876238Y-76909920D01*
X273534711Y-77642327D01*
X274116426Y-77430600D01*
X274693863Y-76510979D02*
X274921877Y-77137440D01*
X274339833Y-76234434D02*
X274360397Y-76987076D01*
X274942112Y-76775349D01*
X21980285Y-94956944D02*
X22098240Y-95050551D01*
X22321976Y-95131984D01*
X22427757Y-95119810D01*
X22488791Y-95091350D01*
X22566112Y-95018142D01*
X22598685Y-94928647D01*
X22586511Y-94822866D01*
X22558051Y-94761832D01*
X22484843Y-94684512D01*
X22322140Y-94574618D01*
X22248933Y-94497297D01*
X22220472Y-94436263D01*
X22208298Y-94330482D01*
X22240871Y-94240987D01*
X22318192Y-94167780D01*
X22379226Y-94139319D01*
X22485007Y-94127145D01*
X22708743Y-94208578D01*
X22826699Y-94302186D01*
X23156216Y-94371445D02*
X23037932Y-95392571D01*
X23461222Y-94786509D01*
X23395910Y-95522865D01*
X23961667Y-94664605D01*
X24242325Y-94868106D02*
X24303358Y-94839646D01*
X24409140Y-94827472D01*
X24632876Y-94908905D01*
X24706084Y-94986226D01*
X24734544Y-95047260D01*
X24746718Y-95153041D01*
X24714145Y-95242536D01*
X24620538Y-95360491D01*
X23888130Y-95702018D01*
X24469845Y-95913745D01*
X25662063Y-95283499D02*
X25214590Y-95120632D01*
X25006976Y-95551818D01*
X25068010Y-95523358D01*
X25173792Y-95511184D01*
X25397528Y-95592617D01*
X25470736Y-95669938D01*
X25499196Y-95730972D01*
X25511370Y-95836753D01*
X25429937Y-96060489D01*
X25352616Y-96133697D01*
X25291582Y-96162158D01*
X25185801Y-96174331D01*
X24962065Y-96092898D01*
X24888857Y-96015577D01*
X24860396Y-95954544D01*
X43139167Y-92521853D02*
X43257122Y-92615460D01*
X43480858Y-92696893D01*
X43586639Y-92684719D01*
X43647673Y-92656259D01*
X43724994Y-92583051D01*
X43757567Y-92493556D01*
X43745393Y-92387775D01*
X43716933Y-92326741D01*
X43643725Y-92249421D01*
X43481022Y-92139527D01*
X43407815Y-92062206D01*
X43379354Y-92001172D01*
X43367180Y-91895391D01*
X43399753Y-91805896D01*
X43477074Y-91732689D01*
X43538108Y-91704228D01*
X43643889Y-91692054D01*
X43867625Y-91773487D01*
X43985581Y-91867095D01*
X44315098Y-91936354D02*
X44196814Y-92957480D01*
X44620104Y-92351418D01*
X44554792Y-93087774D01*
X45120549Y-92229514D01*
X45401207Y-92433015D02*
X45462240Y-92404555D01*
X45568022Y-92392381D01*
X45791758Y-92473814D01*
X45864966Y-92551135D01*
X45893426Y-92612169D01*
X45905600Y-92717950D01*
X45873027Y-92807445D01*
X45779420Y-92925400D01*
X45047012Y-93266927D01*
X45628727Y-93478654D01*
X46776198Y-92832121D02*
X46597209Y-92766974D01*
X46491428Y-92779148D01*
X46430394Y-92807609D01*
X46292039Y-92909277D01*
X46182145Y-93071980D01*
X46051852Y-93429958D01*
X46064026Y-93535739D01*
X46092486Y-93596773D01*
X46165694Y-93674094D01*
X46344683Y-93739240D01*
X46450464Y-93727067D01*
X46511498Y-93698606D01*
X46588819Y-93625398D01*
X46670252Y-93401662D01*
X46658078Y-93295881D01*
X46629618Y-93234847D01*
X46556410Y-93157526D01*
X46377421Y-93092379D01*
X46271640Y-93104553D01*
X46210606Y-93133014D01*
X46133285Y-93206222D01*
X61040314Y-99037333D02*
X61158269Y-99130940D01*
X61382005Y-99212373D01*
X61487786Y-99200199D01*
X61548820Y-99171739D01*
X61626141Y-99098531D01*
X61658714Y-99009036D01*
X61646540Y-98903255D01*
X61618080Y-98842221D01*
X61544872Y-98764901D01*
X61382169Y-98655007D01*
X61308962Y-98577686D01*
X61280501Y-98516652D01*
X61268327Y-98410871D01*
X61300900Y-98321376D01*
X61378221Y-98248169D01*
X61439255Y-98219708D01*
X61545036Y-98207534D01*
X61768772Y-98288967D01*
X61886728Y-98382575D01*
X62216245Y-98451834D02*
X62097961Y-99472960D01*
X62521251Y-98866898D01*
X62455939Y-99603254D01*
X63021696Y-98744994D01*
X63302354Y-98948495D02*
X63363387Y-98920035D01*
X63469169Y-98907861D01*
X63692905Y-98989294D01*
X63766113Y-99066615D01*
X63794573Y-99127649D01*
X63806747Y-99233430D01*
X63774174Y-99322925D01*
X63680567Y-99440880D01*
X62948159Y-99782407D01*
X63529874Y-99994134D01*
X64185125Y-99168448D02*
X64811587Y-99396461D01*
X64066841Y-100189574D01*
X82199207Y-96602250D02*
X82317162Y-96695857D01*
X82540898Y-96777290D01*
X82646679Y-96765116D01*
X82707713Y-96736656D01*
X82785034Y-96663448D01*
X82817607Y-96573953D01*
X82805433Y-96468172D01*
X82776973Y-96407138D01*
X82703765Y-96329818D01*
X82541062Y-96219924D01*
X82467855Y-96142603D01*
X82439394Y-96081569D01*
X82427220Y-95975788D01*
X82459793Y-95886293D01*
X82537114Y-95813086D01*
X82598148Y-95784625D01*
X82703929Y-95772451D01*
X82927665Y-95853884D01*
X83045621Y-95947492D01*
X83375138Y-96016751D02*
X83256854Y-97037877D01*
X83680144Y-96431815D01*
X83614832Y-97168171D01*
X84180589Y-96309911D01*
X84461247Y-96513412D02*
X84522280Y-96484952D01*
X84628062Y-96472778D01*
X84851798Y-96554211D01*
X84925006Y-96631532D01*
X84953466Y-96692566D01*
X84965640Y-96798347D01*
X84933067Y-96887842D01*
X84839460Y-97005797D01*
X84107052Y-97347324D01*
X84688767Y-97559051D01*
X85421174Y-97217524D02*
X85347966Y-97140203D01*
X85319506Y-97079169D01*
X85307332Y-96973388D01*
X85323619Y-96928641D01*
X85400939Y-96855433D01*
X85461973Y-96826972D01*
X85567754Y-96814798D01*
X85746743Y-96879945D01*
X85819951Y-96957265D01*
X85848412Y-97018299D01*
X85860586Y-97124081D01*
X85844299Y-97168828D01*
X85766978Y-97242036D01*
X85705944Y-97270496D01*
X85600163Y-97282670D01*
X85421174Y-97217524D01*
X85315393Y-97229697D01*
X85254359Y-97258158D01*
X85177038Y-97331366D01*
X85111892Y-97510355D01*
X85124066Y-97616136D01*
X85152526Y-97677170D01*
X85225734Y-97754491D01*
X85404723Y-97819637D01*
X85510504Y-97807464D01*
X85571538Y-97779003D01*
X85648859Y-97705795D01*
X85714006Y-97526806D01*
X85701832Y-97421025D01*
X85673371Y-97359991D01*
X85600163Y-97282670D01*
X100100344Y-103117736D02*
X100218299Y-103211343D01*
X100442035Y-103292776D01*
X100547816Y-103280602D01*
X100608850Y-103252142D01*
X100686171Y-103178934D01*
X100718744Y-103089439D01*
X100706570Y-102983658D01*
X100678110Y-102922624D01*
X100604902Y-102845304D01*
X100442199Y-102735410D01*
X100368992Y-102658089D01*
X100340531Y-102597055D01*
X100328357Y-102491274D01*
X100360930Y-102401779D01*
X100438251Y-102328572D01*
X100499285Y-102300111D01*
X100605066Y-102287937D01*
X100828802Y-102369370D01*
X100946758Y-102462978D01*
X101276275Y-102532237D02*
X101157991Y-103553363D01*
X101581281Y-102947301D01*
X101515969Y-103683657D01*
X102081726Y-102825397D01*
X102362384Y-103028898D02*
X102423417Y-103000438D01*
X102529199Y-102988264D01*
X102752935Y-103069697D01*
X102826143Y-103147018D01*
X102854603Y-103208052D01*
X102866777Y-103313833D01*
X102834204Y-103403328D01*
X102740597Y-103521283D01*
X102008189Y-103862810D01*
X102589904Y-104074537D01*
X103037377Y-104237403D02*
X103216366Y-104302550D01*
X103322147Y-104290376D01*
X103383181Y-104261916D01*
X103521535Y-104160247D01*
X103631429Y-103997545D01*
X103761723Y-103639567D01*
X103749549Y-103533785D01*
X103721088Y-103472751D01*
X103647880Y-103395431D01*
X103468891Y-103330284D01*
X103363110Y-103342458D01*
X103302076Y-103370919D01*
X103224756Y-103444127D01*
X103143322Y-103667863D01*
X103155496Y-103773644D01*
X103183957Y-103834678D01*
X103257165Y-103911999D01*
X103436154Y-103977145D01*
X103541935Y-103964971D01*
X103602969Y-103936511D01*
X103680289Y-103863303D01*
X117132751Y-112020034D02*
X117250706Y-112113641D01*
X117474442Y-112195074D01*
X117580223Y-112182900D01*
X117641257Y-112154440D01*
X117718578Y-112081232D01*
X117751151Y-111991737D01*
X117738977Y-111885956D01*
X117710517Y-111824922D01*
X117637309Y-111747602D01*
X117474606Y-111637708D01*
X117401399Y-111560387D01*
X117372938Y-111499353D01*
X117360764Y-111393572D01*
X117393337Y-111304077D01*
X117470658Y-111230870D01*
X117531692Y-111202409D01*
X117637473Y-111190235D01*
X117861209Y-111271668D01*
X117979165Y-111365276D01*
X118308682Y-111434535D02*
X118190398Y-112455661D01*
X118613688Y-111849599D01*
X118548376Y-112585955D01*
X119114133Y-111727695D01*
X119382617Y-111825415D02*
X119964331Y-112037142D01*
X119520807Y-112281113D01*
X119655049Y-112329973D01*
X119728256Y-112407294D01*
X119756717Y-112468328D01*
X119768891Y-112574109D01*
X119687458Y-112797846D01*
X119610137Y-112871053D01*
X119549103Y-112899514D01*
X119443322Y-112911688D01*
X119174838Y-112813968D01*
X119101630Y-112736647D01*
X119073170Y-112675613D01*
X120546046Y-112248869D02*
X120635540Y-112281442D01*
X120708748Y-112358763D01*
X120737209Y-112419797D01*
X120749382Y-112525578D01*
X120728983Y-112720854D01*
X120647550Y-112944590D01*
X120537656Y-113107292D01*
X120460335Y-113180500D01*
X120399301Y-113208961D01*
X120293520Y-113221135D01*
X120204025Y-113188561D01*
X120130818Y-113111241D01*
X120102357Y-113050207D01*
X120090183Y-112944426D01*
X120110582Y-112749150D01*
X120192016Y-112525414D01*
X120301910Y-112362711D01*
X120379230Y-112289503D01*
X120440264Y-112261043D01*
X120546046Y-112248869D01*
X182957302Y-113262138D02*
X183107831Y-113258025D01*
X183331567Y-113176592D01*
X183404775Y-113099271D01*
X183433235Y-113038237D01*
X183445409Y-112932456D01*
X183412836Y-112842961D01*
X183335515Y-112769754D01*
X183274481Y-112741293D01*
X183168700Y-112729119D01*
X182973424Y-112749518D01*
X182867643Y-112737345D01*
X182806609Y-112708884D01*
X182729289Y-112635676D01*
X182696715Y-112546182D01*
X182708889Y-112440400D01*
X182737350Y-112379366D01*
X182810558Y-112302046D01*
X183034294Y-112220612D01*
X183184822Y-112216500D01*
X183481767Y-112057746D02*
X184047523Y-112916005D01*
X183982212Y-112179649D01*
X184405501Y-112785712D01*
X184287217Y-111764586D01*
X184555701Y-111666866D02*
X185137416Y-111455139D01*
X184954478Y-111927124D01*
X185088720Y-111878264D01*
X185194501Y-111890438D01*
X185255535Y-111918898D01*
X185332856Y-111992106D01*
X185414289Y-112215842D01*
X185402115Y-112321624D01*
X185373655Y-112382657D01*
X185300447Y-112459978D01*
X185031963Y-112557698D01*
X184926182Y-112545524D01*
X184865148Y-112517064D01*
X186374381Y-112069098D02*
X185837414Y-112264538D01*
X186105897Y-112166818D02*
X185763877Y-111227125D01*
X185723243Y-111393941D01*
X185666322Y-111516008D01*
X185593114Y-111593329D01*
X199989720Y-104359838D02*
X200140249Y-104355725D01*
X200363985Y-104274292D01*
X200437193Y-104196971D01*
X200465653Y-104135937D01*
X200477827Y-104030156D01*
X200445254Y-103940661D01*
X200367933Y-103867454D01*
X200306899Y-103838993D01*
X200201118Y-103826819D01*
X200005842Y-103847218D01*
X199900061Y-103835045D01*
X199839027Y-103806584D01*
X199761707Y-103733376D01*
X199729133Y-103643882D01*
X199741307Y-103538100D01*
X199769768Y-103477066D01*
X199842976Y-103399746D01*
X200066712Y-103318312D01*
X200217240Y-103314200D01*
X200514185Y-103155446D02*
X201079941Y-104013705D01*
X201014630Y-103277349D01*
X201437919Y-103883412D01*
X201319635Y-102862286D01*
X201588119Y-102764566D02*
X202169834Y-102552839D01*
X201986896Y-103024824D01*
X202121138Y-102975964D01*
X202226919Y-102988138D01*
X202287953Y-103016598D01*
X202365274Y-103089806D01*
X202446707Y-103313542D01*
X202434533Y-103419324D01*
X202406073Y-103480357D01*
X202332865Y-103557678D01*
X202064381Y-103655398D01*
X201958600Y-103643224D01*
X201897566Y-103614764D01*
X202560385Y-102512040D02*
X202588846Y-102451006D01*
X202662054Y-102373685D01*
X202885790Y-102292252D01*
X202991571Y-102304426D01*
X203052605Y-102332887D01*
X203129926Y-102406094D01*
X203162499Y-102495589D01*
X203166612Y-102646117D01*
X202825085Y-103378525D01*
X203406799Y-103166798D01*
X217890862Y-97844359D02*
X218041391Y-97840246D01*
X218265127Y-97758813D01*
X218338335Y-97681492D01*
X218366795Y-97620458D01*
X218378969Y-97514677D01*
X218346396Y-97425182D01*
X218269075Y-97351975D01*
X218208041Y-97323514D01*
X218102260Y-97311340D01*
X217906984Y-97331739D01*
X217801203Y-97319566D01*
X217740169Y-97291105D01*
X217662849Y-97217897D01*
X217630275Y-97128403D01*
X217642449Y-97022621D01*
X217670910Y-96961587D01*
X217744118Y-96884267D01*
X217967854Y-96802833D01*
X218118382Y-96798721D01*
X218415327Y-96639967D02*
X218981083Y-97498226D01*
X218915772Y-96761870D01*
X219339061Y-97367933D01*
X219220777Y-96346807D01*
X219489261Y-96249087D02*
X220070976Y-96037360D01*
X219888038Y-96509345D01*
X220022280Y-96460485D01*
X220128061Y-96472659D01*
X220189095Y-96501119D01*
X220266416Y-96574327D01*
X220347849Y-96798063D01*
X220335675Y-96903845D01*
X220307215Y-96964878D01*
X220234007Y-97042199D01*
X219965523Y-97139919D01*
X219859742Y-97127745D01*
X219798708Y-97099285D01*
X220384206Y-95923353D02*
X220965921Y-95711626D01*
X220782983Y-96183611D01*
X220917225Y-96134751D01*
X221023006Y-96146925D01*
X221084040Y-96175386D01*
X221161361Y-96248594D01*
X221242794Y-96472330D01*
X221230620Y-96578111D01*
X221202160Y-96639145D01*
X221128952Y-96716466D01*
X220860468Y-96814186D01*
X220754687Y-96802012D01*
X220693653Y-96773551D01*
X239049745Y-100279442D02*
X239200274Y-100275329D01*
X239424010Y-100193896D01*
X239497218Y-100116575D01*
X239525678Y-100055541D01*
X239537852Y-99949760D01*
X239505279Y-99860265D01*
X239427958Y-99787058D01*
X239366924Y-99758597D01*
X239261143Y-99746423D01*
X239065867Y-99766822D01*
X238960086Y-99754649D01*
X238899052Y-99726188D01*
X238821732Y-99652980D01*
X238789158Y-99563486D01*
X238801332Y-99457704D01*
X238829793Y-99396670D01*
X238903001Y-99319350D01*
X239126737Y-99237916D01*
X239277265Y-99233804D01*
X239574210Y-99075050D02*
X240139966Y-99933309D01*
X240074655Y-99196953D01*
X240497944Y-99803016D01*
X240379660Y-98781890D01*
X240648144Y-98684170D02*
X241229859Y-98472443D01*
X241046921Y-98944428D01*
X241181163Y-98895568D01*
X241286944Y-98907742D01*
X241347978Y-98936202D01*
X241425299Y-99009410D01*
X241506732Y-99233146D01*
X241494558Y-99338928D01*
X241466098Y-99399961D01*
X241392890Y-99477282D01*
X241124406Y-99575002D01*
X241018625Y-99562828D01*
X240957591Y-99534368D01*
X242149316Y-98492514D02*
X242377330Y-99118975D01*
X241795286Y-98215969D02*
X241815850Y-98968611D01*
X242397565Y-98756884D01*
X256950894Y-93763957D02*
X257101423Y-93759844D01*
X257325159Y-93678411D01*
X257398367Y-93601090D01*
X257426827Y-93540056D01*
X257439001Y-93434275D01*
X257406428Y-93344780D01*
X257329107Y-93271573D01*
X257268073Y-93243112D01*
X257162292Y-93230938D01*
X256967016Y-93251337D01*
X256861235Y-93239164D01*
X256800201Y-93210703D01*
X256722881Y-93137495D01*
X256690307Y-93048001D01*
X256702481Y-92942219D01*
X256730942Y-92881185D01*
X256804150Y-92803865D01*
X257027886Y-92722431D01*
X257178414Y-92718319D01*
X257475359Y-92559565D02*
X258041115Y-93417824D01*
X257975804Y-92681468D01*
X258399093Y-93287531D01*
X258280809Y-92266405D01*
X258549293Y-92168685D02*
X259131008Y-91956958D01*
X258948070Y-92428943D01*
X259082312Y-92380083D01*
X259188093Y-92392257D01*
X259249127Y-92420717D01*
X259326448Y-92493925D01*
X259407881Y-92717661D01*
X259395707Y-92823443D01*
X259367247Y-92884476D01*
X259294039Y-92961797D01*
X259025555Y-93059517D01*
X258919774Y-93047343D01*
X258858740Y-93018883D01*
X259981206Y-91647511D02*
X259533733Y-91810378D01*
X259651852Y-92274137D01*
X259680313Y-92213103D01*
X259753521Y-92135783D01*
X259977257Y-92054349D01*
X260083038Y-92066523D01*
X260144072Y-92094984D01*
X260221393Y-92168192D01*
X260302826Y-92391928D01*
X260290652Y-92497709D01*
X260262192Y-92558743D01*
X260188984Y-92636064D01*
X259965248Y-92717497D01*
X259859466Y-92705323D01*
X259798433Y-92676862D01*
X278109779Y-96199047D02*
X278260308Y-96194934D01*
X278484044Y-96113501D01*
X278557252Y-96036180D01*
X278585712Y-95975146D01*
X278597886Y-95869365D01*
X278565313Y-95779870D01*
X278487992Y-95706663D01*
X278426958Y-95678202D01*
X278321177Y-95666028D01*
X278125901Y-95686427D01*
X278020120Y-95674254D01*
X277959086Y-95645793D01*
X277881766Y-95572585D01*
X277849192Y-95483091D01*
X277861366Y-95377309D01*
X277889827Y-95316275D01*
X277963035Y-95238955D01*
X278186771Y-95157521D01*
X278337299Y-95153409D01*
X278634244Y-94994655D02*
X279200000Y-95852914D01*
X279134689Y-95116558D01*
X279557978Y-95722621D01*
X279439694Y-94701495D01*
X279708178Y-94603775D02*
X280289893Y-94392048D01*
X280106955Y-94864033D01*
X280241197Y-94815173D01*
X280346978Y-94827347D01*
X280408012Y-94855807D01*
X280485333Y-94929015D01*
X280566766Y-95152751D01*
X280554592Y-95258533D01*
X280526132Y-95319566D01*
X280452924Y-95396887D01*
X280184440Y-95494607D01*
X280078659Y-95482433D01*
X280017625Y-95453973D01*
X281095343Y-94098888D02*
X280916354Y-94164034D01*
X280843146Y-94241355D01*
X280814686Y-94302389D01*
X280774051Y-94469204D01*
X280794451Y-94664480D01*
X280924744Y-95022458D01*
X281002065Y-95095666D01*
X281063099Y-95124126D01*
X281168880Y-95136300D01*
X281347869Y-95071154D01*
X281421077Y-94993833D01*
X281449537Y-94932799D01*
X281461711Y-94827018D01*
X281380278Y-94603282D01*
X281302957Y-94530074D01*
X281241923Y-94501613D01*
X281136142Y-94489439D01*
X280957153Y-94554586D01*
X280883945Y-94631906D01*
X280855485Y-94692940D01*
X280843311Y-94798722D01*
X15464797Y-112858085D02*
X15582752Y-112951692D01*
X15806488Y-113033125D01*
X15912269Y-113020951D01*
X15973303Y-112992491D01*
X16050624Y-112919283D01*
X16083197Y-112829788D01*
X16071023Y-112724007D01*
X16042563Y-112662973D01*
X15969355Y-112585653D01*
X15806652Y-112475759D01*
X15733445Y-112398438D01*
X15704984Y-112337404D01*
X15692810Y-112231623D01*
X15725383Y-112142128D01*
X15802704Y-112068921D01*
X15863738Y-112040460D01*
X15969519Y-112028286D01*
X16193255Y-112109719D01*
X16311211Y-112203327D01*
X16640728Y-112272586D02*
X16522444Y-113293712D01*
X16945734Y-112687650D01*
X16880422Y-113424006D01*
X17446179Y-112565746D01*
X17714663Y-112663466D02*
X18296377Y-112875193D01*
X17852853Y-113119164D01*
X17987095Y-113168024D01*
X18060302Y-113245345D01*
X18088763Y-113306379D01*
X18100937Y-113412160D01*
X18019504Y-113635897D01*
X17942183Y-113709104D01*
X17881149Y-113737565D01*
X17775368Y-113749739D01*
X17506884Y-113652019D01*
X17433676Y-113574698D01*
X17405216Y-113513664D01*
X18609608Y-112989200D02*
X19236070Y-113217213D01*
X18491324Y-114010326D01*
X36623683Y-110422999D02*
X36741638Y-110516606D01*
X36965374Y-110598039D01*
X37071155Y-110585865D01*
X37132189Y-110557405D01*
X37209510Y-110484197D01*
X37242083Y-110394702D01*
X37229909Y-110288921D01*
X37201449Y-110227887D01*
X37128241Y-110150567D01*
X36965538Y-110040673D01*
X36892331Y-109963352D01*
X36863870Y-109902318D01*
X36851696Y-109796537D01*
X36884269Y-109707042D01*
X36961590Y-109633835D01*
X37022624Y-109605374D01*
X37128405Y-109593200D01*
X37352141Y-109674633D01*
X37470097Y-109768241D01*
X37799614Y-109837500D02*
X37681330Y-110858626D01*
X38104620Y-110252564D01*
X38039308Y-110988920D01*
X38605065Y-110130660D01*
X38873549Y-110228380D02*
X39455263Y-110440107D01*
X39011739Y-110684078D01*
X39145981Y-110732938D01*
X39219188Y-110810259D01*
X39247649Y-110871293D01*
X39259823Y-110977074D01*
X39178390Y-111200811D01*
X39101069Y-111274018D01*
X39040035Y-111302479D01*
X38934254Y-111314653D01*
X38665770Y-111216933D01*
X38592562Y-111139612D01*
X38564102Y-111078578D01*
X39845650Y-111038273D02*
X39772442Y-110960952D01*
X39743982Y-110899918D01*
X39731808Y-110794137D01*
X39748095Y-110749390D01*
X39825415Y-110676182D01*
X39886449Y-110647721D01*
X39992230Y-110635547D01*
X40171219Y-110700694D01*
X40244427Y-110778014D01*
X40272888Y-110839048D01*
X40285062Y-110944830D01*
X40268775Y-110989577D01*
X40191454Y-111062785D01*
X40130420Y-111091245D01*
X40024639Y-111103419D01*
X39845650Y-111038273D01*
X39739869Y-111050446D01*
X39678835Y-111078907D01*
X39601514Y-111152115D01*
X39536368Y-111331104D01*
X39548542Y-111436885D01*
X39577002Y-111497919D01*
X39650210Y-111575240D01*
X39829199Y-111640386D01*
X39934980Y-111628213D01*
X39996014Y-111599752D01*
X40073335Y-111526544D01*
X40138482Y-111347555D01*
X40126308Y-111241774D01*
X40097847Y-111180740D01*
X40024639Y-111103419D01*
X54524831Y-116938487D02*
X54642786Y-117032094D01*
X54866522Y-117113527D01*
X54972303Y-117101353D01*
X55033337Y-117072893D01*
X55110658Y-116999685D01*
X55143231Y-116910190D01*
X55131057Y-116804409D01*
X55102597Y-116743375D01*
X55029389Y-116666055D01*
X54866686Y-116556161D01*
X54793479Y-116478840D01*
X54765018Y-116417806D01*
X54752844Y-116312025D01*
X54785417Y-116222530D01*
X54862738Y-116149323D01*
X54923772Y-116120862D01*
X55029553Y-116108688D01*
X55253289Y-116190121D01*
X55371245Y-116283729D01*
X55700762Y-116352988D02*
X55582478Y-117374114D01*
X56005768Y-116768052D01*
X55940456Y-117504408D01*
X56506213Y-116646148D01*
X56774697Y-116743868D02*
X57356411Y-116955595D01*
X56912887Y-117199566D01*
X57047129Y-117248426D01*
X57120336Y-117325747D01*
X57148797Y-117386781D01*
X57160971Y-117492562D01*
X57079538Y-117716299D01*
X57002217Y-117789506D01*
X56941183Y-117817967D01*
X56835402Y-117830141D01*
X56566918Y-117732421D01*
X56493710Y-117655100D01*
X56465250Y-117594066D01*
X57461864Y-118058154D02*
X57640853Y-118123301D01*
X57746634Y-118111127D01*
X57807668Y-118082667D01*
X57946022Y-117980998D01*
X58055916Y-117818296D01*
X58186210Y-117460318D01*
X58174036Y-117354536D01*
X58145575Y-117293502D01*
X58072367Y-117216182D01*
X57893378Y-117151035D01*
X57787597Y-117163209D01*
X57726563Y-117191670D01*
X57649243Y-117264878D01*
X57567809Y-117488614D01*
X57579983Y-117594395D01*
X57608444Y-117655429D01*
X57681652Y-117732750D01*
X57860641Y-117797896D01*
X57966422Y-117785722D01*
X58027456Y-117757262D01*
X58104776Y-117684054D01*
X75683714Y-114503393D02*
X75801669Y-114597000D01*
X76025405Y-114678433D01*
X76131186Y-114666259D01*
X76192220Y-114637799D01*
X76269541Y-114564591D01*
X76302114Y-114475096D01*
X76289940Y-114369315D01*
X76261480Y-114308281D01*
X76188272Y-114230961D01*
X76025569Y-114121067D01*
X75952362Y-114043746D01*
X75923901Y-113982712D01*
X75911727Y-113876931D01*
X75944300Y-113787436D01*
X76021621Y-113714229D01*
X76082655Y-113685768D01*
X76188436Y-113673594D01*
X76412172Y-113755027D01*
X76530128Y-113848635D01*
X76859645Y-113917894D02*
X76741361Y-114939020D01*
X77164651Y-114332958D01*
X77099339Y-115069314D01*
X77665096Y-114211054D01*
X78311793Y-114801159D02*
X78083779Y-115427620D01*
X78218350Y-114361747D02*
X77750313Y-114951523D01*
X78332028Y-115163249D01*
X79097009Y-114732228D02*
X79186503Y-114764801D01*
X79259711Y-114842122D01*
X79288172Y-114903156D01*
X79300345Y-115008937D01*
X79279946Y-115204213D01*
X79198513Y-115427949D01*
X79088619Y-115590651D01*
X79011298Y-115663859D01*
X78950264Y-115692320D01*
X78844483Y-115704494D01*
X78754988Y-115671920D01*
X78681781Y-115594600D01*
X78653320Y-115533566D01*
X78641146Y-115427785D01*
X78661545Y-115232509D01*
X78742979Y-115008773D01*
X78852873Y-114846070D01*
X78930193Y-114772862D01*
X78991227Y-114744402D01*
X79097009Y-114732228D01*
X93584861Y-121018877D02*
X93702816Y-121112484D01*
X93926552Y-121193917D01*
X94032333Y-121181743D01*
X94093367Y-121153283D01*
X94170688Y-121080075D01*
X94203261Y-120990580D01*
X94191087Y-120884799D01*
X94162627Y-120823765D01*
X94089419Y-120746445D01*
X93926716Y-120636551D01*
X93853509Y-120559230D01*
X93825048Y-120498196D01*
X93812874Y-120392415D01*
X93845447Y-120302920D01*
X93922768Y-120229713D01*
X93983802Y-120201252D01*
X94089583Y-120189078D01*
X94313319Y-120270511D01*
X94431275Y-120364119D01*
X94760792Y-120433378D02*
X94642508Y-121454504D01*
X95065798Y-120848442D01*
X95000486Y-121584798D01*
X95566243Y-120726538D01*
X96212940Y-121316643D02*
X95984926Y-121943104D01*
X96119497Y-120877231D02*
X95651460Y-121467007D01*
X96233175Y-121678733D01*
X96969366Y-122301411D02*
X96432399Y-122105971D01*
X96700883Y-122203691D02*
X97042903Y-121263998D01*
X96904548Y-121365667D01*
X96782480Y-121422588D01*
X96676699Y-121434762D01*
X110617277Y-129921180D02*
X110735232Y-130014787D01*
X110958968Y-130096220D01*
X111064749Y-130084046D01*
X111125783Y-130055586D01*
X111203104Y-129982378D01*
X111235677Y-129892883D01*
X111223503Y-129787102D01*
X111195043Y-129726068D01*
X111121835Y-129648748D01*
X110959132Y-129538854D01*
X110885925Y-129461533D01*
X110857464Y-129400499D01*
X110845290Y-129294718D01*
X110877863Y-129205223D01*
X110955184Y-129132016D01*
X111016218Y-129103555D01*
X111121999Y-129091381D01*
X111345735Y-129172814D01*
X111463691Y-129266422D01*
X111793208Y-129335681D02*
X111674924Y-130356807D01*
X112098214Y-129750745D01*
X112032902Y-130487101D01*
X112598659Y-129628841D01*
X113245356Y-130218946D02*
X113017342Y-130845407D01*
X113151913Y-129779534D02*
X112683876Y-130369310D01*
X113265591Y-130581036D01*
X113774262Y-130158076D02*
X113835296Y-130129615D01*
X113941077Y-130117441D01*
X114164813Y-130198875D01*
X114238021Y-130276195D01*
X114266482Y-130337229D01*
X114278656Y-130443011D01*
X114246082Y-130532505D01*
X114152475Y-130650460D01*
X113420068Y-130991987D01*
X114001782Y-131203714D01*
X189472781Y-131163284D02*
X189623310Y-131159171D01*
X189847046Y-131077738D01*
X189920254Y-131000417D01*
X189948714Y-130939383D01*
X189960888Y-130833602D01*
X189928315Y-130744107D01*
X189850994Y-130670900D01*
X189789960Y-130642439D01*
X189684179Y-130630265D01*
X189488903Y-130650664D01*
X189383122Y-130638491D01*
X189322088Y-130610030D01*
X189244768Y-130536822D01*
X189212194Y-130447328D01*
X189224368Y-130341546D01*
X189252829Y-130280512D01*
X189326037Y-130203192D01*
X189549773Y-130121758D01*
X189700301Y-130117646D01*
X189997246Y-129958892D02*
X190563002Y-130817151D01*
X190497691Y-130080795D01*
X190920980Y-130686858D01*
X190802696Y-129665732D01*
X191677407Y-129702089D02*
X191905420Y-130328551D01*
X191323377Y-129425544D02*
X191343941Y-130178187D01*
X191925655Y-129966460D01*
X191966125Y-129242278D02*
X192547840Y-129030551D01*
X192364902Y-129502536D01*
X192499144Y-129453676D01*
X192604925Y-129465850D01*
X192665959Y-129494311D01*
X192743280Y-129567519D01*
X192824713Y-129791255D01*
X192812539Y-129897036D01*
X192784079Y-129958070D01*
X192710871Y-130035391D01*
X192442387Y-130133111D01*
X192336606Y-130120937D01*
X192275572Y-130092476D01*
X206505194Y-122260985D02*
X206655723Y-122256872D01*
X206879459Y-122175439D01*
X206952667Y-122098118D01*
X206981127Y-122037084D01*
X206993301Y-121931303D01*
X206960728Y-121841808D01*
X206883407Y-121768601D01*
X206822373Y-121740140D01*
X206716592Y-121727966D01*
X206521316Y-121748365D01*
X206415535Y-121736192D01*
X206354501Y-121707731D01*
X206277181Y-121634523D01*
X206244607Y-121545029D01*
X206256781Y-121439247D01*
X206285242Y-121378213D01*
X206358450Y-121300893D01*
X206582186Y-121219459D01*
X206732714Y-121215347D01*
X207029659Y-121056593D02*
X207595415Y-121914852D01*
X207530104Y-121178496D01*
X207953393Y-121784559D01*
X207835109Y-120763433D01*
X208709820Y-120799790D02*
X208937833Y-121426252D01*
X208355790Y-120523245D02*
X208376354Y-121275888D01*
X208958068Y-121064161D01*
X209604765Y-120474057D02*
X209832779Y-121100518D01*
X209250735Y-120197512D02*
X209271299Y-120950154D01*
X209853014Y-120738427D01*
X224406340Y-115745494D02*
X224556869Y-115741381D01*
X224780605Y-115659948D01*
X224853813Y-115582627D01*
X224882273Y-115521593D01*
X224894447Y-115415812D01*
X224861874Y-115326317D01*
X224784553Y-115253110D01*
X224723519Y-115224649D01*
X224617738Y-115212475D01*
X224422462Y-115232874D01*
X224316681Y-115220701D01*
X224255647Y-115192240D01*
X224178327Y-115119032D01*
X224145753Y-115029538D01*
X224157927Y-114923756D01*
X224186388Y-114862722D01*
X224259596Y-114785402D01*
X224483332Y-114703968D01*
X224633860Y-114699856D01*
X224930805Y-114541102D02*
X225496561Y-115399361D01*
X225431250Y-114663005D01*
X225854539Y-115269068D01*
X225736255Y-114247942D01*
X226610966Y-114284299D02*
X226838979Y-114910761D01*
X226256936Y-114007754D02*
X226277500Y-114760397D01*
X226859214Y-114548670D01*
X227436652Y-113629048D02*
X226989179Y-113791915D01*
X227107298Y-114255674D01*
X227135759Y-114194640D01*
X227208967Y-114117320D01*
X227432703Y-114035886D01*
X227538484Y-114048060D01*
X227599518Y-114076521D01*
X227676839Y-114149729D01*
X227758272Y-114373465D01*
X227746098Y-114479246D01*
X227717638Y-114540280D01*
X227644430Y-114617601D01*
X227420694Y-114699034D01*
X227314912Y-114686860D01*
X227253879Y-114658399D01*
X245565228Y-118180580D02*
X245715757Y-118176467D01*
X245939493Y-118095034D01*
X246012701Y-118017713D01*
X246041161Y-117956679D01*
X246053335Y-117850898D01*
X246020762Y-117761403D01*
X245943441Y-117688196D01*
X245882407Y-117659735D01*
X245776626Y-117647561D01*
X245581350Y-117667960D01*
X245475569Y-117655787D01*
X245414535Y-117627326D01*
X245337215Y-117554118D01*
X245304641Y-117464624D01*
X245316815Y-117358842D01*
X245345276Y-117297808D01*
X245418484Y-117220488D01*
X245642220Y-117139054D01*
X245792748Y-117134942D01*
X246089693Y-116976188D02*
X246655449Y-117834447D01*
X246590138Y-117098091D01*
X247013427Y-117704154D01*
X246895143Y-116683028D01*
X247769854Y-116719385D02*
X247997867Y-117345847D01*
X247415824Y-116442840D02*
X247436388Y-117195483D01*
X248018102Y-116983756D01*
X248550792Y-116080421D02*
X248371803Y-116145567D01*
X248298595Y-116222888D01*
X248270135Y-116283922D01*
X248229500Y-116450737D01*
X248249900Y-116646013D01*
X248380193Y-117003991D01*
X248457514Y-117077199D01*
X248518548Y-117105659D01*
X248624329Y-117117833D01*
X248803318Y-117052687D01*
X248876526Y-116975366D01*
X248904986Y-116914332D01*
X248917160Y-116808551D01*
X248835727Y-116584815D01*
X248758406Y-116511607D01*
X248697372Y-116483146D01*
X248591591Y-116470972D01*
X248412602Y-116536119D01*
X248339394Y-116613439D01*
X248310934Y-116674473D01*
X248298760Y-116780255D01*
X263466378Y-111665101D02*
X263616907Y-111660988D01*
X263840643Y-111579555D01*
X263913851Y-111502234D01*
X263942311Y-111441200D01*
X263954485Y-111335419D01*
X263921912Y-111245924D01*
X263844591Y-111172717D01*
X263783557Y-111144256D01*
X263677776Y-111132082D01*
X263482500Y-111152481D01*
X263376719Y-111140308D01*
X263315685Y-111111847D01*
X263238365Y-111038639D01*
X263205791Y-110949145D01*
X263217965Y-110843363D01*
X263246426Y-110782329D01*
X263319634Y-110705009D01*
X263543370Y-110623575D01*
X263693898Y-110619463D01*
X263990843Y-110460709D02*
X264556599Y-111318968D01*
X264491288Y-110582612D01*
X264914577Y-111188675D01*
X264796293Y-110167549D01*
X265671004Y-110203906D02*
X265899017Y-110830368D01*
X265316974Y-109927361D02*
X265337538Y-110680004D01*
X265919252Y-110468277D01*
X265959722Y-109744095D02*
X266586184Y-109516082D01*
X266525479Y-110602354D01*
X284625258Y-114100189D02*
X284775787Y-114096076D01*
X284999523Y-114014643D01*
X285072731Y-113937322D01*
X285101191Y-113876288D01*
X285113365Y-113770507D01*
X285080792Y-113681012D01*
X285003471Y-113607805D01*
X284942437Y-113579344D01*
X284836656Y-113567170D01*
X284641380Y-113587569D01*
X284535599Y-113575396D01*
X284474565Y-113546935D01*
X284397245Y-113473727D01*
X284364671Y-113384233D01*
X284376845Y-113278451D01*
X284405306Y-113217417D01*
X284478514Y-113140097D01*
X284702250Y-113058663D01*
X284852778Y-113054551D01*
X285149723Y-112895797D02*
X285715479Y-113754056D01*
X285650168Y-113017700D01*
X286073457Y-113623763D01*
X285955173Y-112602637D01*
X286829884Y-112638994D02*
X287057897Y-113265456D01*
X286475854Y-112362449D02*
X286496418Y-113115092D01*
X287078132Y-112903365D01*
X287488919Y-112500475D02*
X287383138Y-112488301D01*
X287322104Y-112459841D01*
X287244783Y-112386633D01*
X287228496Y-112341885D01*
X287240670Y-112236104D01*
X287269131Y-112175070D01*
X287342339Y-112097750D01*
X287521328Y-112032603D01*
X287627109Y-112044777D01*
X287688143Y-112073238D01*
X287765464Y-112146445D01*
X287781750Y-112191193D01*
X287769576Y-112296974D01*
X287741116Y-112358008D01*
X287667908Y-112435328D01*
X287488919Y-112500475D01*
X287415711Y-112577796D01*
X287387250Y-112638830D01*
X287375076Y-112744611D01*
X287440223Y-112923600D01*
X287517544Y-112996808D01*
X287578578Y-113025268D01*
X287684359Y-113037442D01*
X287863348Y-112972296D01*
X287936556Y-112894975D01*
X287965016Y-112833941D01*
X287977190Y-112728160D01*
X287912044Y-112549171D01*
X287834723Y-112475963D01*
X287773689Y-112447502D01*
X287667908Y-112435328D01*
X138291644Y-109584945D02*
X138409599Y-109678552D01*
X138633335Y-109759985D01*
X138739116Y-109747811D01*
X138800150Y-109719351D01*
X138877471Y-109646143D01*
X138910044Y-109556648D01*
X138897870Y-109450867D01*
X138869410Y-109389833D01*
X138796202Y-109312513D01*
X138633499Y-109202619D01*
X138560292Y-109125298D01*
X138531831Y-109064264D01*
X138519657Y-108958483D01*
X138552230Y-108868988D01*
X138629551Y-108795781D01*
X138690585Y-108767320D01*
X138796366Y-108755146D01*
X139020102Y-108836579D01*
X139138058Y-108930187D01*
X139467575Y-108999446D02*
X139349291Y-110020572D01*
X139772581Y-109414510D01*
X139707269Y-110150866D01*
X140273026Y-109292606D01*
X140919723Y-109882711D02*
X140691709Y-110509172D01*
X140826280Y-109443299D02*
X140358243Y-110033075D01*
X140939958Y-110244801D01*
X141228677Y-110704612D02*
X141407666Y-110769759D01*
X141513447Y-110757585D01*
X141574481Y-110729125D01*
X141712835Y-110627456D01*
X141822729Y-110464754D01*
X141953023Y-110106776D01*
X141940849Y-110000994D01*
X141912388Y-109939960D01*
X141839180Y-109862640D01*
X141660191Y-109797493D01*
X141554410Y-109809667D01*
X141493376Y-109838128D01*
X141416056Y-109911336D01*
X141334622Y-110135072D01*
X141346796Y-110240853D01*
X141375257Y-110301887D01*
X141448465Y-110379208D01*
X141627454Y-110444354D01*
X141733235Y-110432180D01*
X141794269Y-110403720D01*
X141871589Y-110330512D01*
X161798420Y-110827051D02*
X161948949Y-110822938D01*
X162172685Y-110741505D01*
X162245893Y-110664184D01*
X162274353Y-110603150D01*
X162286527Y-110497369D01*
X162253954Y-110407874D01*
X162176633Y-110334667D01*
X162115599Y-110306206D01*
X162009818Y-110294032D01*
X161814542Y-110314431D01*
X161708761Y-110302258D01*
X161647727Y-110273797D01*
X161570407Y-110200589D01*
X161537833Y-110111095D01*
X161550007Y-110005313D01*
X161578468Y-109944279D01*
X161651676Y-109866959D01*
X161875412Y-109785525D01*
X162025940Y-109781413D01*
X162322885Y-109622659D02*
X162888641Y-110480918D01*
X162823330Y-109744562D01*
X163246619Y-110350625D01*
X163128335Y-109329499D01*
X163933786Y-109036338D02*
X163486314Y-109199205D01*
X163604433Y-109662965D01*
X163632894Y-109601931D01*
X163706102Y-109524610D01*
X163929838Y-109443177D01*
X164035619Y-109455351D01*
X164096653Y-109483811D01*
X164173974Y-109557019D01*
X164255407Y-109780755D01*
X164243233Y-109886537D01*
X164214773Y-109947570D01*
X164141565Y-110024891D01*
X163917828Y-110106324D01*
X163812047Y-110094151D01*
X163751013Y-110065690D01*
X164560248Y-108808325D02*
X164649743Y-108775752D01*
X164755524Y-108787926D01*
X164816558Y-108816386D01*
X164893878Y-108889594D01*
X165003772Y-109052296D01*
X165085206Y-109276033D01*
X165105605Y-109471309D01*
X165093431Y-109577090D01*
X165064971Y-109638124D01*
X164991763Y-109715444D01*
X164902268Y-109748018D01*
X164796487Y-109735844D01*
X164735453Y-109707383D01*
X164658132Y-109634175D01*
X164548238Y-109471473D01*
X164466805Y-109247737D01*
X164446406Y-109052461D01*
X164458580Y-108946680D01*
X164487040Y-108885646D01*
X164560248Y-108808325D01*
X131776160Y-127486088D02*
X131894115Y-127579695D01*
X132117851Y-127661128D01*
X132223632Y-127648954D01*
X132284666Y-127620494D01*
X132361987Y-127547286D01*
X132394560Y-127457791D01*
X132382386Y-127352010D01*
X132353926Y-127290976D01*
X132280718Y-127213656D01*
X132118015Y-127103762D01*
X132044808Y-127026441D01*
X132016347Y-126965407D01*
X132004173Y-126859626D01*
X132036746Y-126770131D01*
X132114067Y-126696924D01*
X132175101Y-126668463D01*
X132280882Y-126656289D01*
X132504618Y-126737722D01*
X132622574Y-126831330D01*
X132952091Y-126900589D02*
X132833807Y-127921715D01*
X133257097Y-127315653D01*
X133191785Y-128052009D01*
X133757542Y-127193749D01*
X134562993Y-127486909D02*
X134115520Y-127324043D01*
X133907906Y-127755229D01*
X133968940Y-127726768D01*
X134074721Y-127714594D01*
X134298458Y-127796027D01*
X134371665Y-127873348D01*
X134400126Y-127934382D01*
X134412300Y-128040163D01*
X134330867Y-128263900D01*
X134253546Y-128337107D01*
X134192512Y-128365568D01*
X134086731Y-128377742D01*
X133862995Y-128296309D01*
X133789787Y-128218988D01*
X133761326Y-128157954D01*
X135160665Y-128768622D02*
X134623698Y-128573182D01*
X134892182Y-128670902D02*
X135234202Y-127731209D01*
X135095847Y-127832878D01*
X134973779Y-127889799D01*
X134867998Y-127901973D01*
X144911295Y-142962470D02*
X145045982Y-142895126D01*
X145214341Y-142726768D01*
X145248012Y-142625752D01*
X145248012Y-142558409D01*
X145214341Y-142457394D01*
X145146997Y-142390050D01*
X145045982Y-142356378D01*
X144978638Y-142356378D01*
X144877623Y-142390050D01*
X144709264Y-142491065D01*
X144608249Y-142524737D01*
X144540906Y-142524737D01*
X144439890Y-142491065D01*
X144372547Y-142423722D01*
X144338875Y-142322707D01*
X144338875Y-142255363D01*
X144372547Y-142154348D01*
X144540906Y-141985989D01*
X144675593Y-141918646D01*
X144877623Y-141649272D02*
X145753089Y-142188020D01*
X145382699Y-141548256D01*
X146022463Y-141918646D01*
X145483715Y-141043180D01*
X146089806Y-140437089D02*
X145753089Y-140773806D01*
X146056134Y-141144195D01*
X146056134Y-141076852D01*
X146089806Y-140975837D01*
X146258165Y-140807478D01*
X146359180Y-140773806D01*
X146426524Y-140773806D01*
X146527539Y-140807478D01*
X146695898Y-140975837D01*
X146729569Y-141076852D01*
X146729569Y-141144195D01*
X146695898Y-141245211D01*
X146527539Y-141413569D01*
X146426524Y-141447241D01*
X146359180Y-141447241D01*
X146460195Y-140201386D02*
X146460195Y-140134043D01*
X146493867Y-140033028D01*
X146662226Y-139864669D01*
X146763241Y-139830997D01*
X146830585Y-139830997D01*
X146931600Y-139864669D01*
X146998943Y-139932012D01*
X147066287Y-140066699D01*
X147066287Y-140874821D01*
X147504020Y-140437089D01*
X165807252Y-61754820D02*
X165950109Y-61802439D01*
X166188204Y-61802439D01*
X166283442Y-61754820D01*
X166331061Y-61707201D01*
X166378680Y-61611963D01*
X166378680Y-61516725D01*
X166331061Y-61421487D01*
X166283442Y-61373868D01*
X166188204Y-61326249D01*
X165997728Y-61278630D01*
X165902490Y-61231011D01*
X165854871Y-61183392D01*
X165807252Y-61088154D01*
X165807252Y-60992916D01*
X165854871Y-60897678D01*
X165902490Y-60850059D01*
X165997728Y-60802439D01*
X166235823Y-60802439D01*
X166378680Y-60850059D01*
X166712014Y-60802439D02*
X166950109Y-61802439D01*
X167140585Y-61088154D01*
X167331061Y-61802439D01*
X167569156Y-60802439D01*
X168426299Y-60802439D02*
X167950109Y-60802439D01*
X167902490Y-61278630D01*
X167950109Y-61231011D01*
X168045347Y-61183392D01*
X168283442Y-61183392D01*
X168378680Y-61231011D01*
X168426299Y-61278630D01*
X168473918Y-61373868D01*
X168473918Y-61611963D01*
X168426299Y-61707201D01*
X168378680Y-61754820D01*
X168283442Y-61802439D01*
X168045347Y-61802439D01*
X167950109Y-61754820D01*
X167902490Y-61707201D01*
X169331061Y-61135773D02*
X169331061Y-61802439D01*
X169092966Y-60754820D02*
X168854871Y-61469106D01*
X169473918Y-61469106D01*
M02*
